{"glyphs":{"0":{"ha":701,"x_min":0,"x_max":0,"o":"m 304 -14 b 607 292 492 -14 571 90 b 675 674 607 292 675 672 b 432 997 714 894 600 997 b 128 689 276 997 167 914 l 63 322 b 304 -14 28 119 99 -14 z m 313 79 b 163 313 193 79 135 149 l 229 688 b 424 908 258 847 322 908 b 575 683 544 908 603 842 l 507 296 b 313 79 479 140 422 79 z "},"1":{"ha":471,"x_min":0,"x_max":0,"o":"m 365 0 l 382 96 l 232 96 l 390 988 l 313 988 b 154 846 279 889 242 851 l 140 769 l 256 769 l 136 96 l -10 96 l -26 0 z "},"2":{"ha":644,"x_min":0,"x_max":0,"o":"m 517 0 l 533 96 l 121 96 b 376 399 146 235 261 317 b 636 715 493 481 610 565 l 642 742 b 414 997 669 886 588 997 b 138 763 256 997 163 906 l 111 621 l 213 621 l 235 749 b 411 908 253 849 308 908 b 542 749 511 908 558 854 l 536 719 b 301 458 517 607 413 538 b 8 83 175 368 40 267 l -6 0 z "},"3":{"ha":653,"x_min":0,"x_max":0,"o":"m 275 -12 b 564 249 444 -12 531 65 l 568 278 b 465 508 589 389 561 476 b 633 717 571 538 617 615 l 636 735 b 406 997 671 904 576 997 b 125 747 242 997 156 913 b 111 665 125 747 111 669 l 211 665 l 222 731 b 404 908 244 856 297 908 b 536 739 504 908 557 860 l 531 710 b 353 550 514 615 457 550 l 275 550 l 260 465 l 339 465 b 468 290 447 465 485 396 l 463 260 b 281 81 439 128 388 81 b 139 290 153 81 114 149 l 150 350 l 49 350 b 40 301 47 346 40 301 b 275 -12 4 99 69 -12 z "},"4":{"ha":649,"x_min":0,"x_max":0,"o":"m 444 775 l 499 882 l 463 763 l 385 322 l 126 322 z m 586 235 l 601 322 l 478 322 l 594 988 l 506 988 l 19 310 l 6 235 l 369 235 l 328 0 l 421 0 l 463 235 z "},"5":{"ha":658,"x_min":0,"x_max":0,"o":"m 274 -14 b 565 246 435 -14 535 75 l 599 435 b 408 685 625 590 553 685 b 210 579 317 685 257 642 b 297 893 232 663 274 811 l 529 893 b 671 983 639 893 657 903 l 671 988 l 229 988 l 92 488 l 175 458 b 194 486 176 460 194 486 b 374 596 236 544 289 596 b 497 438 472 596 514 538 l 465 257 b 279 78 442 133 382 78 b 149 258 165 78 126 136 l 163 333 l 58 333 l 47 269 b 274 -14 15 88 79 -14 z "},"6":{"ha":682,"x_min":0,"x_max":0,"o":"m 600 276 l 607 326 b 393 606 638 504 539 606 b 189 486 290 606 226 556 l 225 688 b 425 908 254 847 319 908 b 565 697 544 908 592 840 l 564 692 l 667 692 l 667 697 b 429 997 706 908 585 997 b 128 689 274 997 167 914 l 63 322 b 301 -14 28 119 96 -14 b 600 276 485 -14 564 85 z m 310 79 b 158 314 190 79 131 150 l 168 367 b 356 517 190 457 254 517 b 507 331 475 517 525 436 l 500 282 b 310 79 474 136 419 79 z "},"7":{"ha":574,"x_min":0,"x_max":0,"o":"m 178 0 b 626 904 289 353 444 640 l 642 988 l 140 988 l 124 890 l 521 890 b 68 0 349 646 194 365 z "},"8":{"ha":661,"x_min":0,"x_max":0,"o":"m 274 -14 b 576 242 456 -14 542 53 l 585 297 b 485 513 601 403 560 479 b 642 697 567 535 622 597 l 650 746 b 422 997 683 918 588 997 b 140 758 278 997 172 942 l 133 717 b 215 519 119 621 149 550 b 46 315 122 496 63 418 l 38 269 b 274 -14 3 88 68 -14 z m 347 558 b 232 714 247 558 218 625 l 238 753 b 415 908 258 872 321 908 b 550 740 524 908 575 863 l 544 704 b 375 558 525 614 474 558 z m 285 79 b 138 263 160 79 114 133 l 147 317 b 326 472 161 410 222 472 l 350 472 b 486 303 463 472 501 406 l 475 249 b 285 79 450 113 390 79 z "},"9":{"ha":679,"x_min":0,"x_max":0,"o":"m 357 476 b 210 664 240 476 193 556 l 217 707 b 406 907 242 849 299 907 b 554 671 526 907 583 835 l 544 613 b 357 476 518 529 453 476 z m 288 -14 b 586 296 457 -14 547 71 b 650 661 586 297 650 661 b 411 997 686 861 615 997 b 115 711 233 997 147 900 l 108 665 b 321 390 82 488 175 390 b 525 506 422 390 486 439 l 488 297 b 292 78 460 138 406 78 b 151 293 172 78 125 150 l 156 318 l 53 318 l 49 293 b 288 -14 10 82 110 -14 z "}," ":{"ha":306,"x_min":0,"x_max":0,"o":""}," ":{"ha":306,"x_min":0,"x_max":0,"o":""},"A":{"ha":649,"x_min":0,"x_max":0,"o":"m 383 790 l 406 883 l 401 790 l 431 306 l 189 306 z m 450 0 l 549 0 l 474 988 l 375 988 l -37 0 l 65 0 l 151 214 l 438 214 z "},"B":{"ha":668,"x_min":0,"x_max":0,"o":"m 296 0 b 576 210 481 0 550 60 l 590 296 b 496 506 608 397 588 474 b 644 681 581 528 628 581 l 657 750 b 443 988 681 883 631 988 l 199 988 l 26 0 z m 426 901 b 560 756 539 901 575 846 l 549 699 b 369 550 532 592 483 550 l 221 550 l 282 901 z m 360 464 b 492 310 478 464 508 408 l 478 236 b 299 89 458 132 419 89 l 139 89 l 206 464 z "},"C":{"ha":681,"x_min":0,"x_max":0,"o":"m 300 -14 b 600 292 485 -14 565 88 l 613 360 l 508 360 l 496 297 b 310 79 469 139 417 79 b 164 313 193 79 135 149 l 232 692 b 426 910 260 853 322 910 b 569 697 546 910 593 835 l 551 601 l 656 601 l 672 694 b 433 999 704 879 615 999 b 129 694 272 999 168 913 b 63 317 129 693 63 317 b 300 -14 26 119 94 -14 z "},"D":{"ha":693,"x_min":0,"x_max":0,"o":"m 26 0 l 265 0 b 601 301 450 0 567 100 l 663 656 b 418 988 700 868 596 988 l 199 988 z m 403 901 b 564 669 531 901 592 822 l 501 314 b 258 89 474 161 393 89 l 139 89 l 283 901 z "},"E":{"ha":594,"x_min":0,"x_max":0,"o":"m 494 93 l 139 93 l 204 461 l 500 461 l 517 553 l 221 553 l 282 897 l 622 897 l 639 988 l 199 988 l 26 0 l 478 0 z "},"F":{"ha":558,"x_min":0,"x_max":0,"o":"m 500 432 l 515 524 l 214 524 l 279 896 l 601 896 l 617 988 l 199 988 l 26 0 l 122 0 l 197 432 z "},"G":{"ha":701,"x_min":0,"x_max":0,"o":"m 482 0 l 546 0 l 633 504 l 360 504 l 344 415 l 519 415 l 501 308 b 299 79 474 150 413 79 b 160 313 181 79 131 154 l 226 693 b 426 910 256 850 321 910 b 571 701 547 910 596 846 l 561 653 l 664 653 l 674 701 b 433 999 707 899 607 999 b 125 692 269 999 164 907 l 60 322 b 265 -14 24 111 88 -14 b 494 154 381 -14 450 42 z "},"H":{"ha":704,"x_min":0,"x_max":0,"o":"m 442 0 l 540 0 l 713 988 l 614 988 l 536 540 l 218 540 l 297 988 l 199 988 l 25 0 l 124 0 l 201 446 l 519 446 z "},"I":{"ha":458,"x_min":0,"x_max":0,"o":"m 342 0 l 357 93 l 222 93 l 365 897 l 499 897 l 514 988 l 151 988 l 135 897 l 269 897 l 126 93 l -7 93 l -22 0 z "},"J":{"ha":593,"x_min":0,"x_max":0,"o":"m 225 -14 b 479 235 367 -14 447 54 l 611 988 l 510 988 l 381 254 b 231 81 360 136 324 81 b 124 224 139 81 108 139 l 146 350 l 44 350 l 24 228 b 225 -14 -3 81 60 -14 z "},"K":{"ha":675,"x_min":0,"x_max":0,"o":"m 360 517 l 467 0 l 575 0 l 436 632 l 435 636 l 728 988 l 615 988 l 210 499 l 214 518 l 296 988 l 199 988 l 26 0 l 122 0 l 189 381 l 358 581 z "},"L":{"ha":551,"x_min":0,"x_max":0,"o":"m 442 0 l 458 94 l 140 94 l 297 988 l 199 988 l 26 0 z "},"M":{"ha":814,"x_min":0,"x_max":0,"o":"m 231 632 l 254 879 l 272 732 l 379 329 l 413 329 l 660 731 l 728 879 l 667 632 l 556 0 l 649 0 l 822 988 l 722 988 l 438 518 l 419 476 l 415 517 l 297 988 l 199 988 l 26 0 l 119 0 z "},"N":{"ha":732,"x_min":0,"x_max":0,"o":"m 238 688 l 254 876 l 281 710 l 481 0 l 567 0 l 740 988 l 649 988 l 528 306 l 514 142 l 485 290 l 288 988 l 199 988 l 26 0 l 117 0 z "},"O":{"ha":701,"x_min":0,"x_max":0,"o":"m 307 -14 b 607 286 489 -14 571 90 l 676 682 b 432 997 710 885 601 997 b 128 689 275 997 167 914 l 63 317 b 307 -14 26 122 101 -14 z m 313 79 b 163 308 190 79 133 150 l 229 688 b 428 908 258 849 319 908 b 578 690 546 908 601 833 l 506 292 b 313 79 478 139 422 79 z "},"P":{"ha":649,"x_min":0,"x_max":0,"o":"m 324 408 l 194 408 l 281 899 l 413 899 b 553 726 531 899 572 832 l 529 589 b 324 408 508 468 444 407 z m 319 319 b 622 565 501 318 594 401 l 650 718 b 429 988 676 879 604 988 l 199 988 l 26 0 l 122 0 l 178 319 z "},"Q":{"ha":701,"x_min":0,"x_max":0,"o":"m 522 -133 l 451 17 b 607 292 538 63 582 154 b 675 676 607 292 675 675 b 433 997 714 896 601 997 b 128 689 276 997 167 914 l 63 322 b 304 -14 28 119 99 -14 b 351 -11 321 -14 336 -12 l 399 -133 z m 313 79 b 163 313 193 79 135 149 l 229 688 b 425 908 258 847 322 908 b 575 685 544 908 603 844 l 507 296 b 313 79 479 140 422 79 z "},"R":{"ha":669,"x_min":0,"x_max":0,"o":"m 421 900 b 560 735 538 900 579 843 l 549 672 b 343 503 528 554 472 503 l 213 503 l 282 900 z m 335 415 b 461 263 450 415 479 363 l 428 72 b 435 0 422 43 422 14 l 544 0 b 529 71 528 14 524 39 l 565 271 b 467 460 585 368 560 433 b 642 649 571 482 624 543 l 657 724 b 438 988 686 886 613 988 l 199 988 l 26 0 l 124 0 l 197 415 z "},"S":{"ha":632,"x_min":0,"x_max":0,"o":"m 275 -14 b 553 224 449 -14 526 74 l 556 247 b 386 535 582 411 483 475 b 231 757 297 589 210 639 l 233 781 b 393 915 250 869 307 915 b 533 750 507 915 550 849 l 518 668 l 618 668 l 632 751 b 396 1000 654 889 579 1000 b 138 792 263 1000 160 924 l 132 764 b 303 475 103 600 206 533 b 458 251 390 421 476 369 l 454 228 b 281 76 440 139 393 76 b 132 260 168 76 110 138 l 149 356 l 47 356 l 31 268 b 275 -14 -4 90 90 -14 z "},"T":{"ha":547,"x_min":0,"x_max":0,"o":"m 601 896 l 617 988 l 138 988 l 121 896 l 311 896 l 153 0 l 251 0 l 410 896 z "},"U":{"ha":683,"x_min":0,"x_max":0,"o":"m 288 -14 b 575 281 465 -14 540 86 l 699 988 l 597 988 l 475 290 b 294 82 449 139 396 82 b 172 303 189 82 144 146 l 293 988 l 192 988 l 72 314 b 288 -14 38 114 88 -14 z "},"V":{"ha":646,"x_min":0,"x_max":0,"o":"m 303 0 l 719 988 l 617 988 l 296 201 l 274 117 l 279 201 l 236 988 l 135 988 l 204 0 z "},"W":{"ha":947,"x_min":0,"x_max":0,"o":"m 522 751 l 553 874 l 542 753 l 569 0 l 660 0 l 1010 988 l 915 988 l 664 265 l 626 104 l 638 253 l 607 988 l 538 988 l 240 253 l 200 113 l 222 265 l 242 988 l 147 988 l 128 0 l 217 0 z "},"X":{"ha":624,"x_min":0,"x_max":0,"o":"m 307 407 l 322 443 l 326 406 l 426 0 l 535 0 l 390 522 l 682 988 l 574 988 l 361 631 l 347 596 l 344 632 l 261 988 l 156 988 l 279 525 l -50 0 l 64 0 z "},"Y":{"ha":600,"x_min":0,"x_max":0,"o":"m 276 0 l 338 354 l 683 988 l 576 988 l 339 531 l 303 436 l 300 529 l 229 988 l 125 988 l 238 358 l 175 0 z "},"Z":{"ha":590,"x_min":0,"x_max":0,"o":"m 469 0 l 486 96 l 110 96 l 622 899 l 638 988 l 182 988 l 165 894 l 515 894 l -7 86 l -21 0 z "},"Á":{"ha":649,"x_min":0,"x_max":0,"o":"m 383 790 l 406 883 l 401 790 l 431 306 l 189 306 z m 450 0 l 549 0 l 474 988 l 375 988 l -37 0 l 65 0 l 151 214 l 438 214 z m 399 1075 l 476 1075 l 682 1293 l 575 1293 z "},"Ă":{"ha":649,"x_min":0,"x_max":0,"o":"m 383 790 l 406 883 l 401 790 l 431 306 l 189 306 z m 450 0 l 549 0 l 474 988 l 375 988 l -37 0 l 65 0 l 151 214 l 438 214 z m 449 1072 b 664 1275 579 1072 639 1149 l 588 1275 b 456 1143 571 1189 533 1144 b 367 1275 376 1144 353 1189 l 292 1275 b 449 1072 271 1149 317 1072 z "},"Â":{"ha":649,"x_min":0,"x_max":0,"o":"m 383 790 l 406 883 l 401 790 l 431 306 l 189 306 z m 450 0 l 549 0 l 474 988 l 375 988 l -37 0 l 65 0 l 151 214 l 438 214 z m 525 1071 l 611 1071 l 507 1274 l 436 1274 l 263 1071 l 353 1071 l 461 1203 z "},"Ä":{"ha":649,"x_min":0,"x_max":0,"o":"m 383 790 l 406 883 l 401 790 l 431 306 l 189 306 z m 450 0 l 549 0 l 474 988 l 375 988 l -37 0 l 65 0 l 151 214 l 438 214 z m 344 1069 b 415 1136 385 1069 406 1086 b 364 1207 424 1188 404 1207 b 293 1140 321 1207 301 1190 b 344 1069 283 1089 303 1069 z m 532 1069 b 603 1136 574 1069 593 1086 b 551 1207 611 1188 592 1207 b 481 1140 510 1207 490 1190 b 532 1069 471 1089 490 1069 z "},"À":{"ha":649,"x_min":0,"x_max":0,"o":"m 383 790 l 406 883 l 401 790 l 431 306 l 189 306 z m 450 0 l 549 0 l 474 988 l 375 988 l -37 0 l 65 0 l 151 214 l 438 214 z m 401 1076 l 479 1076 l 390 1279 l 283 1279 z "},"Ā":{"ha":649,"x_min":0,"x_max":0,"o":"m 383 790 l 406 883 l 401 790 l 431 306 l 189 306 z m 450 0 l 549 0 l 474 988 l 375 988 l -37 0 l 65 0 l 151 214 l 438 214 z m 288 1090 l 593 1090 l 606 1168 l 300 1168 z "},"Ʌ":{"ha":649,"x_min":0,"x_max":0,"o":"m 383 790 l 408 888 l 401 790 l 450 0 l 549 0 l 474 988 l 375 988 l -37 0 l 65 0 z "},"Ą":{"ha":649,"x_min":0,"x_max":0,"o":"m 383 790 l 406 883 l 401 790 l 431 306 l 189 306 z m 636 -136 l 546 -136 b 457 -194 529 -174 500 -194 b 396 -135 413 -194 389 -171 b 546 0 403 -93 440 -64 l 549 0 l 474 988 l 375 988 l -37 0 l 65 0 l 151 214 l 438 214 l 449 13 b 318 -128 369 -33 329 -74 b 446 -261 304 -203 349 -261 b 636 -136 538 -261 597 -221 z "},"Å":{"ha":649,"x_min":0,"x_max":0,"o":"m 383 790 l 406 883 l 401 790 l 431 306 l 189 306 z m 450 0 l 549 0 l 474 988 l 375 988 l -37 0 l 65 0 l 151 214 l 438 214 z m 447 1074 b 597 1197 524 1074 583 1117 b 472 1340 611 1275 560 1340 b 322 1219 399 1340 336 1294 b 447 1074 307 1138 357 1074 z m 451 1143 b 396 1211 413 1143 389 1174 b 467 1272 401 1251 431 1272 b 524 1204 507 1272 531 1243 b 451 1143 515 1164 490 1143 z "},"Ǻ":{"ha":649,"x_min":0,"x_max":0,"o":"m 432 1247 l 510 1247 l 715 1465 l 608 1465 z m 425 988 b 369 1056 386 988 363 1018 b 440 1117 375 1096 404 1117 b 497 1049 481 1117 504 1088 b 425 988 489 1008 464 988 z m 383 790 l 406 883 l 401 790 l 431 306 l 189 306 z m 151 214 l 438 214 l 450 0 l 549 0 l 478 928 b 571 1042 526 944 561 983 b 446 1185 585 1119 533 1185 b 296 1064 372 1185 310 1139 b 353 933 285 1006 307 957 l -37 0 l 65 0 z "},"Ã":{"ha":649,"x_min":0,"x_max":0,"o":"m 383 790 l 406 883 l 401 790 l 431 306 l 189 306 z m 450 0 l 549 0 l 474 988 l 375 988 l -37 0 l 65 0 l 151 214 l 438 214 z m 235 1075 l 304 1075 b 360 1150 314 1129 332 1150 b 529 1071 415 1150 446 1071 b 661 1222 611 1071 644 1128 l 592 1222 b 533 1146 581 1163 565 1146 b 363 1225 483 1146 446 1225 b 235 1075 283 1225 253 1171 z "},"Æ":{"ha":932,"x_min":0,"x_max":0,"o":"m 439 761 l 485 889 l 464 761 l 438 303 l 207 303 z m 421 0 l 815 0 l 831 93 l 518 93 l 539 453 l 835 453 l 851 544 l 543 544 l 563 897 l 960 897 l 975 988 l 461 988 l -53 0 l 53 0 l 163 217 l 433 217 z "},"Ǽ":{"ha":932,"x_min":0,"x_max":0,"o":"m 439 761 l 485 889 l 464 761 l 438 303 l 207 303 z m 421 0 l 815 0 l 831 93 l 518 93 l 539 453 l 835 453 l 851 544 l 543 544 l 563 897 l 960 897 l 975 988 l 461 988 l -53 0 l 53 0 l 163 217 l 433 217 z m 500 1075 l 578 1075 l 783 1293 l 676 1293 z "},"Ć":{"ha":678,"x_min":0,"x_max":0,"o":"m 297 -14 b 597 292 482 -14 563 88 l 610 360 l 506 360 l 493 297 b 307 79 467 139 414 79 b 161 313 190 79 132 149 l 229 692 b 424 910 257 853 319 910 b 567 697 543 910 590 835 l 549 601 l 653 601 l 669 694 b 431 999 701 879 613 999 b 126 694 269 999 165 913 b 60 317 126 693 60 317 b 297 -14 24 119 92 -14 z m 435 1089 l 513 1089 l 718 1307 l 611 1307 z "},"Č":{"ha":678,"x_min":0,"x_max":0,"o":"m 297 -14 b 597 292 482 -14 563 88 l 610 360 l 506 360 l 493 297 b 307 79 467 139 414 79 b 161 313 190 79 132 149 l 229 692 b 424 910 257 853 319 910 b 567 697 543 910 590 835 l 549 601 l 653 601 l 669 694 b 431 999 701 879 613 999 b 126 694 269 999 165 913 b 60 317 126 693 60 317 b 297 -14 24 119 92 -14 z m 508 1089 l 682 1289 l 593 1289 l 485 1163 l 424 1289 l 336 1289 l 439 1089 z "},"Ç":{"ha":678,"x_min":0,"x_max":0,"o":"m 240 -317 b 414 -203 340 -317 401 -272 b 301 -81 426 -126 388 -82 l 313 -14 b 597 292 486 -8 564 93 l 610 360 l 506 360 l 493 297 b 307 79 467 139 414 79 b 161 313 190 79 132 149 l 229 692 b 424 910 257 853 319 910 b 567 697 543 910 590 835 l 549 601 l 653 601 l 669 694 b 431 999 701 879 613 999 b 126 694 269 999 165 913 b 60 317 126 693 60 317 b 240 -10 28 139 79 14 l 217 -139 l 258 -139 b 335 -197 319 -139 343 -158 b 244 -251 329 -232 297 -251 b 168 -185 194 -251 165 -229 l 81 -185 b 240 -317 82 -269 125 -317 z "},"Ĉ":{"ha":678,"x_min":0,"x_max":0,"o":"m 297 -14 b 597 292 482 -14 563 88 l 610 360 l 506 360 l 493 297 b 307 79 467 139 414 79 b 161 313 190 79 132 149 l 229 692 b 424 910 257 853 319 910 b 567 697 543 910 590 835 l 549 601 l 653 601 l 669 694 b 431 999 701 879 613 999 b 126 694 269 999 165 913 b 60 317 126 693 60 317 b 297 -14 24 119 92 -14 z m 563 1089 l 649 1089 l 544 1292 l 474 1292 l 300 1089 l 390 1089 l 499 1221 z "},"Ċ":{"ha":678,"x_min":0,"x_max":0,"o":"m 297 -14 b 597 292 482 -14 563 88 l 610 360 l 506 360 l 493 297 b 307 79 467 139 414 79 b 161 313 190 79 132 149 l 229 692 b 424 910 257 853 319 910 b 567 697 543 910 590 835 l 549 601 l 653 601 l 669 694 b 431 999 701 879 613 999 b 126 694 269 999 165 913 b 60 317 126 693 60 317 b 297 -14 24 119 92 -14 z m 476 1086 b 556 1163 522 1086 546 1104 b 499 1243 567 1219 543 1243 b 417 1167 450 1243 428 1224 b 476 1086 407 1107 429 1086 z "},"Ď":{"ha":693,"x_min":0,"x_max":0,"o":"m 26 0 l 265 0 b 601 301 450 0 567 100 l 663 656 b 418 988 700 868 596 988 l 199 988 z m 403 901 b 564 669 531 901 592 822 l 501 314 b 258 89 474 161 393 89 l 139 89 l 283 901 z m 496 1075 l 669 1275 l 581 1275 l 472 1149 l 411 1275 l 324 1275 l 426 1075 z "},"Đ":{"ha":704,"x_min":0,"x_max":0,"o":"m 276 0 b 613 301 461 0 578 100 l 674 656 b 429 988 711 868 601 988 l 210 988 l 131 536 l 38 536 l 21 446 l 115 446 l 38 0 z m 349 446 l 365 536 l 229 536 l 294 901 l 414 901 b 575 669 539 901 603 822 l 513 314 b 269 89 485 161 404 89 l 150 89 l 214 446 z "},"Ð":{"ha":704,"x_min":0,"x_max":0,"o":"m 276 0 b 613 301 461 0 578 100 l 674 656 b 429 988 711 868 601 988 l 210 988 l 131 536 l 38 536 l 21 446 l 115 446 l 38 0 z m 349 446 l 365 536 l 229 536 l 294 901 l 414 901 b 575 669 539 901 603 822 l 513 314 b 269 89 485 161 404 89 l 150 89 l 214 446 z "},"É":{"ha":594,"x_min":0,"x_max":0,"o":"m 494 93 l 139 93 l 204 461 l 500 461 l 517 553 l 221 553 l 282 897 l 622 897 l 639 988 l 199 988 l 26 0 l 478 0 z m 394 1075 l 472 1075 l 678 1293 l 571 1293 z "},"Ĕ":{"ha":594,"x_min":0,"x_max":0,"o":"m 494 93 l 139 93 l 204 461 l 500 461 l 517 553 l 221 553 l 282 897 l 622 897 l 639 988 l 199 988 l 26 0 l 478 0 z m 447 1072 b 663 1275 578 1072 638 1149 l 586 1275 b 454 1143 569 1189 532 1144 b 365 1275 375 1144 351 1189 l 290 1275 b 447 1072 269 1149 315 1072 z "},"Ě":{"ha":594,"x_min":0,"x_max":0,"o":"m 494 93 l 139 93 l 204 461 l 500 461 l 517 553 l 221 553 l 282 897 l 622 897 l 639 988 l 199 988 l 26 0 l 478 0 z m 469 1075 l 643 1275 l 554 1275 l 446 1149 l 385 1275 l 297 1275 l 400 1075 z "},"Ê":{"ha":594,"x_min":0,"x_max":0,"o":"m 494 93 l 139 93 l 204 461 l 500 461 l 517 553 l 221 553 l 282 897 l 622 897 l 639 988 l 199 988 l 26 0 l 478 0 z m 526 1075 l 613 1075 l 508 1278 l 438 1278 l 264 1075 l 354 1075 l 463 1207 z "},"Ë":{"ha":594,"x_min":0,"x_max":0,"o":"m 494 93 l 139 93 l 204 461 l 500 461 l 517 553 l 221 553 l 282 897 l 622 897 l 639 988 l 199 988 l 26 0 l 478 0 z m 349 1075 b 419 1142 389 1075 410 1092 b 368 1213 428 1193 408 1213 b 297 1146 325 1213 306 1196 b 349 1075 288 1094 307 1075 z m 536 1075 b 607 1142 578 1075 597 1092 b 556 1213 615 1193 596 1213 b 485 1146 514 1213 494 1196 b 536 1075 475 1094 494 1075 z "},"Ė":{"ha":594,"x_min":0,"x_max":0,"o":"m 494 93 l 139 93 l 204 461 l 500 461 l 517 553 l 221 553 l 282 897 l 622 897 l 639 988 l 199 988 l 26 0 l 478 0 z m 439 1072 b 518 1149 485 1072 508 1090 b 461 1229 529 1206 506 1229 b 379 1153 413 1229 390 1210 b 439 1072 369 1093 392 1072 z "},"È":{"ha":594,"x_min":0,"x_max":0,"o":"m 494 93 l 139 93 l 204 461 l 500 461 l 517 553 l 221 553 l 282 897 l 622 897 l 639 988 l 199 988 l 26 0 l 478 0 z m 407 1076 l 485 1076 l 396 1279 l 289 1279 z "},"Ē":{"ha":594,"x_min":0,"x_max":0,"o":"m 494 93 l 139 93 l 204 461 l 500 461 l 517 553 l 221 553 l 282 897 l 622 897 l 639 988 l 199 988 l 26 0 l 478 0 z m 293 1101 l 599 1101 l 611 1179 l 306 1179 z "},"Ę":{"ha":594,"x_min":0,"x_max":0,"o":"m 568 -136 l 478 -136 b 389 -194 461 -174 432 -194 b 328 -135 344 -194 321 -171 b 478 0 335 -93 372 -64 l 494 93 l 139 93 l 204 461 l 500 461 l 517 553 l 221 553 l 282 897 l 622 897 l 639 988 l 199 988 l 26 0 l 360 0 b 250 -128 293 -40 260 -79 b 378 -261 236 -203 281 -261 b 568 -136 469 -261 529 -221 z "},"Ğ":{"ha":701,"x_min":0,"x_max":0,"o":"m 482 0 l 546 0 l 633 504 l 360 504 l 344 415 l 519 415 l 501 308 b 299 79 474 150 413 79 b 160 313 181 79 131 154 l 226 693 b 426 910 256 850 321 910 b 571 701 547 910 596 846 l 561 653 l 664 653 l 674 701 b 433 999 707 899 607 999 b 125 692 269 999 164 907 l 60 322 b 265 -14 24 111 88 -14 b 494 154 381 -14 450 42 z m 485 1086 b 700 1289 615 1086 675 1163 l 624 1289 b 492 1157 607 1203 569 1158 b 403 1289 413 1158 389 1203 l 328 1289 b 485 1086 307 1163 353 1086 z "},"Ĝ":{"ha":701,"x_min":0,"x_max":0,"o":"m 482 0 l 546 0 l 633 504 l 360 504 l 344 415 l 519 415 l 501 308 b 299 79 474 150 413 79 b 160 313 181 79 131 154 l 226 693 b 426 910 256 850 321 910 b 571 701 547 910 596 846 l 561 653 l 664 653 l 674 701 b 433 999 707 899 607 999 b 125 692 269 999 164 907 l 60 322 b 265 -14 24 111 88 -14 b 494 154 381 -14 450 42 z m 567 1089 l 653 1089 l 549 1292 l 478 1292 l 304 1089 l 394 1089 l 503 1221 z "},"Ģ":{"ha":701,"x_min":0,"x_max":0,"o":"m 482 0 l 546 0 l 633 504 l 360 504 l 344 415 l 519 415 l 501 308 b 299 79 474 150 413 79 b 160 313 181 79 131 154 l 226 693 b 426 910 256 850 321 910 b 571 701 547 910 596 846 l 561 653 l 664 653 l 674 701 b 433 999 707 899 607 999 b 125 692 269 999 164 907 l 60 322 b 265 -14 24 111 88 -14 b 494 154 381 -14 450 42 z m 169 -353 b 321 -178 253 -333 304 -267 b 271 -83 332 -108 319 -83 b 194 -151 228 -83 204 -103 b 236 -214 186 -203 201 -214 b 253 -211 242 -214 247 -212 b 174 -300 239 -257 213 -287 z "},"Ġ":{"ha":701,"x_min":0,"x_max":0,"o":"m 482 0 l 546 0 l 633 504 l 360 504 l 344 415 l 519 415 l 501 308 b 299 79 474 150 413 79 b 160 313 181 79 131 154 l 226 693 b 426 910 256 850 321 910 b 571 701 547 910 596 846 l 561 653 l 664 653 l 674 701 b 433 999 707 899 607 999 b 125 692 269 999 164 907 l 60 322 b 265 -14 24 111 88 -14 b 494 154 381 -14 450 42 z m 481 1086 b 560 1163 526 1086 550 1104 b 503 1243 571 1219 547 1243 b 421 1167 454 1243 432 1224 b 481 1086 411 1107 433 1086 z "},"Ħ":{"ha":725,"x_min":0,"x_max":0,"o":"m 543 515 l 225 515 l 258 701 l 575 701 z m 453 0 l 550 0 l 674 701 l 767 701 l 781 788 l 689 788 l 724 988 l 625 988 l 590 788 l 274 788 l 308 988 l 210 988 l 175 788 l 82 788 l 67 701 l 160 701 l 36 0 l 135 0 l 210 426 l 528 426 z "},"Ĥ":{"ha":704,"x_min":0,"x_max":0,"o":"m 442 0 l 540 0 l 713 988 l 614 988 l 536 540 l 218 540 l 297 988 l 199 988 l 25 0 l 124 0 l 201 446 l 519 446 z m 557 1064 l 643 1064 l 539 1267 l 468 1267 l 294 1064 l 385 1064 l 493 1196 z "},"Í":{"ha":458,"x_min":0,"x_max":0,"o":"m 342 0 l 357 93 l 222 93 l 365 897 l 499 897 l 514 988 l 151 988 l 135 897 l 269 897 l 126 93 l -7 93 l -22 0 z m 306 1075 l 383 1075 l 589 1293 l 482 1293 z "},"Ĭ":{"ha":458,"x_min":0,"x_max":0,"o":"m 342 0 l 357 93 l 222 93 l 365 897 l 499 897 l 514 988 l 151 988 l 135 897 l 269 897 l 126 93 l -7 93 l -22 0 z m 356 1072 b 571 1275 486 1072 546 1149 l 494 1275 b 363 1143 478 1189 440 1144 b 274 1275 283 1144 260 1189 l 199 1275 b 356 1072 178 1149 224 1072 z "},"Î":{"ha":458,"x_min":0,"x_max":0,"o":"m 342 0 l 357 93 l 222 93 l 365 897 l 499 897 l 514 988 l 151 988 l 135 897 l 269 897 l 126 93 l -7 93 l -22 0 z m 439 1075 l 525 1075 l 421 1278 l 350 1278 l 176 1075 l 267 1075 l 375 1207 z "},"Ï":{"ha":458,"x_min":0,"x_max":0,"o":"m 342 0 l 357 93 l 222 93 l 365 897 l 499 897 l 514 988 l 151 988 l 135 897 l 269 897 l 126 93 l -7 93 l -22 0 z m 258 1075 b 329 1142 299 1075 319 1092 b 278 1213 338 1193 318 1213 b 207 1146 235 1213 215 1196 b 258 1075 197 1094 217 1075 z m 446 1075 b 517 1142 488 1075 507 1092 b 465 1213 525 1193 506 1213 b 394 1146 424 1213 404 1196 b 446 1075 385 1094 404 1075 z "},"İ":{"ha":458,"x_min":0,"x_max":0,"o":"m 342 0 l 357 93 l 222 93 l 365 897 l 499 897 l 514 988 l 151 988 l 135 897 l 269 897 l 126 93 l -7 93 l -22 0 z m 353 1072 b 432 1149 399 1072 422 1090 b 375 1229 443 1206 419 1229 b 293 1153 326 1229 304 1210 b 353 1072 283 1093 306 1072 z "},"Ì":{"ha":458,"x_min":0,"x_max":0,"o":"m 342 0 l 357 93 l 222 93 l 365 897 l 499 897 l 514 988 l 151 988 l 135 897 l 269 897 l 126 93 l -7 93 l -22 0 z m 311 1076 l 389 1076 l 300 1279 l 193 1279 z "},"Ī":{"ha":458,"x_min":0,"x_max":0,"o":"m 342 0 l 357 93 l 222 93 l 365 897 l 499 897 l 514 988 l 151 988 l 135 897 l 269 897 l 126 93 l -7 93 l -22 0 z m 204 1100 l 510 1100 l 522 1178 l 217 1178 z "},"Į":{"ha":458,"x_min":0,"x_max":0,"o":"m 432 -136 l 342 -136 b 253 -194 325 -174 296 -194 b 192 -135 208 -194 185 -171 b 342 0 199 -93 236 -64 l 357 93 l 222 93 l 365 897 l 499 897 l 514 988 l 151 988 l 135 897 l 269 897 l 126 93 l -7 93 l -22 0 l 224 0 b 114 -128 157 -40 124 -79 b 242 -261 100 -203 144 -261 b 432 -136 333 -261 393 -221 z "},"Ĩ":{"ha":458,"x_min":0,"x_max":0,"o":"m 342 0 l 357 93 l 222 93 l 365 897 l 499 897 l 514 988 l 151 988 l 135 897 l 269 897 l 126 93 l -7 93 l -22 0 z m 149 1079 l 218 1079 b 274 1154 228 1133 246 1154 b 443 1075 329 1154 360 1075 b 575 1226 525 1075 558 1132 l 506 1226 b 447 1150 494 1167 479 1150 b 276 1229 397 1150 360 1229 b 149 1079 197 1229 167 1175 z "},"Ĵ":{"ha":593,"x_min":0,"x_max":0,"o":"m 225 -14 b 479 235 367 -14 447 54 l 611 988 l 510 988 l 381 254 b 231 81 360 136 324 81 b 124 224 139 81 108 139 l 146 350 l 44 350 l 24 228 b 225 -14 -3 81 60 -14 z m 665 1075 l 751 1075 l 647 1278 l 576 1278 l 403 1075 l 493 1075 l 601 1207 z "},"Ķ":{"ha":675,"x_min":0,"x_max":0,"o":"m 360 517 l 467 0 l 575 0 l 436 632 l 435 636 l 728 988 l 615 988 l 210 499 l 214 518 l 296 988 l 199 988 l 26 0 l 122 0 l 189 381 l 358 581 z m 172 -329 b 324 -154 256 -310 307 -243 b 274 -60 335 -85 322 -60 b 197 -128 231 -60 207 -79 b 239 -190 189 -179 204 -190 b 256 -187 244 -190 250 -189 b 176 -276 242 -233 215 -264 z "},"Ĺ":{"ha":551,"x_min":0,"x_max":0,"o":"m 442 0 l 458 94 l 140 94 l 297 988 l 199 988 l 26 0 z m 222 1075 l 300 1075 l 506 1293 l 399 1293 z "},"Ľ":{"ha":551,"x_min":0,"x_max":0,"o":"m 442 0 l 458 94 l 140 94 l 297 988 l 199 988 l 26 0 z m 433 882 l 500 882 l 603 1088 l 515 1088 z "},"Ļ":{"ha":551,"x_min":0,"x_max":0,"o":"m 442 0 l 458 94 l 140 94 l 297 988 l 199 988 l 26 0 z m 125 -339 b 276 -164 208 -319 260 -253 b 226 -69 288 -94 275 -69 b 150 -137 183 -69 160 -89 b 192 -200 142 -189 157 -200 b 208 -197 197 -200 203 -199 b 129 -286 194 -243 168 -274 z "},"Ŀ":{"ha":551,"x_min":0,"x_max":0,"o":"m 442 0 l 458 94 l 140 94 l 297 988 l 199 988 l 26 0 z m 443 350 b 522 426 489 350 513 369 b 465 507 533 485 510 507 b 383 431 417 507 394 489 b 443 350 374 372 396 350 z "},"Ł":{"ha":565,"x_min":0,"x_max":0,"o":"m 457 0 l 472 94 l 154 94 l 224 485 l 394 535 l 388 617 l 239 574 l 311 988 l 214 988 l 136 543 l 22 510 l 32 429 l 121 456 l 40 0 z "},"Ń":{"ha":732,"x_min":0,"x_max":0,"o":"m 238 688 l 254 876 l 281 710 l 481 0 l 567 0 l 740 988 l 649 988 l 528 306 l 514 142 l 485 290 l 288 988 l 199 988 l 26 0 l 117 0 z m 442 1058 l 519 1058 l 725 1276 l 618 1276 z "},"Ň":{"ha":732,"x_min":0,"x_max":0,"o":"m 238 688 l 254 876 l 281 710 l 481 0 l 567 0 l 740 988 l 649 988 l 528 306 l 514 142 l 485 290 l 288 988 l 199 988 l 26 0 l 117 0 z m 515 1060 l 689 1260 l 600 1260 l 492 1133 l 431 1260 l 343 1260 l 446 1060 z "},"Ņ":{"ha":732,"x_min":0,"x_max":0,"o":"m 238 688 l 254 876 l 281 710 l 481 0 l 567 0 l 740 988 l 649 988 l 528 306 l 514 142 l 485 290 l 288 988 l 199 988 l 26 0 l 117 0 z m 174 -328 b 325 -153 257 -308 308 -242 b 275 -58 336 -83 324 -58 b 199 -126 232 -58 208 -78 b 240 -189 190 -178 206 -189 b 257 -186 246 -189 251 -187 b 178 -275 243 -232 217 -262 z "},"Ñ":{"ha":732,"x_min":0,"x_max":0,"o":"m 238 688 l 254 876 l 281 710 l 481 0 l 567 0 l 740 988 l 649 988 l 528 306 l 514 142 l 485 290 l 288 988 l 199 988 l 26 0 l 117 0 z m 289 1067 l 358 1067 b 414 1142 368 1121 386 1142 b 583 1063 469 1142 500 1063 b 715 1214 665 1063 699 1119 l 646 1214 b 588 1138 635 1154 619 1138 b 417 1217 538 1138 500 1217 b 289 1067 338 1217 307 1163 z "},"Ŋ":{"ha":731,"x_min":0,"x_max":0,"o":"m 340 -242 b 558 -46 486 -242 532 -199 l 740 988 l 649 988 l 528 304 l 514 143 l 489 281 l 286 988 l 199 988 l 26 0 l 117 0 l 238 690 l 254 874 l 276 719 l 476 18 l 468 -35 b 346 -150 451 -132 426 -150 l 311 -150 l 296 -242 z "},"Ó":{"ha":701,"x_min":0,"x_max":0,"o":"m 307 -14 b 607 286 489 -14 571 90 l 676 682 b 432 997 710 885 601 997 b 128 689 275 997 167 914 l 63 317 b 307 -14 26 122 101 -14 z m 313 79 b 163 308 190 79 133 150 l 229 688 b 428 908 258 849 319 908 b 578 690 546 908 601 833 l 506 292 b 313 79 478 139 422 79 z m 419 1092 l 497 1092 l 703 1310 l 596 1310 z "},"Ŏ":{"ha":701,"x_min":0,"x_max":0,"o":"m 307 -14 b 607 286 489 -14 571 90 l 676 682 b 432 997 710 885 601 997 b 128 689 275 997 167 914 l 63 317 b 307 -14 26 122 101 -14 z m 313 79 b 163 308 190 79 133 150 l 229 688 b 428 908 258 849 319 908 b 578 690 546 908 601 833 l 506 292 b 313 79 478 139 422 79 z m 481 1086 b 696 1289 611 1086 671 1163 l 619 1289 b 488 1157 603 1203 565 1158 b 399 1289 408 1158 385 1203 l 324 1289 b 481 1086 303 1163 349 1086 z "},"Ô":{"ha":701,"x_min":0,"x_max":0,"o":"m 307 -14 b 607 286 489 -14 571 90 l 676 682 b 432 997 710 885 601 997 b 128 689 275 997 167 914 l 63 317 b 307 -14 26 122 101 -14 z m 313 79 b 163 308 190 79 133 150 l 229 688 b 428 908 258 849 319 908 b 578 690 546 908 601 833 l 506 292 b 313 79 478 139 422 79 z m 564 1089 l 650 1089 l 546 1292 l 475 1292 l 301 1089 l 392 1089 l 500 1221 z "},"Ö":{"ha":701,"x_min":0,"x_max":0,"o":"m 307 -14 b 607 286 489 -14 571 90 l 676 682 b 432 997 710 885 601 997 b 128 689 275 997 167 914 l 63 317 b 307 -14 26 122 101 -14 z m 313 79 b 163 308 190 79 133 150 l 229 688 b 428 908 258 849 319 908 b 578 690 546 908 601 833 l 506 292 b 313 79 478 139 422 79 z m 382 1089 b 453 1156 422 1089 443 1106 b 401 1226 461 1207 442 1226 b 331 1160 358 1226 339 1210 b 382 1089 321 1108 340 1089 z m 569 1089 b 640 1156 611 1089 631 1106 b 589 1226 649 1207 629 1226 b 518 1160 547 1226 528 1210 b 569 1089 508 1108 528 1089 z "},"Ò":{"ha":701,"x_min":0,"x_max":0,"o":"m 307 -14 b 607 286 489 -14 571 90 l 676 682 b 432 997 710 885 601 997 b 128 689 275 997 167 914 l 63 317 b 307 -14 26 122 101 -14 z m 313 79 b 163 308 190 79 133 150 l 229 688 b 428 908 258 849 319 908 b 578 690 546 908 601 833 l 506 292 b 313 79 478 139 422 79 z m 439 1089 l 517 1089 l 428 1292 l 321 1292 z "},"Ő":{"ha":701,"x_min":0,"x_max":0,"o":"m 307 -14 b 607 286 489 -14 571 90 l 676 682 b 432 997 710 885 601 997 b 128 689 275 997 167 914 l 63 317 b 307 -14 26 122 101 -14 z m 313 79 b 163 308 190 79 133 150 l 229 688 b 428 908 258 849 319 908 b 578 690 546 908 601 833 l 506 292 b 313 79 478 139 422 79 z m 613 1293 l 510 1293 l 353 1089 l 426 1089 z m 786 1293 l 682 1293 l 518 1089 l 592 1089 z "},"Ō":{"ha":701,"x_min":0,"x_max":0,"o":"m 307 -14 b 607 286 489 -14 571 90 l 676 682 b 432 997 710 885 601 997 b 128 689 275 997 167 914 l 63 317 b 307 -14 26 122 101 -14 z m 313 79 b 163 308 190 79 133 150 l 229 688 b 428 908 258 849 319 908 b 578 690 546 908 601 833 l 506 292 b 313 79 478 139 422 79 z m 324 1104 l 629 1104 l 642 1182 l 336 1182 z "},"Ø":{"ha":710,"x_min":0,"x_max":0,"o":"m 161 313 l 228 688 b 428 908 256 847 326 908 b 513 893 460 908 489 904 l 181 139 b 161 313 154 176 147 233 z m 317 79 b 236 93 286 79 258 83 l 568 849 b 586 685 590 813 599 758 l 517 296 b 317 79 489 140 426 79 z m 307 -14 b 615 292 494 -14 579 90 b 683 676 615 292 683 675 b 611 944 707 806 675 894 l 683 1103 l 608 1103 l 551 978 b 438 997 518 992 479 997 b 128 689 279 997 167 914 l 63 322 b 133 36 40 193 63 92 l 58 -125 l 138 -125 l 196 3 b 307 -14 228 -8 264 -14 z "},"Ǿ":{"ha":710,"x_min":0,"x_max":0,"o":"m 161 313 l 228 688 b 428 908 256 847 326 908 b 513 893 460 908 489 904 l 181 139 b 161 313 154 176 147 233 z m 317 79 b 236 93 286 79 258 83 l 568 849 b 586 685 590 813 599 758 l 517 296 b 317 79 489 140 426 79 z m 307 -14 b 615 292 494 -14 579 90 b 683 676 615 292 683 675 b 611 944 707 806 675 894 l 683 1103 l 608 1103 l 551 978 b 438 997 518 992 479 997 b 128 689 279 997 167 914 l 63 322 b 133 36 40 193 63 92 l 58 -125 l 138 -125 l 196 3 b 307 -14 228 -8 264 -14 z m 439 1113 l 517 1113 l 722 1331 l 615 1331 z "},"Õ":{"ha":701,"x_min":0,"x_max":0,"o":"m 307 -14 b 607 286 489 -14 571 90 l 676 682 b 432 997 710 885 601 997 b 128 689 275 997 167 914 l 63 317 b 307 -14 26 122 101 -14 z m 313 79 b 163 308 190 79 133 150 l 229 688 b 428 908 258 849 319 908 b 578 690 546 908 601 833 l 506 292 b 313 79 478 139 422 79 z m 274 1092 l 343 1092 b 399 1167 353 1146 371 1167 b 568 1088 454 1167 485 1088 b 700 1239 650 1088 683 1144 l 631 1239 b 572 1163 619 1179 604 1163 b 401 1242 522 1163 485 1242 b 274 1092 322 1242 292 1188 z "},"Œ":{"ha":1019,"x_min":0,"x_max":0,"o":"m 313 79 b 163 313 193 79 135 149 l 229 688 b 424 908 258 847 322 908 b 575 683 544 908 603 842 l 507 296 b 313 79 479 140 422 79 z m 451 0 l 903 0 l 919 93 l 564 93 l 629 461 l 925 461 l 942 553 l 644 553 l 706 897 l 1047 897 l 1064 988 l 624 988 l 607 889 b 419 997 582 965 515 997 b 128 689 271 997 167 914 l 63 322 b 289 -14 28 119 94 -14 b 465 82 375 -14 429 19 z "},"Ŕ":{"ha":669,"x_min":0,"x_max":0,"o":"m 421 900 b 560 735 538 900 579 843 l 549 672 b 343 503 528 554 472 503 l 213 503 l 282 900 z m 335 415 b 461 263 450 415 479 363 l 428 72 b 435 0 422 43 422 14 l 544 0 b 529 71 528 14 524 39 l 565 271 b 467 460 585 368 560 433 b 642 649 571 482 624 543 l 657 724 b 438 988 686 886 613 988 l 199 988 l 26 0 l 124 0 l 197 415 z m 411 1075 l 489 1075 l 694 1293 l 588 1293 z "},"Ř":{"ha":669,"x_min":0,"x_max":0,"o":"m 421 900 b 560 735 538 900 579 843 l 549 672 b 343 503 528 554 472 503 l 213 503 l 282 900 z m 335 415 b 461 263 450 415 479 363 l 428 72 b 435 0 422 43 422 14 l 544 0 b 529 71 528 14 524 39 l 565 271 b 467 460 585 368 560 433 b 642 649 571 482 624 543 l 657 724 b 438 988 686 886 613 988 l 199 988 l 26 0 l 124 0 l 197 415 z m 485 1075 l 658 1275 l 569 1275 l 461 1149 l 400 1275 l 313 1275 l 415 1075 z "},"Ŗ":{"ha":669,"x_min":0,"x_max":0,"o":"m 421 900 b 560 735 538 900 579 843 l 549 672 b 343 503 528 554 472 503 l 213 503 l 282 900 z m 335 415 b 461 263 450 415 479 363 l 428 72 b 435 0 422 43 422 14 l 544 0 b 529 71 528 14 524 39 l 565 271 b 467 460 585 368 560 433 b 642 649 571 482 624 543 l 657 724 b 438 988 686 886 613 988 l 199 988 l 26 0 l 124 0 l 197 415 z m 160 -331 b 311 -156 243 -311 294 -244 b 261 -61 322 -86 310 -61 b 185 -129 218 -61 194 -81 b 226 -192 176 -181 192 -192 b 243 -189 232 -192 238 -190 b 164 -278 229 -235 203 -265 z "},"Ś":{"ha":632,"x_min":0,"x_max":0,"o":"m 275 -14 b 553 224 449 -14 526 74 l 556 247 b 386 535 582 411 483 475 b 231 757 297 589 210 639 l 233 781 b 393 915 250 869 307 915 b 533 750 507 915 550 849 l 518 668 l 618 668 l 632 751 b 396 1000 654 889 579 1000 b 138 792 263 1000 160 924 l 132 764 b 303 475 103 600 206 533 b 458 251 390 421 476 369 l 454 228 b 281 76 440 139 393 76 b 132 260 168 76 110 138 l 149 356 l 47 356 l 31 268 b 275 -14 -4 90 90 -14 z m 392 1089 l 469 1089 l 675 1307 l 568 1307 z "},"Š":{"ha":632,"x_min":0,"x_max":0,"o":"m 275 -14 b 553 224 449 -14 526 74 l 556 247 b 386 535 582 411 483 475 b 231 757 297 589 210 639 l 233 781 b 393 915 250 869 307 915 b 533 750 507 915 550 849 l 518 668 l 618 668 l 632 751 b 396 1000 654 889 579 1000 b 138 792 263 1000 160 924 l 132 764 b 303 475 103 600 206 533 b 458 251 390 421 476 369 l 454 228 b 281 76 440 139 393 76 b 132 260 168 76 110 138 l 149 356 l 47 356 l 31 268 b 275 -14 -4 90 90 -14 z m 474 1089 l 647 1289 l 558 1289 l 450 1163 l 389 1289 l 301 1289 l 404 1089 z "},"Ş":{"ha":632,"x_min":0,"x_max":0,"o":"m 210 -317 b 383 -203 310 -317 371 -272 b 271 -81 396 -126 357 -82 l 282 -14 b 553 224 449 -14 526 74 l 556 247 b 386 535 582 411 483 475 b 231 757 297 589 210 639 l 233 781 b 393 915 250 869 307 915 b 533 750 507 915 550 849 l 518 668 l 618 668 l 632 751 b 396 1000 654 889 579 1000 b 138 792 263 1000 160 924 l 132 764 b 303 475 103 600 206 533 b 458 251 390 421 476 369 l 454 228 b 281 76 440 139 393 76 b 132 260 168 76 110 138 l 149 356 l 47 356 l 31 268 b 210 -8 0 113 68 14 l 186 -139 l 228 -139 b 304 -197 289 -139 313 -158 b 214 -251 299 -232 267 -251 b 138 -185 164 -251 135 -229 l 50 -185 b 210 -317 51 -269 94 -317 z "},"Ŝ":{"ha":632,"x_min":0,"x_max":0,"o":"m 275 -14 b 553 224 449 -14 526 74 l 556 247 b 386 535 582 411 483 475 b 231 757 297 589 210 639 l 233 781 b 393 915 250 869 307 915 b 533 750 507 915 550 849 l 518 668 l 618 668 l 632 751 b 396 1000 654 889 579 1000 b 138 792 263 1000 160 924 l 132 764 b 303 475 103 600 206 533 b 458 251 390 421 476 369 l 454 228 b 281 76 440 139 393 76 b 132 260 168 76 110 138 l 149 356 l 47 356 l 31 268 b 275 -14 -4 90 90 -14 z m 531 1088 l 617 1088 l 513 1290 l 442 1290 l 268 1088 l 358 1088 l 467 1219 z "},"Ș":{"ha":632,"x_min":0,"x_max":0,"o":"m 275 -14 b 553 224 449 -14 526 74 l 556 247 b 386 535 582 411 483 475 b 231 757 297 589 210 639 l 233 781 b 393 915 250 869 307 915 b 533 750 507 915 550 849 l 518 668 l 618 668 l 632 751 b 396 1000 654 889 579 1000 b 138 792 263 1000 160 924 l 132 764 b 303 475 103 600 206 533 b 458 251 390 421 476 369 l 454 228 b 281 76 440 139 393 76 b 132 260 168 76 110 138 l 149 356 l 47 356 l 31 268 b 275 -14 -4 90 90 -14 z m 135 -354 b 286 -179 218 -335 269 -268 b 236 -85 297 -110 285 -85 b 160 -153 193 -85 169 -104 b 201 -215 151 -204 167 -215 b 218 -212 207 -215 213 -214 b 139 -301 204 -258 178 -289 z "},"Ŧ":{"ha":547,"x_min":0,"x_max":0,"o":"m 442 450 l 458 536 l 346 536 l 410 896 l 601 896 l 617 988 l 138 988 l 121 896 l 311 896 l 247 536 l 133 536 l 117 450 l 232 450 l 153 0 l 251 0 l 331 450 z "},"Ť":{"ha":547,"x_min":0,"x_max":0,"o":"m 601 896 l 617 988 l 138 988 l 121 896 l 311 896 l 153 0 l 251 0 l 410 896 z m 428 1075 l 601 1275 l 513 1275 l 404 1149 l 343 1275 l 256 1275 l 358 1075 z "},"Ţ":{"ha":547,"x_min":0,"x_max":0,"o":"m 601 896 l 617 988 l 138 988 l 121 896 l 311 896 l 153 0 l 251 0 l 410 896 z m 94 -339 b 246 -164 178 -319 229 -253 b 196 -69 257 -94 244 -69 b 119 -137 153 -69 129 -89 b 161 -200 111 -189 126 -200 b 178 -197 167 -200 172 -199 b 99 -286 164 -243 138 -274 z "},"Ú":{"ha":683,"x_min":0,"x_max":0,"o":"m 288 -14 b 575 281 465 -14 540 86 l 699 988 l 597 988 l 475 290 b 294 82 449 139 396 82 b 172 303 189 82 144 146 l 293 988 l 192 988 l 72 314 b 288 -14 38 114 88 -14 z m 418 1067 l 496 1067 l 701 1285 l 594 1285 z "},"Ŭ":{"ha":683,"x_min":0,"x_max":0,"o":"m 288 -14 b 575 281 465 -14 540 86 l 699 988 l 597 988 l 475 290 b 294 82 449 139 396 82 b 172 303 189 82 144 146 l 293 988 l 192 988 l 72 314 b 288 -14 38 114 88 -14 z m 464 1064 b 679 1267 594 1064 654 1140 l 603 1267 b 471 1135 586 1181 549 1136 b 382 1267 392 1136 368 1181 l 307 1267 b 464 1064 286 1140 332 1064 z "},"Û":{"ha":683,"x_min":0,"x_max":0,"o":"m 288 -14 b 575 281 465 -14 540 86 l 699 988 l 597 988 l 475 290 b 294 82 449 139 396 82 b 172 303 189 82 144 146 l 293 988 l 192 988 l 72 314 b 288 -14 38 114 88 -14 z m 547 1067 l 633 1067 l 529 1269 l 458 1269 l 285 1067 l 375 1067 l 483 1199 z "},"Ü":{"ha":683,"x_min":0,"x_max":0,"o":"m 288 -14 b 575 281 465 -14 540 86 l 699 988 l 597 988 l 475 290 b 294 82 449 139 396 82 b 172 303 189 82 144 146 l 293 988 l 192 988 l 72 314 b 288 -14 38 114 88 -14 z m 367 1067 b 438 1133 407 1067 428 1083 b 386 1204 446 1185 426 1204 b 315 1138 343 1204 324 1188 b 367 1067 306 1086 325 1067 z m 554 1067 b 625 1133 596 1067 615 1083 b 574 1204 633 1185 614 1204 b 503 1138 532 1204 513 1188 b 554 1067 493 1086 513 1067 z "},"Ù":{"ha":683,"x_min":0,"x_max":0,"o":"m 288 -14 b 575 281 465 -14 540 86 l 699 988 l 597 988 l 475 290 b 294 82 449 139 396 82 b 172 303 189 82 144 146 l 293 988 l 192 988 l 72 314 b 288 -14 38 114 88 -14 z m 422 1068 l 500 1068 l 411 1271 l 304 1271 z "},"Ű":{"ha":683,"x_min":0,"x_max":0,"o":"m 288 -14 b 575 281 465 -14 540 86 l 699 988 l 597 988 l 475 290 b 294 82 449 139 396 82 b 172 303 189 82 144 146 l 293 988 l 192 988 l 72 314 b 288 -14 38 114 88 -14 z m 597 1271 l 494 1271 l 338 1067 l 411 1067 z m 771 1271 l 667 1271 l 503 1067 l 576 1067 z "},"Ū":{"ha":683,"x_min":0,"x_max":0,"o":"m 288 -14 b 575 281 465 -14 540 86 l 699 988 l 597 988 l 475 290 b 294 82 449 139 396 82 b 172 303 189 82 144 146 l 293 988 l 192 988 l 72 314 b 288 -14 38 114 88 -14 z m 308 1082 l 614 1082 l 626 1160 l 321 1160 z "},"Ų":{"ha":683,"x_min":0,"x_max":0,"o":"m 293 -253 b 483 -128 385 -253 444 -212 l 393 -128 b 304 -186 376 -165 347 -186 b 243 -126 260 -186 236 -162 b 372 -4 250 -87 282 -60 b 575 281 490 24 546 119 l 699 988 l 597 988 l 475 290 b 294 82 449 139 396 82 b 172 303 189 82 144 146 l 293 988 l 192 988 l 72 314 b 244 -11 40 129 81 6 b 165 -119 199 -46 174 -79 b 293 -253 151 -194 196 -253 z "},"Ů":{"ha":683,"x_min":0,"x_max":0,"o":"m 288 -14 b 575 281 465 -14 540 86 l 699 988 l 597 988 l 475 290 b 294 82 449 139 396 82 b 172 303 189 82 144 146 l 293 988 l 192 988 l 72 314 b 288 -14 38 114 88 -14 z m 465 1044 b 615 1168 542 1044 601 1088 b 490 1311 629 1246 578 1311 b 340 1190 417 1311 354 1265 b 465 1044 325 1108 375 1044 z m 469 1114 b 414 1182 431 1114 407 1144 b 485 1243 419 1222 449 1243 b 542 1175 525 1243 549 1214 b 469 1114 533 1135 508 1114 z "},"Ũ":{"ha":683,"x_min":0,"x_max":0,"o":"m 288 -14 b 575 281 465 -14 540 86 l 699 988 l 597 988 l 475 290 b 294 82 449 139 396 82 b 172 303 189 82 144 146 l 293 988 l 192 988 l 72 314 b 288 -14 38 114 88 -14 z m 257 1071 l 326 1071 b 382 1146 336 1125 354 1146 b 551 1067 438 1146 468 1067 b 683 1218 633 1067 667 1124 l 614 1218 b 556 1142 603 1158 588 1142 b 385 1221 506 1142 468 1221 b 257 1071 306 1221 275 1167 z "},"Ẃ":{"ha":947,"x_min":0,"x_max":0,"o":"m 522 751 l 553 874 l 542 753 l 569 0 l 660 0 l 1010 988 l 915 988 l 664 265 l 626 104 l 638 253 l 607 988 l 538 988 l 240 253 l 200 113 l 222 265 l 242 988 l 147 988 l 128 0 l 217 0 z m 549 1075 l 626 1075 l 832 1293 l 725 1293 z "},"Ŵ":{"ha":947,"x_min":0,"x_max":0,"o":"m 522 751 l 553 874 l 542 753 l 569 0 l 660 0 l 1010 988 l 915 988 l 664 265 l 626 104 l 638 253 l 607 988 l 538 988 l 240 253 l 200 113 l 222 265 l 242 988 l 147 988 l 128 0 l 217 0 z m 679 1075 l 765 1075 l 661 1278 l 590 1278 l 417 1075 l 507 1075 l 615 1207 z "},"Ẅ":{"ha":947,"x_min":0,"x_max":0,"o":"m 522 751 l 553 874 l 542 753 l 569 0 l 660 0 l 1010 988 l 915 988 l 664 265 l 626 104 l 638 253 l 607 988 l 538 988 l 240 253 l 200 113 l 222 265 l 242 988 l 147 988 l 128 0 l 217 0 z m 499 1075 b 569 1142 539 1075 560 1092 b 518 1213 578 1193 558 1213 b 447 1146 475 1213 456 1196 b 499 1075 438 1094 457 1075 z m 686 1075 b 757 1142 728 1075 747 1092 b 706 1213 765 1193 746 1213 b 635 1146 664 1213 644 1196 b 686 1075 625 1094 644 1075 z "},"Ẁ":{"ha":947,"x_min":0,"x_max":0,"o":"m 522 751 l 553 874 l 542 753 l 569 0 l 660 0 l 1010 988 l 915 988 l 664 265 l 626 104 l 638 253 l 607 988 l 538 988 l 240 253 l 200 113 l 222 265 l 242 988 l 147 988 l 128 0 l 217 0 z m 554 1076 l 632 1076 l 543 1279 l 436 1279 z "},"Ý":{"ha":600,"x_min":0,"x_max":0,"o":"m 276 0 l 338 354 l 683 988 l 576 988 l 339 531 l 303 436 l 300 529 l 229 988 l 125 988 l 238 358 l 175 0 z m 382 1068 l 460 1068 l 665 1286 l 558 1286 z "},"Ŷ":{"ha":600,"x_min":0,"x_max":0,"o":"m 276 0 l 338 354 l 683 988 l 576 988 l 339 531 l 303 436 l 300 529 l 229 988 l 125 988 l 238 358 l 175 0 z m 511 1068 l 597 1068 l 493 1271 l 422 1271 l 249 1068 l 339 1068 l 447 1200 z "},"Ÿ":{"ha":600,"x_min":0,"x_max":0,"o":"m 276 0 l 338 354 l 683 988 l 576 988 l 339 531 l 303 436 l 300 529 l 229 988 l 125 988 l 238 358 l 175 0 z m 331 1068 b 401 1135 371 1068 392 1085 b 350 1206 410 1186 390 1206 b 279 1139 307 1206 288 1189 b 331 1068 269 1088 289 1068 z m 518 1068 b 589 1135 560 1068 579 1085 b 538 1206 597 1186 578 1206 b 467 1139 496 1206 476 1189 b 518 1068 457 1088 476 1068 z "},"Ỳ":{"ha":600,"x_min":0,"x_max":0,"o":"m 276 0 l 338 354 l 683 988 l 576 988 l 339 531 l 303 436 l 300 529 l 229 988 l 125 988 l 238 358 l 175 0 z m 388 1069 l 465 1069 l 376 1272 l 269 1272 z "},"Ĳ":{"ha":822,"x_min":0,"x_max":0,"o":"m 419 0 l 472 0 b 706 228 639 0 674 51 l 839 988 l 738 988 l 606 233 b 469 93 586 124 563 93 l 435 93 z m 339 0 l 354 93 l 222 93 l 364 897 l 496 897 l 511 988 l 151 988 l 135 897 l 268 897 l 126 93 l -7 93 l -22 0 z "},"Ź":{"ha":590,"x_min":0,"x_max":0,"o":"m 469 0 l 486 96 l 110 96 l 622 899 l 638 988 l 182 988 l 165 894 l 515 894 l -7 86 l -21 0 z m 379 1075 l 457 1075 l 663 1293 l 556 1293 z "},"Ž":{"ha":590,"x_min":0,"x_max":0,"o":"m 469 0 l 486 96 l 110 96 l 622 899 l 638 988 l 182 988 l 165 894 l 515 894 l -7 86 l -21 0 z m 451 1075 l 625 1275 l 536 1275 l 428 1149 l 367 1275 l 279 1275 l 382 1075 z "},"Ż":{"ha":590,"x_min":0,"x_max":0,"o":"m 469 0 l 486 96 l 110 96 l 622 899 l 638 988 l 182 988 l 165 894 l 515 894 l -7 86 l -21 0 z m 419 1072 b 499 1149 465 1072 489 1090 b 442 1229 510 1206 486 1229 b 360 1153 393 1229 371 1210 b 419 1072 350 1093 372 1072 z "},"Þ":{"ha":640,"x_min":0,"x_max":0,"o":"m 376 733 b 517 561 494 733 536 667 l 500 460 b 294 279 479 339 415 279 l 171 279 l 251 733 z m 289 192 b 593 438 472 190 564 274 l 614 553 b 393 822 640 714 568 822 l 267 822 l 296 988 l 199 988 l 26 0 l 122 0 l 156 192 z "},"a":{"ha":646,"x_min":0,"x_max":0,"o":"m 236 71 b 124 210 147 71 107 124 l 124 211 b 200 333 133 268 160 306 b 343 394 236 357 276 372 b 482 467 421 418 461 433 l 447 292 b 236 71 424 158 342 71 z m 533 0 l 569 0 l 586 88 l 574 88 b 522 199 513 88 504 108 l 589 561 b 375 804 619 726 532 804 b 104 581 221 804 131 724 l 93 521 l 190 521 l 199 569 b 372 724 217 678 271 724 b 500 588 479 724 515 668 l 500 582 b 319 453 488 514 433 489 b 143 386 240 428 189 411 b 24 218 81 350 39 303 l 22 208 b 194 -11 -4 75 58 -11 b 421 128 290 -11 371 31 b 533 0 410 38 438 0 z "},"b":{"ha":672,"x_min":0,"x_max":0,"o":"m 324 -11 b 579 268 463 -11 547 88 l 621 504 b 424 807 657 700 568 807 b 233 683 335 807 274 761 l 294 1032 l 200 1032 l 19 0 l 99 0 l 135 149 b 324 -11 144 47 206 -11 z m 304 78 b 164 288 181 78 140 161 l 207 535 b 385 721 228 649 288 721 b 521 504 492 721 547 649 l 479 272 b 304 78 457 149 406 78 z "},"c":{"ha":636,"x_min":0,"x_max":0,"o":"m 276 -12 b 544 222 436 -12 518 69 l 563 311 l 458 311 l 446 243 b 282 76 428 136 382 76 b 146 275 161 76 125 157 l 194 549 b 365 719 214 663 271 719 b 497 533 475 719 519 658 l 488 482 l 592 482 l 599 521 b 371 807 631 700 547 807 b 97 561 224 807 125 719 l 50 293 b 276 -12 19 115 75 -12 z "},"d":{"ha":669,"x_min":0,"x_max":0,"o":"m 282 76 b 147 290 176 76 121 144 l 189 519 b 367 719 211 643 265 719 b 506 508 486 719 529 640 l 463 261 b 282 76 442 147 381 76 z m 433 0 l 511 0 l 692 1032 l 597 1032 l 535 674 b 349 806 513 757 450 806 b 89 522 211 806 122 717 l 49 290 b 249 -12 14 93 97 -12 b 442 121 340 -12 403 35 z "},"e":{"ha":640,"x_min":0,"x_max":0,"o":"m 188 542 b 367 719 210 660 267 719 b 504 518 479 719 529 650 l 492 449 l 171 449 z m 549 225 l 556 265 l 456 265 l 453 243 b 282 76 435 133 389 76 b 143 286 158 76 121 157 l 157 367 l 574 367 l 600 513 b 369 807 632 697 542 807 b 97 557 219 807 125 717 l 50 294 b 276 -12 19 115 78 -12 b 549 225 438 -12 521 72 z "},"f":{"ha":385,"x_min":0,"x_max":0,"o":"m 417 704 l 433 794 l 288 794 l 297 846 b 422 974 317 953 338 974 l 464 974 l 481 1061 l 425 1061 b 204 851 293 1061 232 1014 l 194 794 l 89 794 l 72 704 l 178 704 l 54 0 l 149 0 l 272 704 z "},"g":{"ha":667,"x_min":0,"x_max":0,"o":"m 282 76 b 147 290 176 76 121 144 l 189 519 b 367 719 211 643 265 719 b 506 508 486 719 529 640 l 463 261 b 282 76 442 147 381 76 z m 226 -285 b 501 -42 383 -285 472 -203 l 649 794 l 572 794 l 535 654 b 346 806 521 750 458 806 b 90 522 210 806 124 717 l 50 290 b 249 -12 14 93 97 -12 b 435 114 335 -12 396 35 l 411 -25 b 231 -199 389 -144 332 -199 b 92 -92 133 -199 99 -157 l -11 -92 b 226 -285 -6 -211 68 -285 z "},"h":{"ha":660,"x_min":0,"x_max":0,"o":"m 206 519 b 388 719 226 644 285 719 b 504 542 490 719 522 650 l 410 0 l 508 0 l 604 547 b 431 806 633 715 561 806 b 228 658 340 806 271 756 l 294 1032 l 200 1032 l 19 0 l 114 0 z "},"i":{"ha":275,"x_min":0,"x_max":0,"o":"m 228 878 b 304 953 272 878 293 896 b 250 1029 314 1008 296 1029 b 172 956 204 1029 183 1013 b 228 878 163 899 179 878 z m 117 0 l 257 794 l 158 794 l 19 0 z "},"j":{"ha":276,"x_min":0,"x_max":0,"o":"m 228 878 b 304 953 274 878 294 896 b 250 1029 315 1008 297 1029 b 172 956 204 1029 183 1013 b 228 878 163 899 179 878 z m -107 -243 b 110 -44 40 -243 82 -200 l 257 794 l 161 794 l 15 -35 b -101 -150 -3 -131 -24 -150 l -136 -150 l -151 -243 z "},"k":{"ha":615,"x_min":0,"x_max":0,"o":"m 314 446 l 422 0 l 525 0 l 396 504 l 649 794 l 535 794 l 185 394 l 181 388 l 188 419 l 294 1032 l 200 1032 l 19 0 l 114 0 l 161 272 l 314 447 z "},"l":{"ha":275,"x_min":0,"x_max":0,"o":"m 19 0 l 117 0 l 297 1032 l 200 1032 z "},"m":{"ha":986,"x_min":0,"x_max":0,"o":"m 208 521 b 374 724 229 640 275 724 b 474 547 474 724 492 650 l 378 0 l 476 0 l 571 542 b 729 719 589 646 632 719 b 832 544 829 719 850 651 l 738 0 l 836 0 l 932 553 b 774 806 961 718 900 806 b 578 667 682 806 618 756 b 417 811 571 754 517 811 b 225 667 328 811 265 758 l 236 794 l 158 794 l 18 0 l 117 0 z "},"n":{"ha":660,"x_min":0,"x_max":0,"o":"m 207 519 b 388 719 229 644 285 719 b 504 542 490 719 522 650 l 410 0 l 508 0 l 604 547 b 431 806 633 715 561 806 b 224 657 335 806 265 751 l 236 794 l 158 794 l 18 0 l 117 0 z "},"o":{"ha":650,"x_min":0,"x_max":0,"o":"m 276 -12 b 551 232 436 -12 524 75 l 600 513 b 369 807 632 692 546 807 b 97 565 221 807 125 719 l 50 293 b 276 -12 19 115 82 -12 z m 283 76 b 146 275 165 76 125 157 l 194 554 b 367 719 214 665 272 719 b 504 526 472 719 526 653 l 456 247 b 283 76 438 139 385 76 z "},"p":{"ha":671,"x_min":0,"x_max":0,"o":"m 304 78 b 163 288 181 78 140 161 l 207 535 b 385 721 226 649 286 721 b 519 504 492 721 546 649 l 479 272 b 304 78 457 149 404 78 z m 322 -11 b 578 268 463 -11 547 88 l 619 504 b 422 807 656 700 568 807 b 224 669 328 807 263 754 l 235 794 l 158 794 l -29 -268 l 64 -268 l 138 140 b 322 -11 146 43 206 -11 z "},"q":{"ha":667,"x_min":0,"x_max":0,"o":"m 461 -268 l 649 794 l 572 794 l 535 654 b 346 806 521 750 458 806 b 89 522 210 806 121 717 l 47 290 b 249 -12 13 93 97 -12 b 435 114 335 -12 396 35 l 368 -268 z m 282 76 b 147 290 176 76 121 144 l 189 519 b 367 719 211 643 265 719 b 506 508 486 719 529 640 l 463 261 b 282 76 442 147 381 76 z "},"r":{"ha":426,"x_min":0,"x_max":0,"o":"m 115 0 l 199 476 b 410 693 225 629 274 693 l 450 693 l 469 799 l 442 799 b 221 639 322 799 260 757 l 233 794 l 158 794 l 18 0 z "},"s":{"ha":592,"x_min":0,"x_max":0,"o":"m 249 -12 b 508 189 394 -12 483 50 l 508 196 b 344 440 535 343 438 394 b 199 617 261 483 182 519 l 200 622 b 343 726 211 686 261 726 b 465 583 436 726 481 676 l 458 543 l 554 543 l 561 581 b 347 810 585 718 507 810 b 106 631 218 810 126 746 l 103 619 b 265 378 78 475 172 425 b 413 199 349 335 429 297 l 411 193 b 260 75 399 121 356 75 b 122 225 158 75 106 128 l 132 283 l 31 283 l 22 236 b 249 -12 -8 82 79 -12 z "},"t":{"ha":417,"x_min":0,"x_max":0,"o":"m 325 94 l 294 94 b 197 244 196 94 175 115 l 279 704 l 433 704 l 449 794 l 296 794 l 324 954 l 250 954 b 221 847 242 924 231 867 b 165 796 208 811 196 801 b 92 789 151 790 110 789 l 76 704 l 188 704 l 104 236 b 258 0 71 47 108 0 l 310 0 z "},"u":{"ha":644,"x_min":0,"x_max":0,"o":"m 408 0 l 486 0 l 626 794 l 528 794 l 436 275 b 264 75 414 147 360 75 b 157 256 168 75 138 144 l 251 794 l 153 794 l 60 260 b 226 -11 28 82 85 -11 b 421 139 319 -11 382 42 z "},"v":{"ha":606,"x_min":0,"x_max":0,"o":"m 281 0 l 646 794 l 546 794 l 276 189 l 247 100 l 250 189 l 197 794 l 100 794 l 182 0 z "},"w":{"ha":878,"x_min":0,"x_max":0,"o":"m 450 560 l 483 678 l 476 563 l 511 0 l 604 0 l 918 794 l 822 794 l 604 221 l 567 99 l 572 222 l 535 794 l 472 794 l 225 224 l 185 104 l 194 221 l 193 794 l 99 794 l 110 0 l 206 0 z "},"x":{"ha":590,"x_min":0,"x_max":0,"o":"m 274 315 l 290 358 l 293 315 l 390 0 l 497 0 l 356 419 l 617 794 l 508 794 l 326 521 l 310 481 l 306 521 l 222 794 l 117 794 l 246 421 l -46 0 l 64 0 z "},"y":{"ha":607,"x_min":0,"x_max":0,"o":"m 6 -226 b 263 -43 149 -226 193 -196 l 650 794 l 549 794 l 288 210 l 254 100 l 258 207 l 199 794 l 100 794 l 193 11 l 175 -31 b 15 -135 131 -121 104 -135 l -32 -135 l -49 -226 z "},"z":{"ha":539,"x_min":0,"x_max":0,"o":"m -28 -1 l 428 0 l 443 90 l 108 90 l 553 713 l 567 794 l 133 794 l 118 706 l 439 706 l -14 76 z "},"á":{"ha":644,"x_min":0,"x_max":0,"o":"m 235 71 b 122 210 146 71 106 124 l 122 211 b 199 333 132 268 158 306 b 342 394 235 357 275 372 b 481 467 419 418 460 433 l 446 292 b 235 71 422 158 340 71 z m 532 0 l 568 0 l 585 88 l 572 88 b 521 199 511 88 503 108 l 588 561 b 374 804 618 726 531 804 b 103 581 219 804 129 724 l 92 521 l 189 521 l 197 569 b 371 724 215 678 269 724 b 499 588 478 724 514 668 l 499 582 b 318 453 486 514 432 489 b 142 386 239 428 188 411 b 22 218 79 350 38 303 l 21 208 b 193 -11 -6 75 57 -11 b 419 128 289 -11 369 31 b 532 0 408 38 436 0 z m 365 894 l 443 894 l 649 1113 l 542 1113 z "},"ă":{"ha":644,"x_min":0,"x_max":0,"o":"m 235 71 b 122 210 146 71 106 124 l 122 211 b 199 333 132 268 158 306 b 342 394 235 357 275 372 b 481 467 419 418 460 433 l 446 292 b 235 71 422 158 340 71 z m 532 0 l 568 0 l 585 88 l 572 88 b 521 199 511 88 503 108 l 588 561 b 374 804 618 726 531 804 b 103 581 219 804 129 724 l 92 521 l 189 521 l 197 569 b 371 724 215 678 269 724 b 499 588 478 724 514 668 l 499 582 b 318 453 486 514 432 489 b 142 386 239 428 188 411 b 22 218 79 350 38 303 l 21 208 b 193 -11 -6 75 57 -11 b 419 128 289 -11 369 31 b 532 0 408 38 436 0 z m 418 892 b 633 1094 549 892 608 968 l 557 1094 b 425 963 540 1008 503 964 b 336 1094 346 964 322 1008 l 261 1094 b 418 892 240 968 286 892 z "},"â":{"ha":644,"x_min":0,"x_max":0,"o":"m 235 71 b 122 210 146 71 106 124 l 122 211 b 199 333 132 268 158 306 b 342 394 235 357 275 372 b 481 467 419 418 460 433 l 446 292 b 235 71 422 158 340 71 z m 532 0 l 568 0 l 585 88 l 572 88 b 521 199 511 88 503 108 l 588 561 b 374 804 618 726 531 804 b 103 581 219 804 129 724 l 92 521 l 189 521 l 197 569 b 371 724 215 678 269 724 b 499 588 478 724 514 668 l 499 582 b 318 453 486 514 432 489 b 142 386 239 428 188 411 b 22 218 79 350 38 303 l 21 208 b 193 -11 -6 75 57 -11 b 419 128 289 -11 369 31 b 532 0 408 38 436 0 z m 501 894 l 588 894 l 483 1097 l 413 1097 l 239 894 l 329 894 l 438 1026 z "},"ä":{"ha":644,"x_min":0,"x_max":0,"o":"m 235 71 b 122 210 146 71 106 124 l 122 211 b 199 333 132 268 158 306 b 342 394 235 357 275 372 b 481 467 419 418 460 433 l 446 292 b 235 71 422 158 340 71 z m 532 0 l 568 0 l 585 88 l 572 88 b 521 199 511 88 503 108 l 588 561 b 374 804 618 726 531 804 b 103 581 219 804 129 724 l 92 521 l 189 521 l 197 569 b 371 724 215 678 269 724 b 499 588 478 724 514 668 l 499 582 b 318 453 486 514 432 489 b 142 386 239 428 188 411 b 22 218 79 350 38 303 l 21 208 b 193 -11 -6 75 57 -11 b 419 128 289 -11 369 31 b 532 0 408 38 436 0 z m 321 894 b 392 961 361 894 382 911 b 340 1032 400 1013 381 1032 b 269 965 297 1032 278 1015 b 321 894 260 914 279 894 z m 508 894 b 579 961 550 894 569 911 b 528 1032 588 1013 568 1032 b 457 965 486 1032 467 1015 b 508 894 447 914 467 894 z "},"à":{"ha":644,"x_min":0,"x_max":0,"o":"m 235 71 b 122 210 146 71 106 124 l 122 211 b 199 333 132 268 158 306 b 342 394 235 357 275 372 b 481 467 419 418 460 433 l 446 292 b 235 71 422 158 340 71 z m 532 0 l 568 0 l 585 88 l 572 88 b 521 199 511 88 503 108 l 588 561 b 374 804 618 726 531 804 b 103 581 219 804 129 724 l 92 521 l 189 521 l 197 569 b 371 724 215 678 269 724 b 499 588 478 724 514 668 l 499 582 b 318 453 486 514 432 489 b 142 386 239 428 188 411 b 22 218 79 350 38 303 l 21 208 b 193 -11 -6 75 57 -11 b 419 128 289 -11 369 31 b 532 0 408 38 436 0 z m 376 894 l 454 894 l 365 1097 l 258 1097 z "},"ā":{"ha":644,"x_min":0,"x_max":0,"o":"m 235 71 b 122 210 146 71 106 124 l 122 211 b 199 333 132 268 158 306 b 342 394 235 357 275 372 b 481 467 419 418 460 433 l 446 292 b 235 71 422 158 340 71 z m 532 0 l 568 0 l 585 88 l 572 88 b 521 199 511 88 503 108 l 588 561 b 374 804 618 726 531 804 b 103 581 219 804 129 724 l 92 521 l 189 521 l 197 569 b 371 724 215 678 269 724 b 499 588 478 724 514 668 l 499 582 b 318 453 486 514 432 489 b 142 386 239 428 188 411 b 22 218 79 350 38 303 l 21 208 b 193 -11 -6 75 57 -11 b 419 128 289 -11 369 31 b 532 0 408 38 436 0 z m 263 910 l 568 910 l 581 988 l 275 988 z "},"ą":{"ha":644,"x_min":0,"x_max":0,"o":"m 469 -261 b 660 -136 561 -261 621 -221 l 569 -136 b 481 -194 553 -174 524 -194 b 419 -135 436 -194 413 -171 b 569 0 426 -93 464 -64 l 568 1 l 585 88 l 572 88 b 521 199 511 88 503 108 l 588 561 b 374 804 618 726 531 804 b 103 581 219 804 129 724 l 92 521 l 189 521 l 197 569 b 371 724 215 678 269 724 b 499 588 478 724 514 668 l 499 582 b 318 453 486 514 432 489 b 142 386 239 428 188 411 b 22 218 79 350 38 303 l 21 208 b 193 -11 -6 75 57 -11 b 419 128 289 -11 369 31 b 467 10 411 63 424 25 b 342 -128 390 -35 353 -75 b 469 -261 328 -203 372 -261 z m 235 71 b 122 210 146 71 106 124 l 122 211 b 199 333 132 268 158 306 b 342 394 235 357 275 372 b 481 467 419 418 460 433 l 446 292 b 235 71 422 158 340 71 z "},"å":{"ha":644,"x_min":0,"x_max":0,"o":"m 235 71 b 122 210 146 71 106 124 l 122 211 b 199 333 132 268 158 306 b 342 394 235 357 275 372 b 481 467 419 418 460 433 l 446 292 b 235 71 422 158 340 71 z m 532 0 l 568 0 l 585 88 l 572 88 b 521 199 511 88 503 108 l 588 561 b 374 804 618 726 531 804 b 103 581 219 804 129 724 l 92 521 l 189 521 l 197 569 b 371 724 215 678 269 724 b 499 588 478 724 514 668 l 499 582 b 318 453 486 514 432 489 b 142 386 239 428 188 411 b 22 218 79 350 38 303 l 21 208 b 193 -11 -6 75 57 -11 b 419 128 289 -11 369 31 b 532 0 408 38 436 0 z m 421 897 b 571 1021 497 897 557 940 b 446 1164 585 1099 533 1164 b 296 1043 372 1164 310 1118 b 421 897 281 961 331 897 z m 425 967 b 369 1035 386 967 363 997 b 440 1096 375 1075 404 1096 b 497 1028 481 1096 504 1067 b 425 967 489 988 464 967 z "},"ǻ":{"ha":644,"x_min":0,"x_max":0,"o":"m 235 71 b 122 210 146 71 106 124 l 122 211 b 199 333 132 268 158 306 b 342 394 235 357 275 372 b 481 467 419 418 460 433 l 446 292 b 235 71 422 158 340 71 z m 532 0 l 568 0 l 585 88 l 572 88 b 521 199 511 88 503 108 l 588 561 b 374 804 618 726 531 804 b 103 581 219 804 129 724 l 92 521 l 189 521 l 197 569 b 371 724 215 678 269 724 b 499 588 478 724 514 668 l 499 582 b 318 453 486 514 432 489 b 142 386 239 428 188 411 b 22 218 79 350 38 303 l 21 208 b 193 -11 -6 75 57 -11 b 419 128 289 -11 369 31 b 532 0 408 38 436 0 z m 417 872 b 567 996 493 872 553 915 b 442 1139 581 1074 529 1139 b 292 1018 368 1139 306 1093 b 417 872 276 936 326 872 z m 421 942 b 365 1010 382 942 358 972 b 436 1071 371 1050 400 1071 b 493 1003 476 1071 500 1042 b 421 942 485 963 460 942 z m 425 1197 l 503 1197 l 708 1415 l 601 1415 z "},"ã":{"ha":644,"x_min":0,"x_max":0,"o":"m 235 71 b 122 210 146 71 106 124 l 122 211 b 199 333 132 268 158 306 b 342 394 235 357 275 372 b 481 467 419 418 460 433 l 446 292 b 235 71 422 158 340 71 z m 532 0 l 568 0 l 585 88 l 572 88 b 521 199 511 88 503 108 l 588 561 b 374 804 618 726 531 804 b 103 581 219 804 129 724 l 92 521 l 189 521 l 197 569 b 371 724 215 678 269 724 b 499 588 478 724 514 668 l 499 582 b 318 453 486 514 432 489 b 142 386 239 428 188 411 b 22 218 79 350 38 303 l 21 208 b 193 -11 -6 75 57 -11 b 419 128 289 -11 369 31 b 532 0 408 38 436 0 z m 211 897 l 281 897 b 336 972 290 951 308 972 b 506 893 392 972 422 893 b 638 1044 588 893 621 950 l 568 1044 b 510 968 557 985 542 968 b 339 1047 460 968 422 1047 b 211 897 260 1047 229 993 z "},"æ":{"ha":1039,"x_min":0,"x_max":0,"o":"m 586 542 b 767 719 607 660 667 719 b 903 518 879 719 928 650 l 890 449 l 569 449 z m 238 71 b 124 210 149 71 107 124 l 124 211 b 194 331 133 268 158 304 b 338 393 229 356 269 371 b 481 468 415 417 458 433 l 447 292 b 238 71 424 158 343 71 z m 947 225 l 954 265 l 854 265 l 851 243 b 681 76 833 133 788 76 b 542 286 556 76 519 157 l 556 367 l 972 367 l 999 513 b 769 807 1031 697 942 807 b 565 704 682 807 613 768 b 375 804 538 768 471 804 b 104 581 222 804 131 724 l 92 513 l 188 513 l 197 569 b 372 724 215 678 272 724 b 500 588 478 724 515 668 l 500 582 b 321 453 488 514 435 486 b 121 372 228 426 168 407 b 24 218 72 339 38 292 l 22 208 b 196 -11 -4 75 60 -11 b 444 150 299 -11 389 32 b 674 -12 457 47 529 -12 b 947 225 836 -12 918 72 z "},"ǽ":{"ha":1039,"x_min":0,"x_max":0,"o":"m 586 542 b 767 719 607 660 667 719 b 903 518 879 719 928 650 l 890 449 l 569 449 z m 238 71 b 124 210 149 71 107 124 l 124 211 b 194 331 133 268 158 304 b 338 393 229 356 269 371 b 481 468 415 417 458 433 l 447 292 b 238 71 424 158 343 71 z m 947 225 l 954 265 l 854 265 l 851 243 b 681 76 833 133 788 76 b 542 286 556 76 519 157 l 556 367 l 972 367 l 999 513 b 769 807 1031 697 942 807 b 565 704 682 807 613 768 b 375 804 538 768 471 804 b 104 581 222 804 131 724 l 92 513 l 188 513 l 197 569 b 372 724 215 678 272 724 b 500 588 478 724 515 668 l 500 582 b 321 453 488 514 435 486 b 121 372 228 426 168 407 b 24 218 72 339 38 292 l 22 208 b 196 -11 -4 75 60 -11 b 444 150 299 -11 389 32 b 674 -12 457 47 529 -12 b 947 225 836 -12 918 72 z m 540 857 l 618 857 l 824 1075 l 717 1075 z "},"ć":{"ha":636,"x_min":0,"x_max":0,"o":"m 276 -12 b 544 222 436 -12 518 69 l 563 311 l 458 311 l 446 243 b 282 76 428 136 382 76 b 146 275 161 76 125 157 l 194 549 b 365 719 214 663 271 719 b 497 533 475 719 519 658 l 488 482 l 592 482 l 599 521 b 371 807 631 700 547 807 b 97 561 224 807 125 719 l 50 293 b 276 -12 19 115 75 -12 z m 374 894 l 451 894 l 657 1113 l 550 1113 z "},"č":{"ha":636,"x_min":0,"x_max":0,"o":"m 276 -12 b 544 222 436 -12 518 69 l 563 311 l 458 311 l 446 243 b 282 76 428 136 382 76 b 146 275 161 76 125 157 l 194 549 b 365 719 214 663 271 719 b 497 533 475 719 519 658 l 488 482 l 592 482 l 599 521 b 371 807 631 700 547 807 b 97 561 224 807 125 719 l 50 293 b 276 -12 19 115 75 -12 z m 447 894 l 621 1094 l 532 1094 l 424 968 l 363 1094 l 275 1094 l 378 894 z "},"ç":{"ha":636,"x_min":0,"x_max":0,"o":"m 211 -317 b 385 -203 311 -317 372 -272 b 272 -81 397 -126 358 -82 l 283 -12 b 544 222 436 -12 518 69 l 563 311 l 458 311 l 446 243 b 282 76 428 136 382 76 b 146 275 161 76 125 157 l 194 549 b 365 719 214 663 271 719 b 497 533 475 719 519 658 l 488 482 l 592 482 l 599 521 b 371 807 631 700 547 807 b 97 561 224 807 125 719 l 50 293 b 211 -7 24 136 63 18 l 188 -139 l 229 -139 b 306 -197 290 -139 314 -158 b 215 -251 300 -232 268 -251 b 139 -185 165 -251 136 -229 l 51 -185 b 211 -317 53 -269 96 -317 z "},"ĉ":{"ha":636,"x_min":0,"x_max":0,"o":"m 276 -12 b 544 222 436 -12 518 69 l 563 311 l 458 311 l 446 243 b 282 76 428 136 382 76 b 146 275 161 76 125 157 l 194 549 b 365 719 214 663 271 719 b 497 533 475 719 519 658 l 488 482 l 592 482 l 599 521 b 371 807 631 700 547 807 b 97 561 224 807 125 719 l 50 293 b 276 -12 19 115 75 -12 z m 504 894 l 590 894 l 486 1097 l 415 1097 l 242 894 l 332 894 l 440 1026 z "},"ċ":{"ha":636,"x_min":0,"x_max":0,"o":"m 276 -12 b 544 222 436 -12 518 69 l 563 311 l 458 311 l 446 243 b 282 76 428 136 382 76 b 146 275 161 76 125 157 l 194 549 b 365 719 214 663 271 719 b 497 533 475 719 519 658 l 488 482 l 592 482 l 599 521 b 371 807 631 700 547 807 b 97 561 224 807 125 719 l 50 293 b 276 -12 19 115 75 -12 z m 415 892 b 494 968 461 892 485 910 b 438 1049 506 1025 482 1049 b 356 972 389 1049 367 1029 b 415 892 346 913 368 892 z "},"ď":{"ha":669,"x_min":0,"x_max":0,"o":"m 282 76 b 147 290 176 76 121 144 l 189 519 b 367 719 211 643 265 719 b 506 508 486 719 529 640 l 463 261 b 282 76 442 147 381 76 z m 433 0 l 511 0 l 692 1032 l 597 1032 l 535 674 b 349 806 513 757 450 806 b 89 522 211 806 122 717 l 49 290 b 249 -12 14 93 97 -12 b 442 121 340 -12 403 35 z m 743 908 l 810 908 l 913 1114 l 825 1114 z "},"đ":{"ha":669,"x_min":0,"x_max":0,"o":"m 282 76 b 147 290 176 76 121 144 l 189 519 b 367 719 211 643 265 719 b 506 508 486 719 529 640 l 463 261 b 282 76 442 147 381 76 z m 433 0 l 511 0 l 665 878 l 742 878 l 754 942 l 676 942 l 692 1032 l 597 1032 l 582 942 l 471 942 l 458 878 l 569 878 l 535 674 b 349 806 513 757 450 806 b 89 522 211 806 122 717 l 49 290 b 249 -12 14 93 97 -12 b 442 121 340 -12 403 35 z "},"ð":{"ha":649,"x_min":0,"x_max":0,"o":"m 274 -12 b 549 232 435 -12 522 75 l 601 529 b 500 961 632 704 594 846 l 643 1058 l 539 1058 l 460 1004 b 397 1058 440 1024 419 1042 l 251 1058 b 382 953 303 1022 346 986 l 233 851 l 339 851 l 424 910 b 525 682 488 838 519 765 b 354 792 503 753 444 792 b 93 551 215 792 121 706 l 49 293 b 274 -12 18 115 79 -12 z m 282 76 b 143 275 164 76 122 157 l 190 540 b 361 706 210 650 267 706 b 500 513 468 706 522 639 l 453 247 b 282 76 435 139 383 76 z "},"é":{"ha":640,"x_min":0,"x_max":0,"o":"m 188 542 b 367 719 210 660 267 719 b 504 518 479 719 529 650 l 492 449 l 171 449 z m 549 225 l 556 265 l 456 265 l 453 243 b 282 76 435 133 389 76 b 143 286 158 76 121 157 l 157 367 l 574 367 l 600 513 b 369 807 632 697 542 807 b 97 557 219 807 125 717 l 50 294 b 276 -12 19 115 78 -12 b 549 225 438 -12 521 72 z m 375 894 l 453 894 l 658 1113 l 551 1113 z "},"ĕ":{"ha":640,"x_min":0,"x_max":0,"o":"m 188 542 b 367 719 210 660 267 719 b 504 518 479 719 529 650 l 492 449 l 171 449 z m 549 225 l 556 265 l 456 265 l 453 243 b 282 76 435 133 389 76 b 143 286 158 76 121 157 l 157 367 l 574 367 l 600 513 b 369 807 632 697 542 807 b 97 557 219 807 125 717 l 50 294 b 276 -12 19 115 78 -12 b 549 225 438 -12 521 72 z m 433 892 b 649 1094 564 892 624 968 l 572 1094 b 440 963 556 1008 518 964 b 351 1094 361 964 338 1008 l 276 1094 b 433 892 256 968 301 892 z "},"ě":{"ha":640,"x_min":0,"x_max":0,"o":"m 188 542 b 367 719 210 660 267 719 b 504 518 479 719 529 650 l 492 449 l 171 449 z m 549 225 l 556 265 l 456 265 l 453 243 b 282 76 435 133 389 76 b 143 286 158 76 121 157 l 157 367 l 574 367 l 600 513 b 369 807 632 697 542 807 b 97 557 219 807 125 717 l 50 294 b 276 -12 19 115 78 -12 b 549 225 438 -12 521 72 z m 457 894 l 631 1094 l 542 1094 l 433 968 l 372 1094 l 285 1094 l 388 894 z "},"ê":{"ha":640,"x_min":0,"x_max":0,"o":"m 188 542 b 367 719 210 660 267 719 b 504 518 479 719 529 650 l 492 449 l 171 449 z m 549 225 l 556 265 l 456 265 l 453 243 b 282 76 435 133 389 76 b 143 286 158 76 121 157 l 157 367 l 574 367 l 600 513 b 369 807 632 697 542 807 b 97 557 219 807 125 717 l 50 294 b 276 -12 19 115 78 -12 b 549 225 438 -12 521 72 z m 507 894 l 593 894 l 489 1097 l 418 1097 l 244 894 l 335 894 l 443 1026 z "},"ë":{"ha":640,"x_min":0,"x_max":0,"o":"m 188 542 b 367 719 210 660 267 719 b 504 518 479 719 529 650 l 492 449 l 171 449 z m 549 225 l 556 265 l 456 265 l 453 243 b 282 76 435 133 389 76 b 143 286 158 76 121 157 l 157 367 l 574 367 l 600 513 b 369 807 632 697 542 807 b 97 557 219 807 125 717 l 50 294 b 276 -12 19 115 78 -12 b 549 225 438 -12 521 72 z m 325 894 b 396 961 365 894 386 911 b 344 1032 404 1013 385 1032 b 274 965 301 1032 282 1015 b 325 894 264 914 283 894 z m 513 894 b 583 961 554 894 574 911 b 532 1032 592 1013 572 1032 b 461 965 490 1032 471 1015 b 513 894 451 914 471 894 z "},"ė":{"ha":640,"x_min":0,"x_max":0,"o":"m 188 542 b 367 719 210 660 267 719 b 504 518 479 719 529 650 l 492 449 l 171 449 z m 549 225 l 556 265 l 456 265 l 453 243 b 282 76 435 133 389 76 b 143 286 158 76 121 157 l 157 367 l 574 367 l 600 513 b 369 807 632 697 542 807 b 97 557 219 807 125 717 l 50 294 b 276 -12 19 115 78 -12 b 549 225 438 -12 521 72 z m 424 892 b 503 968 469 892 493 910 b 446 1049 514 1025 490 1049 b 364 972 397 1049 375 1029 b 424 892 354 913 376 892 z "},"è":{"ha":640,"x_min":0,"x_max":0,"o":"m 188 542 b 367 719 210 660 267 719 b 504 518 479 719 529 650 l 492 449 l 171 449 z m 549 225 l 556 265 l 456 265 l 453 243 b 282 76 435 133 389 76 b 143 286 158 76 121 157 l 157 367 l 574 367 l 600 513 b 369 807 632 697 542 807 b 97 557 219 807 125 717 l 50 294 b 276 -12 19 115 78 -12 b 549 225 438 -12 521 72 z m 389 894 l 467 894 l 378 1097 l 271 1097 z "},"ē":{"ha":640,"x_min":0,"x_max":0,"o":"m 188 542 b 367 719 210 660 267 719 b 504 518 479 719 529 650 l 492 449 l 171 449 z m 549 225 l 556 265 l 456 265 l 453 243 b 282 76 435 133 389 76 b 143 286 158 76 121 157 l 157 367 l 574 367 l 600 513 b 369 807 632 697 542 807 b 97 557 219 807 125 717 l 50 294 b 276 -12 19 115 78 -12 b 549 225 438 -12 521 72 z m 274 910 l 579 910 l 592 988 l 286 988 z "},"ę":{"ha":640,"x_min":0,"x_max":0,"o":"m 314 -242 b 504 -117 406 -242 465 -201 l 414 -117 b 325 -175 397 -154 368 -175 b 264 -115 281 -175 257 -151 b 393 7 271 -76 303 -49 b 549 225 479 40 529 115 l 556 265 l 456 265 l 453 243 b 282 76 435 133 389 76 b 143 286 158 76 121 157 l 157 367 l 574 367 l 600 513 b 369 807 632 697 542 807 b 97 557 219 807 125 717 l 50 294 b 251 -11 21 124 72 -1 b 186 -108 214 -42 193 -72 b 314 -242 172 -183 217 -242 z m 188 542 b 367 719 210 660 267 719 b 504 518 479 719 529 650 l 492 449 l 171 449 z "},"ğ":{"ha":667,"x_min":0,"x_max":0,"o":"m 282 76 b 147 290 176 76 121 144 l 189 519 b 367 719 211 643 265 719 b 506 508 486 719 529 640 l 463 261 b 282 76 442 147 381 76 z m 226 -285 b 501 -42 383 -285 472 -203 l 649 794 l 572 794 l 535 654 b 346 806 521 750 458 806 b 90 522 210 806 124 717 l 50 290 b 249 -12 14 93 97 -12 b 435 114 335 -12 396 35 l 411 -25 b 231 -199 389 -144 332 -199 b 92 -92 133 -199 99 -157 l -11 -92 b 226 -285 -6 -211 68 -285 z m 435 890 b 650 1093 565 890 625 967 l 574 1093 b 442 961 557 1007 519 963 b 353 1093 363 963 339 1007 l 278 1093 b 435 890 257 967 303 890 z "},"ĝ":{"ha":667,"x_min":0,"x_max":0,"o":"m 282 76 b 147 290 176 76 121 144 l 189 519 b 367 719 211 643 265 719 b 506 508 486 719 529 640 l 463 261 b 282 76 442 147 381 76 z m 226 -285 b 501 -42 383 -285 472 -203 l 649 794 l 572 794 l 535 654 b 346 806 521 750 458 806 b 90 522 210 806 124 717 l 50 290 b 249 -12 14 93 97 -12 b 435 114 335 -12 396 35 l 411 -25 b 231 -199 389 -144 332 -199 b 92 -92 133 -199 99 -157 l -11 -92 b 226 -285 -6 -211 68 -285 z m 517 893 l 603 893 l 499 1096 l 428 1096 l 254 893 l 344 893 l 453 1025 z "},"ģ":{"ha":667,"x_min":0,"x_max":0,"o":"m 282 76 b 147 290 176 76 121 144 l 189 519 b 367 719 211 643 265 719 b 506 508 486 719 529 640 l 463 261 b 282 76 442 147 381 76 z m 226 -285 b 501 -42 383 -285 472 -203 l 649 794 l 572 794 l 535 654 b 346 806 521 750 458 806 b 90 522 210 806 124 717 l 50 290 b 249 -12 14 93 97 -12 b 435 114 335 -12 396 35 l 411 -25 b 231 -199 389 -144 332 -199 b 92 -92 133 -199 99 -157 l -11 -92 b 226 -285 -6 -211 68 -285 z m 404 900 b 481 969 447 900 471 921 b 438 1032 489 1021 472 1032 b 424 1029 432 1032 428 1031 b 500 1118 436 1075 463 1106 l 504 1171 b 354 996 421 1151 369 1085 b 404 900 342 929 356 900 z "},"ġ":{"ha":667,"x_min":0,"x_max":0,"o":"m 282 76 b 147 290 176 76 121 144 l 189 519 b 367 719 211 643 265 719 b 506 508 486 719 529 640 l 463 261 b 282 76 442 147 381 76 z m 226 -285 b 501 -42 383 -285 472 -203 l 649 794 l 572 794 l 535 654 b 346 806 521 750 458 806 b 90 522 210 806 124 717 l 50 290 b 249 -12 14 93 97 -12 b 435 114 335 -12 396 35 l 411 -25 b 231 -199 389 -144 332 -199 b 92 -92 133 -199 99 -157 l -11 -92 b 226 -285 -6 -211 68 -285 z m 426 890 b 506 967 472 890 496 908 b 449 1047 517 1024 493 1047 b 367 971 400 1047 378 1028 b 426 890 357 911 379 890 z "},"ß":{"ha":688,"x_min":0,"x_max":0,"o":"m 319 -1 b 597 236 506 -1 569 81 l 611 314 b 501 546 632 436 601 515 b 661 746 600 569 642 638 l 671 803 b 443 1047 696 953 607 1047 b 161 807 274 1047 188 957 l 19 0 l 117 0 l 257 801 b 435 957 275 904 331 957 b 575 800 543 957 593 901 l 565 744 b 379 593 547 638 485 593 l 349 593 l 333 506 l 367 506 b 508 313 488 506 532 438 l 496 244 b 315 90 475 128 422 90 b 254 94 297 90 260 92 l 239 1 b 319 -1 244 0 301 -1 z "},"ħ":{"ha":658,"x_min":0,"x_max":0,"o":"m 206 519 b 388 719 226 644 285 719 b 504 542 490 719 522 650 l 410 0 l 508 0 l 604 547 b 431 806 633 715 561 806 b 228 658 340 806 271 756 l 267 879 l 378 879 l 389 943 l 279 943 l 294 1032 l 200 1032 l 185 943 l 108 943 l 97 879 l 174 879 l 19 0 l 114 0 z "},"ĥ":{"ha":660,"x_min":0,"x_max":0,"o":"m 206 519 b 388 719 226 644 285 719 b 504 542 490 719 522 650 l 410 0 l 508 0 l 604 547 b 431 806 633 715 561 806 b 228 658 340 806 271 756 l 294 1032 l 200 1032 l 19 0 l 114 0 z m 353 1119 l 439 1119 l 335 1322 l 264 1322 l 90 1119 l 181 1119 l 289 1251 z "},"í":{"ha":275,"x_min":0,"x_max":0,"o":"m 19 0 l 117 0 l 257 794 l 158 794 z m 185 886 l 263 886 l 468 1104 l 361 1104 z "},"ĭ":{"ha":275,"x_min":0,"x_max":0,"o":"m 19 0 l 117 0 l 257 794 l 158 794 z m 231 881 b 446 1083 361 881 421 957 l 369 1083 b 238 951 353 997 315 953 b 149 1083 158 953 135 997 l 74 1083 b 231 881 53 957 99 881 z "},"î":{"ha":275,"x_min":0,"x_max":0,"o":"m 19 0 l 117 0 l 257 794 l 158 794 z m 311 883 l 397 883 l 293 1086 l 222 1086 l 49 883 l 139 883 l 247 1015 z "},"ï":{"ha":275,"x_min":0,"x_max":0,"o":"m 19 0 l 117 0 l 257 794 l 158 794 z m 129 883 b 200 950 169 883 190 900 b 149 1021 208 1001 189 1021 b 78 954 106 1021 86 1004 b 129 883 68 903 88 883 z m 317 883 b 388 950 358 883 378 900 b 336 1021 396 1001 376 1021 b 265 954 294 1021 275 1004 b 317 883 256 903 275 883 z "},"ì":{"ha":275,"x_min":0,"x_max":0,"o":"m 19 0 l 117 0 l 257 794 l 158 794 z m 186 883 l 264 883 l 175 1086 l 68 1086 z "},"ī":{"ha":275,"x_min":0,"x_max":0,"o":"m 19 0 l 117 0 l 257 794 l 158 794 z m 74 899 l 379 899 l 392 976 l 86 976 z "},"į":{"ha":275,"x_min":0,"x_max":0,"o":"m 228 878 b 304 953 272 878 293 896 b 250 1029 314 1008 296 1029 b 172 956 204 1029 183 1013 b 228 878 163 899 179 878 z m 207 -136 l 117 -136 b 28 -194 100 -174 71 -194 b -33 -135 -17 -194 -40 -171 b 117 0 -26 -93 11 -64 l 257 794 l 158 794 l 22 14 b -111 -128 -60 -32 -100 -74 b 17 -261 -125 -203 -81 -261 b 207 -136 108 -261 168 -221 z "},"ĩ":{"ha":275,"x_min":0,"x_max":0,"o":"m 19 0 l 117 0 l 257 794 l 158 794 z m 28 886 l 97 886 b 153 961 107 940 125 961 b 322 882 208 961 239 882 b 454 1033 404 882 438 939 l 385 1033 b 326 957 374 974 358 957 b 156 1036 276 957 239 1036 b 28 886 76 1036 46 982 z "},"ı":{"ha":275,"x_min":0,"x_max":0,"o":"m 19 0 l 117 0 l 257 794 l 158 794 z "},"ĵ":{"ha":276,"x_min":0,"x_max":0,"o":"m -107 -243 b 110 -44 40 -243 82 -200 l 257 794 l 161 794 l 15 -35 b -101 -150 -3 -131 -24 -150 l -136 -150 l -151 -243 z m 313 883 l 399 883 l 294 1086 l 224 1086 l 50 883 l 140 883 l 249 1015 z "},"ȷ":{"ha":276,"x_min":0,"x_max":0,"o":"m -107 -243 b 110 -44 40 -243 82 -200 l 257 794 l 161 794 l 15 -35 b -101 -150 -3 -131 -24 -150 l -136 -150 l -151 -243 z "},"ķ":{"ha":615,"x_min":0,"x_max":0,"o":"m 314 446 l 422 0 l 525 0 l 396 504 l 649 794 l 535 794 l 185 394 l 181 388 l 188 419 l 294 1032 l 200 1032 l 19 0 l 114 0 l 161 272 l 314 447 z m 146 -331 b 297 -156 229 -311 281 -244 b 247 -61 308 -86 296 -61 b 171 -129 204 -61 181 -81 b 213 -192 163 -181 178 -192 b 229 -189 218 -192 224 -190 b 150 -278 215 -235 189 -265 z "},"ĸ":{"ha":615,"x_min":0,"x_max":0,"o":"m 314 446 l 422 0 l 525 0 l 396 504 l 649 794 l 535 794 l 185 394 l 181 388 l 188 419 l 253 794 l 158 794 l 19 0 l 114 0 l 161 272 l 314 447 z "},"ĺ":{"ha":275,"x_min":0,"x_max":0,"o":"m 19 0 l 117 0 l 297 1032 l 200 1032 z m 226 1119 l 304 1119 l 510 1338 l 403 1338 z "},"ľ":{"ha":275,"x_min":0,"x_max":0,"o":"m 19 0 l 117 0 l 297 1032 l 200 1032 z m 356 906 l 422 906 l 525 1111 l 438 1111 z "},"ļ":{"ha":275,"x_min":0,"x_max":0,"o":"m 19 0 l 117 0 l 297 1032 l 200 1032 z m -42 -349 b 110 -174 42 -329 93 -262 b 60 -79 121 -104 108 -79 b -17 -147 17 -79 -7 -99 b 25 -210 -25 -199 -10 -210 b 42 -207 31 -210 36 -208 b -37 -296 28 -253 1 -283 z "},"ŀ":{"ha":393,"x_min":0,"x_max":0,"o":"m 19 0 l 117 0 l 297 1032 l 200 1032 z m 317 301 b 396 378 363 301 386 319 b 339 458 407 435 383 458 b 257 382 290 458 268 439 b 317 301 247 322 269 301 z "},"ł":{"ha":296,"x_min":0,"x_max":0,"o":"m 129 0 l 204 426 l 310 460 l 301 519 l 215 493 l 310 1032 l 213 1032 l 113 461 l 7 428 l 15 368 l 101 394 l 32 0 z "},"ń":{"ha":660,"x_min":0,"x_max":0,"o":"m 207 519 b 388 719 229 644 285 719 b 504 542 490 719 522 650 l 410 0 l 508 0 l 604 547 b 431 806 633 715 561 806 b 224 657 335 806 265 751 l 236 794 l 158 794 l 18 0 l 117 0 z m 383 892 l 461 892 l 667 1110 l 560 1110 z "},"ň":{"ha":660,"x_min":0,"x_max":0,"o":"m 207 519 b 388 719 229 644 285 719 b 504 542 490 719 522 650 l 410 0 l 508 0 l 604 547 b 431 806 633 715 561 806 b 224 657 335 806 265 751 l 236 794 l 158 794 l 18 0 l 117 0 z m 457 892 l 631 1092 l 542 1092 l 433 965 l 372 1092 l 285 1092 l 388 892 z "},"ņ":{"ha":660,"x_min":0,"x_max":0,"o":"m 207 519 b 388 719 229 644 285 719 b 504 542 490 719 522 650 l 410 0 l 508 0 l 604 547 b 431 806 633 715 561 806 b 224 657 335 806 265 751 l 236 794 l 158 794 l 18 0 l 117 0 z m 150 -332 b 301 -157 233 -312 285 -246 b 251 -62 313 -87 300 -62 b 175 -131 208 -62 185 -82 b 217 -193 167 -182 182 -193 b 233 -190 222 -193 228 -192 b 154 -279 219 -236 193 -267 z "},"ñ":{"ha":660,"x_min":0,"x_max":0,"o":"m 207 519 b 388 719 229 644 285 719 b 504 542 490 719 522 650 l 410 0 l 508 0 l 604 547 b 431 806 633 715 561 806 b 224 657 335 806 265 751 l 236 794 l 158 794 l 18 0 l 117 0 z m 232 894 l 301 894 b 357 969 311 949 329 969 b 526 890 413 969 443 890 b 658 1042 608 890 642 947 l 589 1042 b 531 965 578 982 563 965 b 360 1044 481 965 443 1044 b 232 894 281 1044 250 990 z "},"ŋ":{"ha":660,"x_min":0,"x_max":0,"o":"m 279 -243 b 500 -49 429 -243 472 -204 b 604 547 500 -49 599 517 b 431 806 633 715 561 806 b 224 657 335 806 265 751 l 236 794 l 158 794 l 18 0 l 117 0 l 207 519 b 388 719 229 644 285 719 b 504 542 490 719 522 650 l 403 -39 b 286 -150 386 -131 367 -150 l 251 -150 l 236 -243 z "},"ó":{"ha":650,"x_min":0,"x_max":0,"o":"m 276 -12 b 551 232 436 -12 524 75 l 600 513 b 369 807 632 692 546 807 b 97 565 221 807 125 719 l 50 293 b 276 -12 19 115 82 -12 z m 283 76 b 146 275 165 76 125 157 l 194 554 b 367 719 214 665 272 719 b 504 526 472 719 526 653 l 456 247 b 283 76 438 139 385 76 z m 374 893 l 451 893 l 657 1111 l 550 1111 z "},"ŏ":{"ha":650,"x_min":0,"x_max":0,"o":"m 276 -12 b 551 232 436 -12 524 75 l 600 513 b 369 807 632 692 546 807 b 97 565 221 807 125 719 l 50 293 b 276 -12 19 115 82 -12 z m 283 76 b 146 275 165 76 125 157 l 194 554 b 367 719 214 665 272 719 b 504 526 472 719 526 653 l 456 247 b 283 76 438 139 385 76 z m 421 890 b 636 1093 551 890 611 967 l 560 1093 b 428 961 543 1007 506 963 b 339 1093 349 963 325 1007 l 264 1093 b 421 890 243 967 289 890 z "},"ô":{"ha":650,"x_min":0,"x_max":0,"o":"m 276 -12 b 551 232 436 -12 524 75 l 600 513 b 369 807 632 692 546 807 b 97 565 221 807 125 719 l 50 293 b 276 -12 19 115 82 -12 z m 283 76 b 146 275 165 76 125 157 l 194 554 b 367 719 214 665 272 719 b 504 526 472 719 526 653 l 456 247 b 283 76 438 139 385 76 z m 504 893 l 590 893 l 486 1096 l 415 1096 l 242 893 l 332 893 l 440 1025 z "},"ö":{"ha":650,"x_min":0,"x_max":0,"o":"m 276 -12 b 551 232 436 -12 524 75 l 600 513 b 369 807 632 692 546 807 b 97 565 221 807 125 719 l 50 293 b 276 -12 19 115 82 -12 z m 283 76 b 146 275 165 76 125 157 l 194 554 b 367 719 214 665 272 719 b 504 526 472 719 526 653 l 456 247 b 283 76 438 139 385 76 z m 324 893 b 394 960 364 893 385 910 b 343 1031 403 1011 383 1031 b 272 964 300 1031 281 1014 b 324 893 263 913 282 893 z m 511 893 b 582 960 553 893 572 910 b 531 1031 590 1011 571 1031 b 460 964 489 1031 469 1014 b 511 893 450 913 469 893 z "},"œ":{"ha":1054,"x_min":0,"x_max":0,"o":"m 283 76 b 146 275 165 76 125 157 l 194 554 b 367 719 214 665 272 719 b 504 526 472 719 526 653 l 456 247 b 283 76 438 139 385 76 z m 601 542 b 781 719 622 660 681 719 b 918 518 893 719 943 650 l 906 449 l 585 449 z m 963 225 l 969 265 l 869 265 l 867 243 b 696 76 849 133 803 76 b 557 286 572 76 535 157 l 571 367 l 988 367 l 1014 513 b 797 807 1046 697 956 807 b 568 678 686 807 613 758 b 364 807 542 758 474 807 b 97 565 217 807 125 719 l 50 293 b 274 -12 19 115 79 -12 b 485 111 378 -12 443 35 b 690 -12 508 35 571 -12 b 963 225 851 -12 935 72 z "},"ò":{"ha":650,"x_min":0,"x_max":0,"o":"m 276 -12 b 551 232 436 -12 524 75 l 600 513 b 369 807 632 692 546 807 b 97 565 221 807 125 719 l 50 293 b 276 -12 19 115 82 -12 z m 283 76 b 146 275 165 76 125 157 l 194 554 b 367 719 214 665 272 719 b 504 526 472 719 526 653 l 456 247 b 283 76 438 139 385 76 z m 379 894 l 457 894 l 368 1097 l 261 1097 z "},"ő":{"ha":650,"x_min":0,"x_max":0,"o":"m 276 -12 b 551 232 436 -12 524 75 l 600 513 b 369 807 632 692 546 807 b 97 565 221 807 125 719 l 50 293 b 276 -12 19 115 82 -12 z m 283 76 b 146 275 165 76 125 157 l 194 554 b 367 719 214 665 272 719 b 504 526 472 719 526 653 l 456 247 b 283 76 438 139 385 76 z m 553 1097 l 450 1097 l 293 893 l 367 893 z m 726 1097 l 622 1097 l 458 893 l 532 893 z "},"ō":{"ha":650,"x_min":0,"x_max":0,"o":"m 276 -12 b 551 232 436 -12 524 75 l 600 513 b 369 807 632 692 546 807 b 97 565 221 807 125 719 l 50 293 b 276 -12 19 115 82 -12 z m 283 76 b 146 275 165 76 125 157 l 194 554 b 367 719 214 665 272 719 b 504 526 472 719 526 653 l 456 247 b 283 76 438 139 385 76 z m 264 908 l 569 908 l 582 986 l 276 986 z "},"ø":{"ha":650,"x_min":0,"x_max":0,"o":"m 146 275 l 194 554 b 367 719 214 665 272 719 b 435 707 393 719 415 715 l 168 124 b 146 275 142 158 135 211 z m 283 76 b 219 86 258 76 238 81 l 485 668 b 504 526 507 636 515 589 l 456 247 b 283 76 438 139 385 76 z m 276 -12 b 551 232 436 -12 524 75 l 600 513 b 528 761 619 625 593 713 l 597 908 l 529 908 l 474 790 b 369 807 444 801 408 807 b 97 565 221 807 125 719 l 50 293 b 124 28 29 175 50 79 l 53 -125 l 124 -125 l 181 0 b 276 -12 208 -8 240 -12 z "},"ǿ":{"ha":650,"x_min":0,"x_max":0,"o":"m 146 275 l 194 554 b 367 719 214 665 272 719 b 435 707 393 719 415 715 l 168 124 b 146 275 142 158 135 211 z m 283 76 b 219 86 258 76 238 81 l 485 668 b 504 526 507 636 515 589 l 456 247 b 283 76 438 139 385 76 z m 276 -12 b 551 232 436 -12 524 75 l 600 513 b 528 761 619 625 593 713 l 597 908 l 529 908 l 474 790 b 369 807 444 801 408 807 b 97 565 221 807 125 719 l 50 293 b 124 28 29 175 50 79 l 53 -125 l 124 -125 l 181 0 b 276 -12 208 -8 240 -12 z m 381 932 l 458 932 l 664 1150 l 557 1150 z "},"õ":{"ha":650,"x_min":0,"x_max":0,"o":"m 276 -12 b 551 232 436 -12 524 75 l 600 513 b 369 807 632 692 546 807 b 97 565 221 807 125 719 l 50 293 b 276 -12 19 115 82 -12 z m 283 76 b 146 275 165 76 125 157 l 194 554 b 367 719 214 665 272 719 b 504 526 472 719 526 653 l 456 247 b 283 76 438 139 385 76 z m 213 897 l 282 897 b 338 972 292 951 310 972 b 507 893 393 972 424 893 b 639 1044 589 893 622 950 l 569 1044 b 511 968 558 985 543 968 b 340 1047 461 968 424 1047 b 213 897 261 1047 231 993 z "},"ŕ":{"ha":426,"x_min":0,"x_max":0,"o":"m 115 0 l 199 476 b 410 693 225 629 274 693 l 450 693 l 469 799 l 442 799 b 221 639 322 799 260 757 l 233 794 l 158 794 l 18 0 z m 272 874 l 350 874 l 556 1092 l 449 1092 z "},"ř":{"ha":426,"x_min":0,"x_max":0,"o":"m 115 0 l 199 476 b 410 693 225 629 274 693 l 450 693 l 469 799 l 442 799 b 221 639 322 799 260 757 l 233 794 l 158 794 l 18 0 z m 346 874 l 519 1074 l 431 1074 l 322 947 l 261 1074 l 174 1074 l 276 874 z "},"ŗ":{"ha":426,"x_min":0,"x_max":0,"o":"m 115 0 l 199 476 b 410 693 225 629 274 693 l 450 693 l 469 799 l 442 799 b 221 639 322 799 260 757 l 233 794 l 158 794 l 18 0 z m -50 -349 b 101 -174 33 -329 85 -262 b 51 -79 113 -104 100 -79 b -25 -147 8 -79 -15 -99 b 17 -210 -33 -199 -18 -210 b 33 -207 22 -210 28 -208 b -46 -296 19 -253 -7 -283 z "},"ś":{"ha":592,"x_min":0,"x_max":0,"o":"m 249 -12 b 508 189 394 -12 483 50 l 508 196 b 344 440 535 343 438 394 b 199 617 261 483 182 519 l 200 622 b 343 726 211 686 261 726 b 465 583 436 726 481 676 l 458 543 l 554 543 l 561 581 b 347 810 585 718 507 810 b 106 631 218 810 126 746 l 103 619 b 265 378 78 475 172 425 b 413 199 349 335 429 297 l 411 193 b 260 75 399 121 356 75 b 122 225 158 75 106 128 l 132 283 l 31 283 l 22 236 b 249 -12 -8 82 79 -12 z m 342 894 l 419 894 l 625 1113 l 518 1113 z "},"š":{"ha":592,"x_min":0,"x_max":0,"o":"m 249 -12 b 508 189 394 -12 483 50 l 508 196 b 344 440 535 343 438 394 b 199 617 261 483 182 519 l 200 622 b 343 726 211 686 261 726 b 465 583 436 726 481 676 l 458 543 l 554 543 l 561 581 b 347 810 585 718 507 810 b 106 631 218 810 126 746 l 103 619 b 265 378 78 475 172 425 b 413 199 349 335 429 297 l 411 193 b 260 75 399 121 356 75 b 122 225 158 75 106 128 l 132 283 l 31 283 l 22 236 b 249 -12 -8 82 79 -12 z m 415 894 l 589 1094 l 500 1094 l 392 968 l 331 1094 l 243 1094 l 346 894 z "},"ş":{"ha":592,"x_min":0,"x_max":0,"o":"m 196 -317 b 369 -203 296 -317 357 -272 b 257 -81 382 -126 343 -82 l 268 -12 b 508 189 403 -7 485 57 l 508 196 b 344 440 535 343 438 394 b 199 617 261 483 182 519 l 200 622 b 343 726 211 686 261 726 b 465 583 436 726 481 676 l 458 543 l 554 543 l 561 581 b 347 810 585 718 507 810 b 106 631 218 810 126 746 l 103 619 b 265 378 78 475 172 425 b 413 199 349 335 429 297 l 411 193 b 260 75 399 121 356 75 b 122 225 158 75 106 128 l 132 283 l 31 283 l 22 236 b 196 -10 -6 99 61 10 l 172 -139 l 214 -139 b 290 -197 275 -139 299 -158 b 200 -251 285 -232 253 -251 b 124 -185 150 -251 121 -229 l 36 -185 b 196 -317 38 -269 81 -317 z "},"ŝ":{"ha":592,"x_min":0,"x_max":0,"o":"m 249 -12 b 508 189 394 -12 483 50 l 508 196 b 344 440 535 343 438 394 b 199 617 261 483 182 519 l 200 622 b 343 726 211 686 261 726 b 465 583 436 726 481 676 l 458 543 l 554 543 l 561 581 b 347 810 585 718 507 810 b 106 631 218 810 126 746 l 103 619 b 265 378 78 475 172 425 b 413 199 349 335 429 297 l 411 193 b 260 75 399 121 356 75 b 122 225 158 75 106 128 l 132 283 l 31 283 l 22 236 b 249 -12 -8 82 79 -12 z m 472 894 l 558 894 l 454 1097 l 383 1097 l 210 894 l 300 894 l 408 1026 z "},"ș":{"ha":592,"x_min":0,"x_max":0,"o":"m 249 -12 b 508 189 394 -12 483 50 l 508 196 b 344 440 535 343 438 394 b 199 617 261 483 182 519 l 200 622 b 343 726 211 686 261 726 b 465 583 436 726 481 676 l 458 543 l 554 543 l 561 581 b 347 810 585 718 507 810 b 106 631 218 810 126 746 l 103 619 b 265 378 78 475 172 425 b 413 199 349 335 429 297 l 411 193 b 260 75 399 121 356 75 b 122 225 158 75 106 128 l 132 283 l 31 283 l 22 236 b 249 -12 -8 82 79 -12 z m 111 -357 b 263 -182 194 -337 246 -271 b 213 -87 274 -112 261 -87 b 136 -156 169 -87 146 -107 b 178 -218 128 -207 143 -218 b 194 -215 183 -218 189 -217 b 115 -304 181 -261 154 -292 z "},"ŧ":{"ha":417,"x_min":0,"x_max":0,"o":"m 325 94 l 294 94 b 197 244 196 94 175 115 l 219 371 l 329 371 l 343 450 l 233 450 l 279 704 l 433 704 l 449 794 l 296 794 l 324 954 l 250 954 b 221 847 242 924 231 867 b 165 796 208 811 196 801 b 92 789 151 790 110 789 l 76 704 l 188 704 l 142 450 l 63 450 l 49 371 l 128 371 l 104 236 b 258 0 71 47 108 0 l 310 0 z "},"ť":{"ha":417,"x_min":0,"x_max":0,"o":"m 325 94 l 294 94 b 197 244 196 94 175 115 l 279 704 l 433 704 l 449 794 l 296 794 l 324 954 l 250 954 b 221 847 242 924 231 867 b 165 796 208 811 196 801 b 92 789 151 790 110 789 l 76 704 l 188 704 l 104 236 b 258 0 71 47 108 0 l 310 0 z m 400 901 l 467 901 l 569 1107 l 482 1107 z "},"ţ":{"ha":417,"x_min":0,"x_max":0,"o":"m 325 94 l 294 94 b 197 244 196 94 175 115 l 279 704 l 433 704 l 449 794 l 296 794 l 324 954 l 250 954 b 221 847 242 924 231 867 b 165 796 208 811 196 801 b 92 789 151 790 110 789 l 76 704 l 188 704 l 104 236 b 258 0 71 47 108 0 l 310 0 z m 74 -346 b 225 -171 157 -326 208 -260 b 175 -76 236 -101 224 -76 b 99 -144 132 -76 108 -96 b 140 -207 90 -196 106 -207 b 157 -204 146 -207 151 -206 b 78 -293 143 -250 117 -281 z "},"ú":{"ha":644,"x_min":0,"x_max":0,"o":"m 408 0 l 486 0 l 626 794 l 528 794 l 436 275 b 264 75 414 147 360 75 b 157 256 168 75 138 144 l 251 794 l 153 794 l 60 260 b 226 -11 28 82 85 -11 b 421 139 319 -11 382 42 z m 358 869 l 436 869 l 642 1088 l 535 1088 z "},"ŭ":{"ha":644,"x_min":0,"x_max":0,"o":"m 408 0 l 486 0 l 626 794 l 528 794 l 436 275 b 264 75 414 147 360 75 b 157 256 168 75 138 144 l 251 794 l 153 794 l 60 260 b 226 -11 28 82 85 -11 b 421 139 319 -11 382 42 z m 411 872 b 626 1075 542 872 601 949 l 550 1075 b 418 943 533 989 496 944 b 329 1075 339 944 315 989 l 254 1075 b 411 872 233 949 279 872 z "},"û":{"ha":644,"x_min":0,"x_max":0,"o":"m 408 0 l 486 0 l 626 794 l 528 794 l 436 275 b 264 75 414 147 360 75 b 157 256 168 75 138 144 l 251 794 l 153 794 l 60 260 b 226 -11 28 82 85 -11 b 421 139 319 -11 382 42 z m 492 875 l 578 875 l 474 1078 l 403 1078 l 229 875 l 319 875 l 428 1007 z "},"ü":{"ha":644,"x_min":0,"x_max":0,"o":"m 408 0 l 486 0 l 626 794 l 528 794 l 436 275 b 264 75 414 147 360 75 b 157 256 168 75 138 144 l 251 794 l 153 794 l 60 260 b 226 -11 28 82 85 -11 b 421 139 319 -11 382 42 z m 310 875 b 381 942 350 875 371 892 b 329 1013 389 993 369 1013 b 258 946 286 1013 267 996 b 310 875 249 894 268 875 z m 497 875 b 568 942 539 875 558 892 b 517 1013 576 993 557 1013 b 446 946 475 1013 456 996 b 497 875 436 894 456 875 z "},"ù":{"ha":644,"x_min":0,"x_max":0,"o":"m 408 0 l 486 0 l 626 794 l 528 794 l 436 275 b 264 75 414 147 360 75 b 157 256 168 75 138 144 l 251 794 l 153 794 l 60 260 b 226 -11 28 82 85 -11 b 421 139 319 -11 382 42 z m 365 869 l 443 869 l 354 1072 l 247 1072 z "},"ű":{"ha":644,"x_min":0,"x_max":0,"o":"m 408 0 l 486 0 l 626 794 l 528 794 l 436 275 b 264 75 414 147 360 75 b 157 256 168 75 138 144 l 251 794 l 153 794 l 60 260 b 226 -11 28 82 85 -11 b 421 139 319 -11 382 42 z m 536 1079 l 433 1079 l 276 875 l 350 875 z m 710 1079 l 606 1079 l 442 875 l 515 875 z "},"ū":{"ha":644,"x_min":0,"x_max":0,"o":"m 408 0 l 486 0 l 626 794 l 528 794 l 436 275 b 264 75 414 147 360 75 b 157 256 168 75 138 144 l 251 794 l 153 794 l 60 260 b 226 -11 28 82 85 -11 b 421 139 319 -11 382 42 z m 251 890 l 557 890 l 569 968 l 264 968 z "},"ų":{"ha":644,"x_min":0,"x_max":0,"o":"m 576 -136 l 486 -136 b 397 -194 469 -174 440 -194 b 336 -135 353 -194 329 -171 b 486 0 343 -93 381 -64 l 626 794 l 528 794 l 436 275 b 264 75 414 147 360 75 b 157 256 168 75 138 144 l 251 794 l 153 794 l 60 260 b 226 -11 28 82 85 -11 b 421 139 319 -11 382 42 l 411 25 b 258 -128 317 -26 269 -69 b 386 -261 244 -203 289 -261 b 576 -136 478 -261 538 -221 z "},"ů":{"ha":644,"x_min":0,"x_max":0,"o":"m 408 0 l 486 0 l 626 794 l 528 794 l 436 275 b 264 75 414 147 360 75 b 157 256 168 75 138 144 l 251 794 l 153 794 l 60 260 b 226 -11 28 82 85 -11 b 421 139 319 -11 382 42 z m 415 874 b 565 997 492 874 551 917 b 440 1140 579 1075 528 1140 b 290 1019 367 1140 304 1094 b 415 874 275 938 325 874 z m 419 943 b 364 1011 381 943 357 974 b 435 1072 369 1051 399 1072 b 492 1004 475 1072 499 1043 b 419 943 483 964 458 943 z "},"ũ":{"ha":644,"x_min":0,"x_max":0,"o":"m 408 0 l 486 0 l 626 794 l 528 794 l 436 275 b 264 75 414 147 360 75 b 157 256 168 75 138 144 l 251 794 l 153 794 l 60 260 b 226 -11 28 82 85 -11 b 421 139 319 -11 382 42 z m 211 882 l 281 882 b 336 957 290 936 308 957 b 506 878 392 957 422 878 b 638 1029 588 878 621 935 l 568 1029 b 510 953 557 969 542 953 b 339 1032 460 953 422 1032 b 211 882 260 1032 229 978 z "},"ẃ":{"ha":878,"x_min":0,"x_max":0,"o":"m 450 560 l 483 678 l 476 563 l 511 0 l 604 0 l 918 794 l 822 794 l 604 221 l 567 99 l 572 222 l 535 794 l 472 794 l 225 224 l 185 104 l 194 221 l 193 794 l 99 794 l 110 0 l 206 0 z m 475 883 l 553 883 l 758 1101 l 651 1101 z "},"ŵ":{"ha":878,"x_min":0,"x_max":0,"o":"m 450 560 l 483 678 l 476 563 l 511 0 l 604 0 l 918 794 l 822 794 l 604 221 l 567 99 l 572 222 l 535 794 l 472 794 l 225 224 l 185 104 l 194 221 l 193 794 l 99 794 l 110 0 l 206 0 z m 606 883 l 692 883 l 588 1086 l 517 1086 l 343 883 l 433 883 l 542 1015 z "},"ẅ":{"ha":878,"x_min":0,"x_max":0,"o":"m 450 560 l 483 678 l 476 563 l 511 0 l 604 0 l 918 794 l 822 794 l 604 221 l 567 99 l 572 222 l 535 794 l 472 794 l 225 224 l 185 104 l 194 221 l 193 794 l 99 794 l 110 0 l 206 0 z m 424 883 b 494 950 464 883 485 900 b 443 1021 503 1001 483 1021 b 372 954 400 1021 381 1004 b 424 883 363 903 382 883 z m 611 883 b 682 950 653 883 672 900 b 631 1021 690 1001 671 1021 b 560 954 589 1021 569 1004 b 611 883 550 903 569 883 z "},"ẁ":{"ha":878,"x_min":0,"x_max":0,"o":"m 450 560 l 483 678 l 476 563 l 511 0 l 604 0 l 918 794 l 822 794 l 604 221 l 567 99 l 572 222 l 535 794 l 472 794 l 225 224 l 185 104 l 194 221 l 193 794 l 99 794 l 110 0 l 206 0 z m 479 883 l 557 883 l 468 1086 l 361 1086 z "},"ý":{"ha":607,"x_min":0,"x_max":0,"o":"m 6 -226 b 263 -43 149 -226 193 -196 l 650 794 l 549 794 l 288 210 l 254 100 l 258 207 l 199 794 l 100 794 l 193 11 l 175 -31 b 15 -135 131 -121 104 -135 l -32 -135 l -49 -226 z m 338 869 l 415 869 l 621 1088 l 514 1088 z "},"ŷ":{"ha":607,"x_min":0,"x_max":0,"o":"m 6 -226 b 263 -43 149 -226 193 -196 l 650 794 l 549 794 l 288 210 l 254 100 l 258 207 l 199 794 l 100 794 l 193 11 l 175 -31 b 15 -135 131 -121 104 -135 l -32 -135 l -49 -226 z m 469 875 l 556 875 l 451 1078 l 381 1078 l 207 875 l 297 875 l 406 1007 z "},"ÿ":{"ha":607,"x_min":0,"x_max":0,"o":"m 6 -226 b 263 -43 149 -226 193 -196 l 650 794 l 549 794 l 288 210 l 254 100 l 258 207 l 199 794 l 100 794 l 193 11 l 175 -31 b 15 -135 131 -121 104 -135 l -32 -135 l -49 -226 z m 289 875 b 360 942 329 875 350 892 b 308 1013 368 993 349 1013 b 238 946 265 1013 246 996 b 289 875 228 894 247 875 z m 476 875 b 547 942 518 875 538 892 b 496 1013 556 993 536 1013 b 425 946 454 1013 435 996 b 476 875 415 894 435 875 z "},"ỳ":{"ha":607,"x_min":0,"x_max":0,"o":"m 6 -226 b 263 -43 149 -226 193 -196 l 650 794 l 549 794 l 288 210 l 254 100 l 258 207 l 199 794 l 100 794 l 193 11 l 175 -31 b 15 -135 131 -121 104 -135 l -32 -135 l -49 -226 z m 344 868 l 422 868 l 333 1071 l 226 1071 z "},"ĳ":{"ha":546,"x_min":0,"x_max":0,"o":"m 501 878 b 578 953 547 878 568 896 b 524 1029 589 1008 571 1029 b 446 956 478 1029 457 1013 b 501 878 436 899 453 878 z m 228 878 b 304 953 272 878 293 896 b 250 1029 314 1008 296 1029 b 172 956 204 1029 183 1013 b 228 878 163 899 179 878 z m 161 -235 b 381 -37 308 -235 353 -192 l 526 796 l 431 796 l 286 -28 b 169 -142 269 -122 249 -142 l -6 -142 l -22 -235 z m 117 0 l 257 794 l 158 794 l 19 0 z "},"ź":{"ha":539,"x_min":0,"x_max":0,"o":"m -28 -1 l 428 0 l 443 90 l 108 90 l 553 713 l 567 794 l 133 794 l 118 706 l 439 706 l -14 76 z m 326 883 l 404 883 l 610 1101 l 503 1101 z "},"ž":{"ha":539,"x_min":0,"x_max":0,"o":"m -28 -1 l 428 0 l 443 90 l 108 90 l 553 713 l 567 794 l 133 794 l 118 706 l 439 706 l -14 76 z m 399 883 l 572 1083 l 483 1083 l 375 957 l 314 1083 l 226 1083 l 329 883 z "},"ż":{"ha":539,"x_min":0,"x_max":0,"o":"m -28 -1 l 428 0 l 443 90 l 108 90 l 553 713 l 567 794 l 133 794 l 118 706 l 439 706 l -14 76 z m 367 881 b 446 957 413 881 436 899 b 389 1038 457 1014 433 1038 b 307 961 340 1038 318 1018 b 367 881 297 901 319 881 z "},"þ":{"ha":671,"x_min":0,"x_max":0,"o":"m 304 78 b 163 288 181 78 140 161 l 207 535 b 385 721 226 649 286 721 b 519 504 492 721 546 649 l 479 272 b 304 78 457 149 404 78 z m 322 -11 b 578 268 463 -11 547 88 l 619 504 b 422 807 656 700 568 807 b 235 689 335 807 274 763 l 294 1032 l 200 1032 l -29 -268 l 65 -268 l 138 136 b 322 -11 149 42 208 -11 z "},"ª":{"ha":489,"x_min":0,"x_max":0,"o":"m 249 497 b 176 583 192 497 167 531 b 219 658 182 618 197 640 b 311 699 240 675 267 685 b 401 747 363 714 388 725 l 381 636 b 374 607 379 626 376 617 b 249 497 353 538 307 497 z m 472 433 l 494 433 l 511 515 l 506 515 b 457 596 456 515 442 526 l 500 829 b 338 1001 521 944 454 1001 b 133 843 226 1001 153 944 l 125 796 l 217 796 l 224 836 b 333 925 235 901 271 925 b 418 844 403 925 428 893 b 288 754 410 796 368 778 b 142 692 219 735 175 719 b 79 586 110 668 88 636 l 78 582 b 200 426 58 488 104 426 b 363 515 268 426 326 449 b 472 433 368 457 408 433 z "},"º":{"ha":488,"x_min":0,"x_max":0,"o":"m 264 426 b 464 597 381 426 444 488 l 499 796 b 331 1001 521 921 457 1001 b 133 832 224 1001 153 940 l 100 642 b 264 426 78 517 125 426 z m 272 508 b 186 636 199 508 174 560 l 218 818 b 329 922 231 889 267 922 b 414 799 396 922 429 879 l 382 618 b 272 508 371 549 338 508 z "},"&":{"ha":822,"x_min":0,"x_max":0,"o":"m 351 782 l 354 792 b 474 921 369 874 408 921 b 561 815 538 921 571 879 l 560 811 b 350 575 542 708 464 644 b 351 782 339 650 340 718 z m 274 72 b 115 250 156 72 96 144 l 115 256 b 286 457 135 353 194 400 b 326 326 297 415 311 371 b 432 113 358 239 393 167 b 274 72 385 86 332 72 z m 631 -11 b 718 15 669 -11 696 -4 l 735 107 b 649 75 710 85 686 75 b 560 110 619 75 590 86 b 792 603 674 217 757 386 l 800 646 l 710 646 l 703 603 b 506 167 671 415 606 260 b 407 360 471 213 436 278 b 365 497 389 408 375 453 b 644 799 514 586 621 665 l 646 807 b 481 999 665 919 597 999 b 267 792 365 999 290 922 l 264 781 b 269 536 250 704 253 624 b 21 263 142 461 43 389 l 19 258 b 264 -14 -8 90 86 -14 b 485 51 342 -14 417 8 b 631 -11 529 10 578 -11 z "},"´":{"ha":568,"x_min":0,"x_max":0,"o":"m 303 886 l 381 886 l 586 1104 l 479 1104 z "},"˘":{"ha":568,"x_min":0,"x_max":0,"o":"m 375 883 b 590 1086 506 883 565 960 l 514 1086 b 382 954 497 1000 460 956 b 293 1086 303 956 279 1000 l 218 1086 b 375 883 197 960 243 883 z "},"ˇ":{"ha":568,"x_min":0,"x_max":0,"o":"m 404 886 l 578 1086 l 489 1086 l 381 960 l 319 1086 l 232 1086 l 335 886 z "},"¸":{"ha":568,"x_min":0,"x_max":0,"o":"m 167 -301 b 340 -187 267 -301 328 -257 b 228 -65 353 -111 314 -67 l 240 8 l 167 8 l 143 -124 l 185 -124 b 261 -182 246 -124 269 -143 b 171 -236 256 -217 224 -236 b 94 -169 121 -236 92 -214 l 7 -169 b 167 -301 8 -254 51 -301 z "},"ˆ":{"ha":568,"x_min":0,"x_max":0,"o":"m 458 886 l 544 886 l 440 1089 l 369 1089 l 196 886 l 286 886 l 394 1018 z "},"¨":{"ha":572,"x_min":0,"x_max":0,"o":"m 278 886 b 349 953 318 886 339 903 b 297 1024 357 1004 338 1024 b 226 957 254 1024 235 1007 b 278 886 217 906 236 886 z m 465 886 b 536 953 507 886 526 903 b 485 1024 544 1004 525 1024 b 414 957 443 1024 424 1007 b 465 886 404 906 424 886 z "},"˙":{"ha":571,"x_min":0,"x_max":0,"o":"m 364 883 b 443 960 410 883 433 901 b 386 1040 454 1017 431 1040 b 304 964 338 1040 315 1021 b 364 883 294 904 317 883 z "},"`":{"ha":568,"x_min":0,"x_max":0,"o":"m 382 886 l 460 886 l 371 1089 l 264 1089 z "},"˝":{"ha":568,"x_min":0,"x_max":0,"o":"m 451 1090 l 349 1090 l 192 886 l 265 886 z m 625 1090 l 521 1090 l 357 886 l 431 886 z "},"¯":{"ha":568,"x_min":0,"x_max":0,"o":"m 221 901 l 526 901 l 539 979 l 233 979 z "},"˛":{"ha":568,"x_min":0,"x_max":0,"o":"m 171 -261 b 361 -136 263 -261 322 -221 l 271 -136 b 182 -194 254 -174 225 -194 b 121 -135 138 -194 114 -171 b 271 0 128 -93 165 -64 l 217 36 b 43 -128 108 -19 56 -65 b 171 -261 29 -203 74 -261 z "},"˚":{"ha":568,"x_min":0,"x_max":0,"o":"m 379 889 b 529 1013 456 889 515 932 b 404 1156 543 1090 492 1156 b 254 1035 331 1156 268 1110 b 379 889 239 953 289 889 z m 383 958 b 328 1026 344 958 321 989 b 399 1088 333 1067 363 1088 b 456 1019 439 1088 463 1058 b 383 958 447 979 422 958 z "},"˜":{"ha":568,"x_min":0,"x_max":0,"o":"m 172 889 l 242 889 b 297 964 251 943 269 964 b 467 885 353 964 383 885 b 599 1036 549 885 582 942 l 529 1036 b 471 960 518 976 503 960 b 300 1039 421 960 383 1039 b 172 889 221 1039 190 985 z "},".":{"ha":339,"x_min":0,"x_max":0,"o":"m 101 -11 b 185 68 150 -11 174 7 b 126 153 196 126 175 153 b 42 74 75 153 51 132 b 101 -11 31 13 51 -11 z "},",":{"ha":339,"x_min":0,"x_max":0,"o":"m 8 -164 b 181 39 104 -137 163 -65 b 125 147 197 119 176 147 b 42 67 76 147 51 125 b 86 -8 32 11 51 -8 b 107 -4 93 -8 100 -7 b 11 -108 92 -57 57 -92 z "},":":{"ha":346,"x_min":0,"x_max":0,"o":"m 200 529 b 283 608 249 529 272 549 b 224 694 294 668 274 694 b 139 614 172 694 149 672 b 200 529 128 553 150 529 z m 115 50 b 199 129 164 50 188 69 b 139 215 210 189 189 215 b 54 135 89 215 65 193 b 115 50 43 74 65 50 z "},";":{"ha":346,"x_min":0,"x_max":0,"o":"m 200 529 b 283 608 249 529 272 549 b 224 694 294 668 274 694 b 139 614 172 694 149 672 b 200 529 128 553 150 529 z m 11 -164 b 185 39 107 -137 167 -65 b 129 147 201 119 181 147 b 46 67 79 147 56 125 b 90 -8 35 11 56 -8 b 111 -4 97 -8 104 -7 b 15 -108 94 -57 61 -92 z "},"…":{"ha":818,"x_min":0,"x_max":0,"o":"m 581 -11 b 661 68 631 -11 651 7 b 606 153 674 126 656 153 b 524 74 554 153 533 132 b 581 -11 513 13 532 -11 z m 342 -11 b 422 68 390 -11 411 7 b 365 153 433 126 415 153 b 283 74 315 153 294 132 b 342 -11 272 13 292 -11 z m 99 -11 b 179 68 149 -11 169 7 b 124 153 192 126 174 153 b 42 74 72 153 51 132 b 99 -11 31 13 50 -11 z "},"!":{"ha":356,"x_min":0,"x_max":0,"o":"m 110 222 b 146 226 117 224 132 226 b 181 222 160 226 174 224 b 296 779 190 251 258 568 l 332 988 l 228 988 l 192 779 b 110 222 154 568 111 251 z m 107 -11 b 190 68 156 -11 179 7 b 131 153 201 126 181 153 b 46 74 81 153 57 132 b 107 -11 35 13 57 -11 z "},"¡":{"ha":356,"x_min":0,"x_max":0,"o":"m 225 654 b 308 733 275 654 299 674 b 249 818 319 792 299 818 b 165 739 199 818 175 797 b 225 654 153 678 175 654 z m 22 -185 l 126 -185 l 164 26 b 244 583 200 238 243 556 b 208 579 238 582 224 579 b 174 583 193 579 181 582 b 60 26 164 556 96 238 z "},"?":{"ha":654,"x_min":0,"x_max":0,"o":"m 331 218 l 346 297 b 478 468 363 392 419 429 b 628 682 542 513 607 558 l 640 751 b 419 997 663 894 589 997 b 146 776 261 997 172 919 l 118 625 l 222 625 l 246 760 b 413 908 263 856 311 908 b 540 761 524 908 553 838 l 528 690 b 404 532 513 606 461 571 b 250 317 342 489 275 442 l 242 274 b 233 218 238 258 235 225 b 285 226 240 224 263 226 b 331 218 306 226 325 224 z m 246 -11 b 329 69 294 -11 318 8 b 269 153 340 126 319 153 b 186 72 219 153 196 131 b 246 -11 175 11 196 -11 z "},"¿":{"ha":654,"x_min":0,"x_max":0,"o":"m 408 785 b 325 704 358 785 336 765 b 383 621 314 647 333 621 b 468 701 435 621 457 643 b 408 785 479 763 458 785 z m 324 556 l 308 476 b 176 306 290 382 235 344 b 25 92 113 261 46 215 l 13 22 b 233 -224 -10 -121 64 -224 b 508 -3 393 -224 482 -146 l 535 149 l 432 149 l 408 14 b 242 -135 392 -82 343 -135 b 114 13 131 -135 100 -64 l 126 83 b 250 242 140 168 193 203 b 404 457 311 285 379 332 l 413 500 b 421 556 417 515 419 549 b 369 547 413 550 390 547 b 324 556 349 547 329 550 z "},"‽":{"ha":679,"x_min":0,"x_max":0,"o":"m 446 779 l 469 915 b 565 771 551 900 576 844 l 551 693 b 432 514 533 589 483 571 b 378 446 413 497 394 476 b 446 779 403 553 428 683 z m 306 225 b 342 221 321 225 335 224 l 354 288 b 492 471 371 381 431 424 b 647 697 557 521 626 574 l 658 758 b 428 1000 681 906 594 1000 b 147 774 264 1000 174 921 l 119 621 l 215 621 l 240 761 b 382 917 256 854 297 906 l 358 779 b 278 304 331 619 294 413 b 268 219 271 257 269 232 b 306 225 275 224 290 225 z m 268 -11 b 351 69 317 -11 340 8 b 292 153 363 126 342 153 b 208 72 242 153 218 131 b 268 -11 197 11 218 -11 z "},"⸘":{"ha":679,"x_min":0,"x_max":0,"o":"m 407 782 b 324 701 358 782 335 761 b 383 617 313 643 333 617 b 467 697 433 617 457 639 b 407 782 478 758 457 782 z m 247 -229 b 528 -4 411 -229 501 -151 l 556 150 l 460 150 l 435 8 b 293 -147 419 -83 376 -136 l 317 -8 b 397 465 344 151 381 357 b 407 550 404 514 406 538 b 369 544 400 547 385 544 b 333 550 354 544 340 547 l 321 482 b 183 300 304 389 244 346 b 28 72 118 250 49 196 l 17 11 b 247 -229 -6 -136 81 -229 z m 110 -1 l 124 76 b 243 256 142 181 192 199 b 299 324 263 274 281 294 b 229 -10 272 217 247 86 l 206 -146 b 110 -1 124 -131 99 -75 z "},"‘":{"ha":318,"x_min":0,"x_max":0,"o":"m 215 708 b 294 785 261 708 285 731 b 253 854 304 838 285 854 b 232 850 246 854 239 853 b 321 950 246 900 278 932 l 322 1001 b 163 810 235 975 181 908 b 215 708 147 735 168 708 z "},"’":{"ha":318,"x_min":0,"x_max":0,"o":"m 157 707 b 317 899 244 733 299 800 b 264 1000 332 975 311 1000 b 185 924 218 1000 194 978 b 226 854 175 872 194 854 b 247 858 233 854 240 856 b 158 758 233 808 201 776 z "},"“":{"ha":524,"x_min":0,"x_max":0,"o":"m 421 708 b 500 785 467 708 490 731 b 458 854 510 838 490 854 b 438 850 451 854 444 853 b 526 950 451 900 483 932 l 528 1001 b 368 810 440 975 386 908 b 421 708 353 735 374 708 z m 215 708 b 294 785 261 708 285 731 b 253 854 304 838 285 854 b 232 850 246 854 239 853 b 321 950 246 900 278 932 l 322 1001 b 163 810 235 975 181 908 b 215 708 147 735 168 708 z "},"”":{"ha":524,"x_min":0,"x_max":0,"o":"m 157 707 b 317 899 244 733 299 800 b 264 1000 332 975 311 1000 b 185 924 218 1000 194 978 b 226 854 175 872 194 854 b 247 858 233 854 240 856 b 158 758 233 808 201 776 z m 363 707 b 522 899 450 733 504 800 b 469 1000 538 975 517 1000 b 390 924 424 1000 400 978 b 432 854 381 872 400 854 b 453 858 439 854 446 856 b 364 758 439 808 407 776 z "},"‚":{"ha":328,"x_min":0,"x_max":0,"o":"m 10 -151 b 168 40 97 -124 151 -58 b 117 142 183 117 164 142 b 38 65 69 142 47 121 b 79 -3 28 14 47 -3 b 100 1 86 -3 93 -1 b 11 -99 86 -50 54 -82 z "},"„":{"ha":525,"x_min":0,"x_max":0,"o":"m 213 -151 b 372 40 300 -124 354 -58 b 319 142 388 117 367 142 b 240 65 274 142 250 121 b 282 -3 231 14 250 -3 b 303 1 289 -3 296 -1 b 214 -99 289 -50 257 -82 z m 6 -151 b 165 40 93 -124 147 -58 b 113 142 181 117 160 142 b 33 65 67 142 43 121 b 75 -3 24 14 43 -3 b 96 1 82 -3 89 -1 b 7 -99 82 -50 50 -82 z "},"‛":{"ha":318,"x_min":0,"x_max":0,"o":"m 283 756 b 229 860 242 769 224 801 b 251 854 235 856 243 854 b 318 919 288 854 308 861 b 265 1000 328 976 311 1000 b 178 894 215 1000 192 975 b 268 707 161 799 193 725 z "},"‟":{"ha":524,"x_min":0,"x_max":0,"o":"m 283 756 b 229 860 242 769 224 801 b 251 854 235 856 243 854 b 318 919 288 854 308 861 b 265 1000 328 976 311 1000 b 178 894 215 1000 192 975 b 268 707 161 799 193 725 z m 489 756 b 435 860 447 769 429 801 b 457 854 440 856 449 854 b 524 919 493 854 514 861 b 471 1000 533 976 517 1000 b 383 894 421 1000 397 975 b 474 707 367 799 399 725 z "},"‹":{"ha":424,"x_min":0,"x_max":0,"o":"m 308 151 l 172 408 l 403 685 l 303 685 l 86 419 l 83 407 l 215 151 z "},"›":{"ha":424,"x_min":0,"x_max":0,"o":"m 125 151 l 344 414 l 347 425 l 218 685 l 126 685 l 257 426 l 25 151 z "},"«":{"ha":654,"x_min":0,"x_max":0,"o":"m 546 151 l 406 408 l 639 686 l 542 686 l 321 418 l 318 406 l 454 151 z m 308 151 l 171 415 l 396 686 l 300 686 l 85 425 l 83 414 l 215 151 z "},"»":{"ha":654,"x_min":0,"x_max":0,"o":"m 121 151 l 344 415 l 346 428 l 214 686 l 122 686 l 258 426 l 22 151 z m 364 151 l 579 408 l 581 419 l 450 686 l 358 686 l 493 419 l 267 151 z "},"/":{"ha":408,"x_min":0,"x_max":0,"o":"m -29 0 l 74 0 l 474 988 l 372 988 z "},"\\":{"ha":408,"x_min":0,"x_max":0,"o":"m 146 988 l 197 0 l 297 0 l 246 988 z "},"|":{"ha":292,"x_min":0,"x_max":0,"o":"m 103 -125 l 318 1099 l 219 1099 l 4 -125 z "},"‖":{"ha":543,"x_min":0,"x_max":0,"o":"m 256 -125 l 354 -125 l 569 1099 l 471 1099 z m 4 -125 l 103 -125 l 318 1099 l 219 1099 z "},"¦":{"ha":292,"x_min":0,"x_max":0,"o":"m 125 560 l 224 560 l 318 1099 l 219 1099 z m 103 438 l 4 -125 l 103 -125 l 201 438 z "},"•":{"ha":364,"x_min":0,"x_max":0,"o":"m 171 310 b 275 397 228 310 263 332 b 196 493 288 464 253 493 b 90 404 139 493 103 468 b 171 310 78 336 113 310 z "},"·":{"ha":340,"x_min":0,"x_max":0,"o":"m 163 335 b 246 415 213 335 236 354 b 188 500 257 474 236 500 b 103 419 136 500 113 478 b 163 335 92 357 113 335 z "},"-":{"ha":568,"x_min":0,"x_max":0,"o":"m 67 369 l 493 369 l 510 467 l 83 467 z "},"­":{"ha":568,"x_min":0,"x_max":0,"o":"m 67 369 l 493 369 l 510 467 l 83 467 z "},"–":{"ha":550,"x_min":0,"x_max":0,"o":"m 67 369 l 472 369 l 489 467 l 83 467 z "},"—":{"ha":732,"x_min":0,"x_max":0,"o":"m 67 369 l 656 369 l 672 467 l 83 467 z "},"‒":{"ha":717,"x_min":0,"x_max":0,"o":"m 67 369 l 639 369 l 656 467 l 83 467 z "},"―":{"ha":960,"x_min":0,"x_max":0,"o":"m 67 369 l 882 369 l 899 467 l 83 467 z "},"(":{"ha":440,"x_min":0,"x_max":0,"o":"m 279 -240 l 297 -144 b 157 183 172 -135 118 -42 l 232 604 b 486 935 272 831 358 924 l 503 1028 b 132 621 311 1018 182 908 l 57 194 b 279 -240 6 -93 94 -228 z "},")":{"ha":440,"x_min":0,"x_max":0,"o":"m -64 -240 b 307 167 128 -229 257 -121 l 382 593 b 160 1029 433 882 344 1015 l 142 933 b 282 604 267 922 321 829 l 207 183 b -47 -147 167 -42 81 -136 z "},"[":{"ha":425,"x_min":0,"x_max":0,"o":"m 278 -153 l 107 -153 l 300 940 l 471 940 l 486 1026 l 215 1026 l -7 -239 l 264 -239 z "},"]":{"ha":425,"x_min":0,"x_max":0,"o":"m 208 -239 l 431 1026 l 161 1026 l 146 939 l 318 939 l 125 -153 l -47 -153 l -61 -239 z "},"{":{"ha":439,"x_min":0,"x_max":0,"o":"m 278 -239 l 292 -157 l 242 -157 b 140 -49 150 -157 128 -118 b 261 268 156 36 246 179 b 163 407 275 349 239 407 l 163 410 b 307 540 243 411 292 457 b 300 839 322 629 285 756 b 438 946 313 908 347 946 l 486 946 l 501 1028 l 411 1028 b 203 851 274 1028 221 951 b 208 551 185 750 224 631 b 100 456 197 485 164 456 l 54 456 l 38 361 l 86 361 b 161 257 147 361 175 331 b 40 -44 147 178 58 58 b 186 -239 22 -146 49 -239 z "},"}":{"ha":439,"x_min":0,"x_max":0,"o":"m -60 -224 l 31 -224 b 239 -47 168 -224 221 -147 b 233 253 257 54 218 174 b 342 349 244 319 278 349 l 388 349 l 404 443 l 356 443 b 281 547 294 443 267 474 b 401 849 294 626 383 746 b 256 1043 419 950 393 1043 l 164 1043 l 150 961 l 200 961 b 301 853 292 961 314 922 b 181 536 286 768 196 625 b 279 397 167 456 203 397 l 279 394 b 135 264 199 393 150 347 b 142 -35 119 175 157 49 b 4 -142 129 -104 94 -142 l -44 -142 z "},"〈":{"ha":415,"x_min":0,"x_max":0,"o":"m 267 -243 l 168 383 l 488 1022 l 382 1022 l 65 390 l 164 -243 z "},"〉":{"ha":415,"x_min":0,"x_max":0,"o":"m 35 -243 l 349 385 l 250 1022 l 146 1022 l 246 392 l -72 -243 z "},"*":{"ha":489,"x_min":0,"x_max":0,"o":"m 440 706 l 494 778 l 339 836 l 514 893 l 485 965 l 335 851 l 397 1022 l 314 1022 l 317 851 l 204 964 l 150 892 l 304 836 l 129 778 l 158 707 l 310 819 l 247 649 l 331 649 l 329 819 z "},"†":{"ha":549,"x_min":0,"x_max":0,"o":"m 531 660 l 547 757 l 386 757 l 436 1044 l 339 1044 l 289 757 l 128 757 l 110 660 l 271 660 l 146 -57 l 243 -57 l 368 660 z "},"‡":{"ha":549,"x_min":0,"x_max":0,"o":"m 460 258 l 476 356 l 315 356 l 369 661 l 531 661 l 547 758 l 386 758 l 436 1044 l 339 1044 l 289 758 l 128 758 l 111 661 l 272 661 l 218 356 l 57 356 l 39 258 l 201 258 l 146 -57 l 243 -57 l 299 258 z "},"§":{"ha":640,"x_min":0,"x_max":0,"o":"m 326 433 b 169 594 221 485 157 524 l 171 600 b 225 678 176 632 201 663 b 358 593 263 642 314 617 b 511 424 442 550 525 513 l 510 417 b 469 342 507 389 490 363 b 326 433 433 378 382 407 z m 263 -12 b 518 183 408 -12 496 44 l 519 190 b 493 313 528 239 517 279 b 607 414 544 326 597 357 l 608 419 b 439 657 625 532 564 596 b 267 826 354 699 251 739 l 268 832 b 408 932 278 894 326 932 b 533 789 501 932 549 882 l 526 749 l 622 749 l 629 786 b 413 1015 653 924 572 1015 b 174 839 283 1015 193 954 l 171 829 b 200 706 163 778 175 738 b 75 606 140 696 83 654 l 74 594 b 249 369 53 476 129 432 b 422 193 354 317 438 285 l 421 188 b 271 75 410 115 367 75 b 132 225 169 75 119 128 l 140 281 l 38 281 l 32 236 b 263 -12 7 82 93 -12 z "},"¶":{"ha":772,"x_min":0,"x_max":0,"o":"m 404 0 l 563 903 l 674 903 l 515 0 l 610 0 l 782 988 l 446 988 b 111 715 256 988 142 889 l 111 708 b 342 417 79 539 171 415 l 383 417 l 310 0 z m 360 503 b 207 700 244 501 185 572 l 208 706 b 431 903 231 838 307 903 l 469 903 l 399 503 z "},"^":{"ha":592,"x_min":0,"x_max":0,"o":"m 450 642 l 538 642 l 435 988 l 361 988 l 139 642 l 233 642 l 386 894 z "},"~":{"ha":588,"x_min":0,"x_max":0,"o":"m 151 756 l 222 756 b 282 839 232 813 250 839 b 449 751 336 839 363 751 b 585 908 533 751 569 811 l 515 908 b 454 826 504 846 488 826 b 285 914 403 826 368 914 b 151 756 203 914 169 854 z "},"_":{"ha":624,"x_min":0,"x_max":0,"o":"m -50 -168 l 474 -168 l 490 -72 l -33 -72 z "},"'":{"ha":231,"x_min":0,"x_max":0,"o":"m 133 663 l 189 663 b 254 932 206 710 236 833 l 264 988 l 174 988 l 164 932 b 133 663 147 833 133 710 z "},"\"":{"ha":403,"x_min":0,"x_max":0,"o":"m 306 663 l 363 663 b 428 935 379 710 410 836 l 436 988 l 347 988 l 338 935 b 306 663 321 838 306 710 z m 133 663 l 190 663 b 256 935 206 710 238 836 l 264 988 l 174 988 l 165 935 b 133 663 147 838 132 710 z "},"‴":{"ha":576,"x_min":0,"x_max":0,"o":"m 478 663 l 535 663 b 600 935 551 710 583 836 l 610 988 l 519 988 l 511 935 b 478 663 493 838 476 710 z m 306 663 l 364 663 b 428 935 379 710 410 836 l 436 988 l 347 988 l 338 935 b 306 663 321 838 306 710 z m 133 663 l 190 663 b 256 935 207 710 238 836 l 264 988 l 174 988 l 165 935 b 133 663 147 838 132 710 z "},"@":{"ha":906,"x_min":0,"x_max":0,"o":"m 371 -168 b 676 -31 493 -168 600 -122 l 590 1 b 375 -87 533 -58 474 -87 b 126 236 186 -87 88 17 b 183 556 126 236 176 519 b 529 881 219 765 346 881 b 782 578 731 881 814 758 l 729 281 b 635 126 711 172 682 126 b 588 218 589 126 576 154 b 679 740 590 231 679 740 l 626 740 l 597 653 b 485 747 589 710 554 747 b 303 543 389 747 328 683 l 250 247 b 375 46 226 113 271 46 b 510 138 443 46 485 79 b 625 53 521 83 563 53 b 811 278 728 53 783 125 l 864 581 b 533 963 903 803 775 963 b 103 560 307 963 147 817 l 44 231 b 371 -168 -4 -43 140 -168 z m 400 119 b 333 251 338 119 317 158 l 383 536 b 493 676 401 635 433 676 b 563 532 558 676 579 632 l 513 254 b 400 119 496 161 463 119 z "},"©":{"ha":883,"x_min":0,"x_max":0,"o":"m 399 -14 b 808 371 614 -14 760 89 l 846 586 b 519 997 896 872 725 997 b 108 613 310 997 156 893 l 71 397 b 399 -14 21 108 188 -14 z m 406 60 b 144 385 235 60 104 158 l 185 614 b 514 924 224 838 344 924 b 772 600 679 924 813 824 l 732 367 b 406 60 693 144 579 60 z m 421 168 b 621 364 540 168 599 236 l 631 418 l 553 418 l 544 367 b 426 240 528 274 492 240 b 338 383 349 240 321 288 l 382 632 b 500 750 397 718 438 750 b 589 629 574 750 606 713 l 581 575 l 657 575 l 667 626 b 507 821 689 749 622 821 b 306 629 399 821 329 764 l 263 388 b 421 168 239 258 282 168 z "},"®":{"ha":583,"x_min":0,"x_max":0,"o":"m 326 526 b 583 740 458 526 557 593 l 586 760 b 388 1004 611 904 518 1004 b 132 785 254 1004 157 928 l 129 767 b 326 526 101 618 193 526 z m 332 574 b 178 764 221 574 157 650 l 178 775 b 383 954 199 894 272 954 b 538 763 494 954 558 878 l 535 751 b 332 574 515 629 442 574 z m 376 850 b 419 811 411 850 425 838 b 361 771 415 785 397 771 l 313 771 l 326 850 z m 351 733 b 392 692 389 733 396 721 b 385 653 390 690 386 658 b 386 640 383 647 385 643 l 436 640 b 432 653 432 643 431 646 l 439 692 b 413 753 446 729 438 746 b 468 811 443 761 461 779 b 385 893 475 856 453 893 l 288 893 l 243 640 l 290 640 l 307 733 z "},"℗":{"ha":883,"x_min":0,"x_max":0,"o":"m 397 -14 b 808 371 611 -14 760 89 l 846 586 b 519 997 896 872 725 997 b 108 613 310 997 156 893 l 71 397 b 397 -14 21 108 186 -14 z m 404 60 b 144 385 233 60 104 158 l 185 614 b 514 924 224 838 344 924 b 772 600 679 924 813 824 l 732 367 b 404 60 693 144 578 60 z m 508 743 b 589 651 579 743 599 713 l 568 535 b 457 442 557 471 522 442 l 382 442 l 435 743 z m 450 374 b 642 529 563 374 624 431 l 664 656 b 524 810 681 754 639 810 l 375 810 l 263 175 l 336 175 l 371 374 z "},"™":{"ha":688,"x_min":0,"x_max":0,"o":"m 354 929 l 364 988 l 139 988 l 129 929 l 211 929 l 146 565 l 207 565 l 272 929 z m 440 789 l 451 907 l 458 839 l 504 674 l 517 674 l 619 839 l 650 906 l 619 789 l 581 565 l 639 565 l 713 988 l 658 988 l 528 771 l 472 988 l 418 988 l 343 565 l 401 565 z "},"℠":{"ha":708,"x_min":0,"x_max":0,"o":"m 469 789 l 481 907 l 488 839 l 533 674 l 546 674 l 649 839 l 679 906 l 649 789 l 610 565 l 668 565 l 742 988 l 688 988 l 557 771 l 501 988 l 447 988 l 372 565 l 431 565 z m 196 560 b 326 671 275 560 314 603 b 256 804 342 750 297 782 b 192 889 218 824 183 843 b 254 943 197 924 218 943 b 297 885 290 943 303 919 l 292 853 l 353 853 l 360 890 b 256 994 369 949 335 994 b 131 892 185 994 143 954 b 203 764 117 822 158 789 b 267 675 240 744 276 725 b 201 614 261 636 240 614 b 150 679 156 614 143 643 l 157 718 l 93 718 l 86 676 b 196 560 71 606 108 560 z "},"€":{"ha":710,"x_min":0,"x_max":0,"o":"m 651 293 l 654 311 l 549 311 l 547 297 b 361 79 519 139 468 79 b 213 313 243 79 183 149 l 221 360 l 431 360 l 472 435 l 233 435 l 256 561 l 536 561 l 578 635 l 269 635 l 279 692 b 475 910 308 853 371 910 b 619 701 599 910 644 838 l 617 692 l 722 692 l 722 697 b 483 999 757 889 661 999 b 181 694 322 999 219 913 b 169 635 181 694 176 671 l 78 635 l 64 561 l 157 561 b 133 435 149 519 142 475 l 42 435 l 29 360 l 121 360 b 113 317 115 333 113 317 b 351 -14 78 119 146 -14 b 651 293 536 -14 615 89 z "},"$":{"ha":636,"x_min":0,"x_max":0,"o":"m 271 -164 l 297 -14 b 553 224 456 -6 528 81 l 556 247 b 386 535 582 411 483 475 b 231 757 297 589 210 639 l 233 781 b 393 915 250 869 307 915 b 533 750 507 915 550 849 l 518 668 l 618 668 l 632 751 b 479 990 650 865 601 961 l 508 1153 l 414 1153 l 386 1000 b 138 792 258 996 160 921 l 132 764 b 303 475 103 600 206 533 b 458 251 390 421 476 369 l 454 228 b 281 76 440 139 393 76 b 132 260 168 76 110 138 l 149 356 l 47 356 l 31 268 b 204 -8 0 115 67 17 l 176 -164 z "},"¢":{"ha":636,"x_min":0,"x_max":0,"o":"m 544 222 l 560 304 l 457 304 l 446 243 b 282 76 428 136 382 76 b 146 275 161 76 125 157 l 194 549 b 367 719 214 663 272 719 b 497 533 476 719 519 658 l 489 489 l 593 489 l 599 521 b 449 799 625 671 572 771 l 478 965 l 383 965 l 356 807 b 97 561 218 801 124 714 l 50 293 b 211 -7 24 136 63 18 l 179 -186 l 274 -186 l 306 -11 b 544 222 446 -3 518 79 z "},"£":{"ha":715,"x_min":0,"x_max":0,"o":"m 100 49 b 49 97 63 49 44 68 b 107 142 54 124 74 142 b 197 101 138 142 167 125 b 100 49 172 68 139 49 z m 429 -18 b 632 204 554 -18 604 43 l 643 263 l 540 263 l 532 218 b 424 71 513 106 486 71 b 289 129 375 71 332 99 b 315 217 301 156 310 185 b 322 408 326 285 326 347 l 485 408 l 499 488 l 315 488 b 303 785 303 585 285 681 b 443 917 318 872 365 917 b 543 783 524 917 558 868 l 533 735 l 638 736 l 644 775 b 449 1006 669 921 594 1006 b 201 794 315 1006 225 929 b 221 488 181 682 206 579 l 99 488 l 85 408 l 235 408 b 240 211 247 343 253 279 b 231 168 238 196 235 182 b 107 210 193 192 153 210 b -26 106 38 210 -15 168 b 89 -19 -39 38 -6 -19 b 247 63 150 -19 206 11 b 429 -18 297 22 354 -18 z "},"ƒ":{"ha":419,"x_min":0,"x_max":0,"o":"m 189 40 l 264 465 l 404 465 l 419 553 l 279 553 l 333 854 b 461 993 354 971 376 993 l 497 993 l 513 1079 l 464 1079 b 239 864 328 1079 268 1028 l 185 553 l 54 553 l 39 465 l 168 465 l 96 51 b -26 -75 76 -56 56 -75 l -71 -75 l -86 -167 l -32 -167 b 189 40 117 -167 161 -122 z "},"¥":{"ha":600,"x_min":0,"x_max":0,"o":"m 481 169 l 494 249 l 319 249 l 338 354 l 513 354 l 528 433 l 351 433 l 682 988 l 576 988 l 338 564 l 314 501 l 311 564 l 228 988 l 125 988 l 250 433 l 88 433 l 72 354 l 239 354 l 221 249 l 53 249 l 39 169 l 206 169 l 176 0 l 275 0 l 304 169 z "},"₡":{"ha":717,"x_min":0,"x_max":0,"o":"m 153 313 l 219 692 b 425 914 247 843 326 907 l 171 150 b 153 313 149 189 140 242 z m 276 79 b 217 103 254 83 233 92 l 485 913 b 547 893 508 910 529 903 z m 192 -160 l 254 -160 l 304 -14 l 321 -14 b 642 292 506 -14 607 88 l 656 369 l 560 369 l 547 297 b 335 74 521 140 444 75 l 594 854 b 617 701 621 818 629 767 l 600 608 l 696 608 l 711 699 b 626 950 732 814 696 900 l 694 1139 l 633 1139 l 576 976 b 513 994 557 985 535 990 l 561 1139 l 501 1139 l 454 999 l 453 999 b 126 694 292 999 165 913 b 60 317 126 693 60 317 b 133 43 38 196 64 99 l 60 -160 l 121 -160 l 183 13 b 246 -7 201 4 222 -3 z "},"₢":{"ha":713,"x_min":0,"x_max":0,"o":"m 626 292 l 639 360 l 533 360 l 524 297 b 349 81 497 150 443 89 l 389 303 b 557 474 413 440 438 474 l 610 474 l 628 571 l 588 571 b 408 451 499 571 442 533 l 417 568 l 346 568 l 261 86 b 163 313 176 108 140 179 l 231 692 b 439 910 258 853 332 910 b 594 701 568 910 621 838 l 588 663 l 692 663 l 699 699 b 447 999 732 890 631 999 b 128 694 283 999 167 913 b 61 317 128 693 61 317 b 315 -14 25 119 99 -14 b 626 292 500 -14 592 88 z "},"₣":{"ha":564,"x_min":0,"x_max":0,"o":"m 465 279 l 482 369 l 188 369 l 211 504 l 506 504 l 521 596 l 228 596 l 281 896 l 606 896 l 622 988 l 199 988 l 26 0 l 122 0 l 171 279 z "},"₤":{"ha":719,"x_min":0,"x_max":0,"o":"m 100 49 b 49 97 63 49 44 68 b 107 142 54 124 74 142 b 203 97 139 142 171 122 b 100 49 175 65 139 49 z m 429 -18 b 632 204 554 -18 604 43 l 643 263 l 540 263 l 532 218 b 424 71 513 106 486 71 b 296 124 378 71 338 96 b 321 203 307 147 315 174 b 329 339 329 249 331 294 l 474 339 l 486 407 l 325 407 b 315 494 322 436 319 465 l 501 494 l 514 564 l 306 564 b 301 786 294 642 288 715 b 439 917 317 874 361 917 b 540 783 519 917 557 867 l 531 732 l 635 732 l 643 775 b 449 1006 668 918 592 1006 b 200 797 313 1006 225 932 b 211 564 186 719 196 642 l 104 564 l 93 494 l 225 494 b 243 407 231 465 238 436 l 76 407 l 65 339 l 251 339 b 249 203 257 293 257 249 b 239 163 246 189 243 175 b 107 210 199 189 156 210 b -26 106 38 210 -15 168 b 89 -19 -39 38 -6 -19 b 253 57 151 -19 210 8 b 429 -18 301 19 357 -18 z "},"₦":{"ha":803,"x_min":0,"x_max":0,"o":"m 264 690 l 285 865 l 300 764 l 340 617 l 251 617 z m 385 456 l 222 456 l 239 547 l 360 547 z m 600 456 l 474 456 l 449 547 l 615 547 z m 510 0 l 610 0 l 678 388 l 786 388 l 799 456 l 690 456 l 706 547 l 814 547 l 828 617 l 718 617 l 783 988 l 693 988 l 628 617 l 431 617 l 329 988 l 225 988 l 160 617 l 53 617 l 40 547 l 149 547 l 132 456 l 24 456 l 13 388 l 121 388 l 53 0 l 143 0 l 211 388 l 403 388 z m 533 239 l 493 388 l 588 388 l 574 308 l 551 129 z "},"₧":{"ha":1547,"x_min":0,"x_max":0,"o":"m 318 408 l 194 408 l 281 899 l 407 899 b 547 726 525 899 565 832 l 524 589 b 318 408 503 468 439 407 z m 311 319 b 617 565 494 318 588 401 l 642 704 l 775 704 l 703 290 b 935 0 667 92 729 0 l 1201 0 b 1475 194 1354 0 1450 53 l 1476 200 b 1311 442 1501 347 1404 397 b 1163 617 1226 483 1146 519 l 1164 622 b 1304 726 1175 686 1225 726 b 1431 589 1394 726 1447 681 l 1422 544 l 1518 544 l 1526 586 b 1307 810 1550 722 1465 810 b 1069 631 1179 810 1090 746 l 1068 619 b 1229 381 1042 476 1138 425 b 1379 204 1314 340 1397 303 l 1378 197 b 1200 89 1364 121 1300 89 l 946 89 b 796 299 806 89 771 144 l 867 704 l 1017 704 l 1032 794 l 883 794 l 914 969 l 842 969 b 811 847 833 933 821 871 b 757 796 797 810 788 801 b 650 788 744 790 672 788 b 422 988 646 910 571 988 l 199 988 l 26 0 l 122 0 l 178 319 z "},"₨":{"ha":1244,"x_min":0,"x_max":0,"o":"m 874 -14 b 1160 194 1028 -14 1135 53 l 1161 200 b 996 443 1186 347 1089 399 b 849 617 913 483 832 519 l 850 622 b 990 726 861 686 911 726 b 1117 589 1081 726 1133 681 l 1108 544 l 1204 544 l 1213 586 b 993 810 1236 722 1151 810 b 756 631 865 810 776 746 l 754 619 b 917 379 728 476 824 425 b 1064 204 1000 339 1082 303 l 1063 199 b 881 75 1049 118 982 75 l 858 75 b 650 238 750 75 693 118 l 619 321 b 476 460 593 396 550 440 b 642 649 574 485 624 547 l 657 724 b 438 988 686 886 613 988 l 199 988 l 26 0 l 124 0 l 197 415 l 317 415 b 535 268 436 415 501 367 l 565 186 b 849 -14 615 47 688 -14 z m 421 900 b 560 735 538 900 579 843 l 549 672 b 343 503 528 554 472 503 l 213 503 l 282 900 z "},"₩":{"ha":994,"x_min":0,"x_max":0,"o":"m 543 751 l 581 888 l 572 753 l 576 624 l 492 624 z m 354 463 l 250 463 l 253 554 l 392 554 z m 581 463 l 428 463 l 464 554 l 578 554 z m 761 463 l 650 463 l 647 554 l 793 554 z m 244 265 l 249 393 l 326 393 l 271 253 l 222 97 z m 594 0 l 685 0 l 824 393 l 981 393 l 992 463 l 849 463 l 881 554 l 1008 554 l 1021 624 l 906 624 l 1035 988 l 942 988 l 817 624 l 644 624 l 632 988 l 564 988 l 418 624 l 254 624 l 265 988 l 172 988 l 165 624 l 54 624 l 42 554 l 164 554 l 163 463 l 25 463 l 13 393 l 161 393 l 153 0 l 242 0 l 400 393 l 583 393 z m 657 253 l 653 393 l 738 393 l 693 265 l 649 85 z "},"₪":{"ha":922,"x_min":0,"x_max":0,"o":"m 418 901 b 576 686 558 901 603 839 l 492 210 b 607 328 565 210 590 236 l 669 690 b 428 988 706 885 617 988 l 199 988 l 26 0 l 118 0 l 276 901 z m 494 0 b 818 307 690 0 783 111 l 938 989 l 844 989 l 725 311 b 496 86 697 154 615 86 l 349 86 b 450 664 365 178 449 657 b 378 782 467 760 457 782 l 240 0 z "},"₮":{"ha":547,"x_min":0,"x_max":0,"o":"m 468 447 l 479 515 l 331 454 l 349 556 l 497 617 l 510 685 l 361 624 l 408 896 l 601 896 l 617 988 l 138 988 l 121 896 l 310 896 l 254 581 l 117 524 l 104 456 l 243 513 l 225 411 l 88 354 l 75 286 l 213 343 l 153 0 l 251 0 l 319 386 z "},"₱":{"ha":692,"x_min":0,"x_max":0,"o":"m 411 899 b 557 756 519 899 563 844 l 274 756 l 299 899 z m 528 583 l 243 583 l 261 689 l 546 689 z m 317 369 l 206 369 l 232 518 l 515 518 b 317 369 489 418 428 368 z m 310 281 b 614 518 490 279 583 360 l 696 518 l 707 583 l 625 583 l 643 689 l 725 689 l 738 756 l 653 756 b 428 988 663 896 589 988 l 217 988 l 176 756 l 83 756 l 71 689 l 164 689 l 146 583 l 51 583 l 40 518 l 135 518 l 43 0 l 140 0 l 190 281 z "},"฿":{"ha":701,"x_min":0,"x_max":0,"o":"m 221 550 l 282 901 l 411 901 l 349 550 z m 594 756 l 583 699 b 424 550 567 599 524 556 l 486 900 b 594 756 579 893 607 839 z m 139 89 l 206 464 l 333 464 l 267 89 z m 525 310 l 513 236 b 343 89 493 135 457 92 l 408 464 b 525 310 515 458 542 404 z m 331 0 b 610 210 515 0 585 60 b 625 296 610 208 625 296 b 531 506 643 397 621 474 b 679 681 615 528 663 581 l 692 750 b 501 988 714 878 669 979 l 524 1117 l 449 1117 l 426 988 l 199 988 l 26 0 l 251 0 l 228 -133 l 304 -133 l 328 0 z "},"#":{"ha":910,"x_min":0,"x_max":0,"o":"m 532 393 l 342 393 l 415 625 l 606 625 z m 408 0 l 503 0 l 600 308 l 799 308 l 814 393 l 626 393 l 699 625 l 893 625 l 908 710 l 725 710 l 813 988 l 719 988 l 632 710 l 442 710 l 529 988 l 435 988 l 347 710 l 151 710 l 136 625 l 321 625 l 247 393 l 57 393 l 42 308 l 221 308 l 124 0 l 218 0 l 315 308 l 506 308 z "},"⁰":{"ha":382,"x_min":0,"x_max":0,"o":"m 221 490 b 376 643 314 490 358 542 l 410 832 b 285 994 429 942 368 994 b 128 842 207 994 147 951 l 96 660 b 221 490 78 558 118 490 z m 226 560 b 169 664 175 560 157 592 l 199 832 b 278 928 211 903 236 928 b 335 831 328 928 346 897 l 304 654 b 226 560 292 586 271 560 z "},"¹":{"ha":286,"x_min":0,"x_max":0,"o":"m 274 499 l 283 567 l 208 567 l 282 988 l 225 988 b 136 910 210 936 186 911 l 126 851 l 192 851 l 142 567 l 63 567 l 53 499 z "},"²":{"ha":358,"x_min":0,"x_max":0,"o":"m 336 499 l 349 568 l 156 568 b 271 696 174 624 222 658 b 394 854 326 738 382 781 l 396 863 b 275 994 411 935 376 994 b 131 874 194 994 143 944 l 118 797 l 190 797 l 203 868 b 272 932 210 910 231 932 b 325 865 313 932 332 907 l 324 858 b 201 725 313 804 257 768 b 71 543 143 681 85 629 l 63 499 z "},"³":{"ha":365,"x_min":0,"x_max":0,"o":"m 208 490 b 358 618 294 490 343 532 l 361 636 b 322 746 371 686 363 726 b 393 854 371 761 385 803 l 396 865 b 274 994 411 946 361 994 b 132 881 190 994 144 949 b 121 825 132 881 121 826 l 194 825 l 203 874 b 271 932 210 910 226 932 b 325 865 319 932 333 906 l 322 851 b 244 781 315 804 297 781 l 204 781 l 193 717 l 232 717 b 290 643 281 717 299 690 l 286 626 b 213 557 278 578 260 557 b 154 626 164 557 147 581 l 163 674 l 89 674 l 82 632 b 208 490 65 540 108 490 z "},"⁴":{"ha":360,"x_min":0,"x_max":0,"o":"m 286 853 l 313 899 l 296 842 l 265 663 l 146 663 z m 375 604 l 386 663 l 326 663 l 383 988 l 321 988 l 74 657 l 64 604 l 254 604 l 236 499 l 299 499 l 317 604 z "},"⁵":{"ha":368,"x_min":0,"x_max":0,"o":"m 210 490 b 367 625 301 490 351 536 b 382 707 367 625 381 706 b 285 835 394 786 356 835 b 189 789 242 835 213 818 b 228 919 200 825 215 881 l 329 919 b 410 983 385 919 401 939 l 411 988 l 182 988 l 113 736 l 169 718 b 179 731 169 719 179 731 b 258 776 199 757 218 776 b 310 704 301 776 318 751 b 297 629 310 703 297 629 b 218 557 288 582 265 557 b 163 631 168 557 154 585 l 168 663 l 93 663 l 89 638 b 210 490 72 544 111 490 z "},"⁶":{"ha":378,"x_min":0,"x_max":0,"o":"m 372 631 l 378 664 b 278 797 392 750 350 797 b 176 739 231 797 199 776 l 194 838 b 279 932 206 901 226 932 b 333 858 324 932 342 911 l 329 839 l 403 839 l 404 853 b 285 994 422 942 368 994 b 125 838 197 994 144 949 l 93 654 b 218 490 75 554 110 490 b 372 631 311 490 356 540 z m 221 556 b 161 647 169 556 150 581 l 167 678 b 250 743 179 718 207 743 b 310 668 299 743 317 719 l 304 635 b 221 556 294 581 274 556 z "},"⁷":{"ha":315,"x_min":0,"x_max":0,"o":"m 168 499 b 382 929 217 653 297 808 l 392 988 l 132 988 l 119 918 l 307 918 b 89 499 233 814 142 657 z "},"⁸":{"ha":375,"x_min":0,"x_max":0,"o":"m 208 490 b 369 615 304 490 353 524 l 375 642 b 326 749 385 697 361 732 b 403 846 365 758 390 786 l 407 867 b 283 994 424 953 367 994 b 136 874 206 994 151 961 l 133 856 b 175 754 126 800 142 768 b 89 654 132 743 100 713 l 85 631 b 208 490 68 540 108 490 z m 253 778 b 204 850 207 778 196 807 l 207 867 b 281 936 213 915 236 936 b 339 861 328 936 350 917 l 336 846 b 261 778 326 800 306 778 z m 219 554 b 157 631 169 554 147 576 l 161 654 b 239 722 168 699 194 722 l 249 722 b 307 649 293 722 315 696 l 303 624 b 219 554 292 569 265 554 z "},"⁹":{"ha":372,"x_min":0,"x_max":0,"o":"m 247 743 b 188 819 197 743 179 768 l 192 849 b 272 932 200 901 224 932 b 333 833 325 932 346 901 l 328 801 b 247 743 314 767 286 743 z m 207 489 b 371 646 300 489 351 535 l 401 826 b 275 994 421 931 378 994 b 124 856 188 994 139 942 l 119 824 b 215 689 104 736 144 689 b 318 747 261 689 296 708 l 301 646 b 217 554 289 582 269 554 b 163 626 172 554 153 574 l 168 650 l 94 650 l 90 628 b 207 489 72 539 119 489 z "},"⁺":{"ha":372,"x_min":0,"x_max":0,"o":"m 367 710 l 376 769 l 279 769 l 296 863 l 235 863 l 218 769 l 124 769 l 113 710 l 208 710 l 190 611 l 251 611 l 269 710 z "},"⁻":{"ha":372,"x_min":0,"x_max":0,"o":"m 113 707 l 365 707 l 376 772 l 124 772 z "},"⁼":{"ha":372,"x_min":0,"x_max":0,"o":"m 126 774 l 374 774 l 385 836 l 138 836 z m 101 638 l 349 638 l 360 700 l 113 700 z "},"⁽":{"ha":264,"x_min":0,"x_max":0,"o":"m 238 374 l 250 447 b 168 619 179 457 147 499 l 210 854 b 353 1033 231 978 279 1028 l 365 1103 b 143 872 249 1096 171 1035 l 100 631 b 238 374 71 467 122 386 z "},"⁾":{"ha":264,"x_min":0,"x_max":0,"o":"m 17 374 b 239 604 135 381 210 442 l 281 844 b 144 1101 310 1010 260 1090 l 132 1032 b 214 857 204 1022 235 976 l 172 622 b 29 446 150 499 104 451 z "},"₀":{"ha":382,"x_min":0,"x_max":0,"o":"m 133 -8 b 289 144 226 -8 271 43 l 322 333 b 197 496 342 443 281 496 b 40 343 119 496 60 453 l 8 161 b 133 -8 -10 60 31 -8 z m 139 61 b 82 165 88 61 69 93 l 111 333 b 190 429 124 404 149 429 b 247 332 240 429 258 399 l 217 156 b 139 61 204 88 183 61 z "},"₁":{"ha":286,"x_min":0,"x_max":0,"o":"m 186 0 l 196 68 l 121 68 l 194 489 l 138 489 b 49 411 122 438 99 413 l 39 353 l 104 353 l 54 68 l -25 68 l -35 0 z "},"₂":{"ha":358,"x_min":0,"x_max":0,"o":"m 249 0 l 261 69 l 68 69 b 183 197 86 125 135 160 b 307 356 239 239 294 282 l 308 364 b 188 496 324 436 289 496 b 43 375 107 496 56 446 l 31 299 l 103 299 l 115 369 b 185 433 122 411 143 433 b 238 367 225 433 244 408 l 236 360 b 114 226 225 306 169 269 b -17 44 56 182 -3 131 l -25 0 z "},"₃":{"ha":365,"x_min":0,"x_max":0,"o":"m 121 -8 b 271 119 207 -8 256 33 l 274 138 b 235 247 283 188 275 228 b 306 356 283 263 297 304 l 308 367 b 186 496 324 447 274 496 b 44 382 103 496 57 450 b 33 326 44 382 33 328 l 107 326 l 115 375 b 183 433 122 411 139 433 b 238 367 232 433 246 407 l 235 353 b 157 282 228 306 210 282 l 117 282 l 106 218 l 144 218 b 203 144 193 218 211 192 l 199 128 b 125 58 190 79 172 58 b 67 128 76 58 60 82 l 75 175 l 1 175 l -6 133 b 121 -8 -22 42 21 -8 z "},"₄":{"ha":360,"x_min":0,"x_max":0,"o":"m 199 354 l 225 400 l 208 343 l 178 164 l 58 164 z m 288 106 l 299 164 l 239 164 l 296 489 l 233 489 l -14 158 l -24 106 l 167 106 l 149 0 l 211 0 l 229 106 z "},"₅":{"ha":368,"x_min":0,"x_max":0,"o":"m 122 -8 b 279 126 214 -8 264 38 b 294 208 279 126 293 207 b 197 336 307 288 268 336 b 101 290 154 336 125 319 b 140 421 113 326 128 382 l 242 421 b 322 485 297 421 314 440 l 324 489 l 94 489 l 25 238 l 82 219 b 92 232 82 221 92 232 b 171 278 111 258 131 278 b 222 206 214 278 231 253 b 210 131 222 204 210 131 b 131 58 200 83 178 58 b 75 132 81 58 67 86 l 81 164 l 6 164 l 1 139 b 122 -8 -15 46 24 -8 z "},"₆":{"ha":378,"x_min":0,"x_max":0,"o":"m 285 132 l 290 165 b 190 299 304 251 263 299 b 89 240 143 299 111 278 l 107 339 b 192 433 118 403 139 433 b 246 360 236 433 254 413 l 242 340 l 315 340 l 317 354 b 197 496 335 443 281 496 b 38 339 110 496 57 450 l 6 156 b 131 -8 -12 56 22 -8 b 285 132 224 -8 268 42 z m 133 57 b 74 149 82 57 63 82 l 79 179 b 163 244 92 219 119 244 b 222 169 211 244 229 221 l 217 136 b 133 57 207 82 186 57 z "},"₇":{"ha":315,"x_min":0,"x_max":0,"o":"m 81 0 b 294 431 129 154 210 310 l 304 489 l 44 489 l 32 419 l 219 419 b 1 0 146 315 54 158 z "},"₈":{"ha":375,"x_min":0,"x_max":0,"o":"m 121 -8 b 282 117 217 -8 265 25 l 288 143 b 239 250 297 199 274 233 b 315 347 278 260 303 288 l 319 368 b 196 496 336 454 279 496 b 49 375 118 496 64 463 l 46 357 b 88 256 39 301 54 269 b 1 156 44 244 13 214 l -3 132 b 121 -8 -19 42 21 -8 z m 165 279 b 117 351 119 279 108 308 l 119 368 b 193 438 125 417 149 438 b 251 363 240 438 263 418 l 249 347 b 174 279 239 301 218 279 z m 132 56 b 69 132 82 56 60 78 l 74 156 b 151 224 81 200 107 224 l 161 224 b 219 150 206 224 228 197 l 215 125 b 132 56 204 71 178 56 z "},"₉":{"ha":372,"x_min":0,"x_max":0,"o":"m 160 244 b 100 321 110 244 92 269 l 104 350 b 185 433 113 403 136 433 b 246 335 238 433 258 403 l 240 303 b 160 244 226 268 199 244 z m 119 -10 b 283 147 213 -10 264 36 l 314 328 b 188 496 333 432 290 496 b 36 357 100 496 51 443 l 32 325 b 128 190 17 238 57 190 b 231 249 174 190 208 210 l 214 147 b 129 56 201 83 182 56 b 75 128 85 56 65 75 l 81 151 l 7 151 l 3 129 b 119 -10 -15 40 32 -10 z "},"₊":{"ha":372,"x_min":0,"x_max":0,"o":"m 279 211 l 289 271 l 192 271 l 208 364 l 147 364 l 131 271 l 36 271 l 25 211 l 121 211 l 103 113 l 164 113 l 182 211 z "},"₋":{"ha":372,"x_min":0,"x_max":0,"o":"m 25 208 l 278 208 l 289 274 l 36 274 z "},"₌":{"ha":372,"x_min":0,"x_max":0,"o":"m 40 278 l 288 278 l 299 340 l 51 340 z m 15 142 l 263 142 l 274 204 l 26 204 z "},"₍":{"ha":264,"x_min":0,"x_max":0,"o":"m 150 -132 l 163 -58 b 81 114 92 -49 60 -7 l 122 349 b 265 528 143 472 192 522 l 278 597 b 56 367 161 590 83 529 l 13 125 b 150 -132 -17 -39 35 -119 z "},"₎":{"ha":264,"x_min":0,"x_max":0,"o":"m -71 -132 b 151 99 47 -125 122 -64 l 193 339 b 57 596 222 504 172 585 l 44 526 b 126 351 117 517 147 471 l 85 117 b -58 -60 63 -7 17 -54 z "},"⁄":{"ha":801,"x_min":0,"x_max":0,"o":"m 490 554 l 849 954 l 765 1015 l 461 575 z m 85 -24 l 393 436 l 365 457 l -1 43 z "},"⅟":{"ha":801,"x_min":0,"x_max":0,"o":"m 490 554 l 849 954 l 765 1015 l 461 575 z m 85 -24 l 393 436 l 365 457 l -1 43 z m 311 499 l 321 567 l 246 567 l 319 988 l 263 988 b 174 910 247 936 224 911 l 164 851 l 229 851 l 179 567 l 100 567 l 90 499 z "},"½":{"ha":801,"x_min":0,"x_max":0,"o":"m 490 554 l 849 954 l 765 1015 l 461 575 z m 85 -24 l 393 436 l 365 457 l -1 43 z m 311 499 l 321 567 l 246 567 l 319 988 l 263 988 b 174 910 247 936 224 911 l 164 851 l 229 851 l 179 567 l 100 567 l 90 499 z m 674 0 l 686 69 l 493 69 b 608 197 511 125 560 160 b 732 356 664 239 719 282 l 733 364 b 613 496 749 436 714 496 b 468 375 532 496 481 446 l 456 299 l 528 299 l 540 369 b 610 433 547 411 568 433 b 663 367 650 433 669 408 l 661 360 b 539 226 650 306 594 269 b 408 44 481 182 422 131 l 400 0 z "},"⅓":{"ha":801,"x_min":0,"x_max":0,"o":"m 490 554 l 849 954 l 765 1015 l 461 575 z m 85 -24 l 393 436 l 365 457 l -1 43 z m 311 499 l 321 567 l 246 567 l 319 988 l 263 988 b 174 910 247 936 224 911 l 164 851 l 229 851 l 179 567 l 100 567 l 90 499 z m 539 -8 b 689 119 625 -8 674 33 l 692 138 b 653 247 701 188 693 228 b 724 356 701 263 715 304 l 726 367 b 604 496 742 447 692 496 b 463 382 521 496 475 450 b 451 326 463 382 451 328 l 525 326 l 533 375 b 601 433 540 411 557 433 b 656 367 650 433 664 407 l 653 353 b 575 282 646 306 628 282 l 535 282 l 524 218 l 563 218 b 621 144 611 218 629 192 l 617 128 b 543 58 608 79 590 58 b 485 128 494 58 478 82 l 493 175 l 419 175 l 413 133 b 539 -8 396 42 439 -8 z "},"⅔":{"ha":801,"x_min":0,"x_max":0,"o":"m 490 554 l 849 954 l 765 1015 l 461 575 z m 85 -24 l 393 436 l 365 457 l -1 43 z m 342 499 l 354 568 l 161 568 b 276 696 179 624 228 658 b 400 854 332 738 388 781 l 401 863 b 281 994 417 935 382 994 b 136 874 200 994 149 944 l 124 797 l 196 797 l 208 868 b 278 932 215 910 236 932 b 331 865 318 932 338 907 l 329 858 b 207 725 318 804 263 768 b 76 543 149 681 90 629 l 68 499 z m 539 -8 b 689 119 625 -8 674 33 l 692 138 b 653 247 701 188 693 228 b 724 356 701 263 715 304 l 726 367 b 604 496 742 447 692 496 b 463 382 521 496 475 450 b 451 326 463 382 451 328 l 525 326 l 533 375 b 601 433 540 411 557 433 b 656 367 650 433 664 407 l 653 353 b 575 282 646 306 628 282 l 535 282 l 524 218 l 563 218 b 621 144 611 218 629 192 l 617 128 b 543 58 608 79 590 58 b 485 128 494 58 478 82 l 493 175 l 419 175 l 413 133 b 539 -8 396 42 439 -8 z "},"¼":{"ha":801,"x_min":0,"x_max":0,"o":"m 490 554 l 849 954 l 765 1015 l 461 575 z m 85 -24 l 393 436 l 365 457 l -1 43 z m 586 354 l 613 400 l 596 343 l 565 164 l 446 164 z m 675 106 l 686 164 l 626 164 l 683 489 l 621 489 l 374 158 l 364 106 l 554 106 l 536 0 l 599 0 l 617 106 z m 313 499 l 322 567 l 247 567 l 321 988 l 264 988 b 175 910 249 936 225 911 l 165 851 l 231 851 l 181 567 l 101 567 l 92 499 z "},"¾":{"ha":801,"x_min":0,"x_max":0,"o":"m 490 554 l 849 954 l 765 1015 l 461 575 z m 85 -24 l 393 436 l 365 457 l -1 43 z m 585 354 l 611 400 l 594 343 l 564 164 l 444 164 z m 674 106 l 685 164 l 625 164 l 682 489 l 619 489 l 372 158 l 363 106 l 553 106 l 535 0 l 597 0 l 615 106 z m 211 490 b 361 618 297 490 346 532 l 364 636 b 325 746 374 686 365 726 b 396 854 374 761 388 803 l 399 865 b 276 994 414 946 364 994 b 135 881 193 994 147 949 b 124 825 135 881 124 826 l 197 825 l 206 874 b 274 932 213 910 229 932 b 328 865 322 932 336 906 l 325 851 b 247 781 318 804 300 781 l 207 781 l 196 717 l 235 717 b 293 643 283 717 301 690 l 289 626 b 215 557 281 578 263 557 b 157 626 167 557 150 581 l 165 674 l 92 674 l 85 632 b 211 490 68 540 111 490 z "},"⅕":{"ha":801,"x_min":0,"x_max":0,"o":"m 490 554 l 849 954 l 765 1015 l 461 575 z m 85 -24 l 393 436 l 365 457 l -1 43 z m 539 -8 b 696 126 631 -8 681 38 b 711 208 696 126 710 207 b 614 336 724 288 685 336 b 518 290 571 336 542 319 b 557 421 529 326 544 382 l 658 421 b 739 485 714 421 731 440 l 740 489 l 511 489 l 442 238 l 499 219 b 508 232 499 221 508 232 b 588 278 528 258 547 278 b 639 206 631 278 647 253 b 626 131 639 204 626 131 b 547 58 617 83 594 58 b 492 132 497 58 483 86 l 497 164 l 422 164 l 418 139 b 539 -8 401 46 440 -8 z m 313 499 l 322 567 l 247 567 l 321 988 l 264 988 b 175 910 249 936 225 911 l 165 851 l 231 851 l 181 567 l 101 567 l 92 499 z "},"⅖":{"ha":801,"x_min":0,"x_max":0,"o":"m 490 554 l 849 954 l 765 1015 l 461 575 z m 85 -24 l 393 436 l 365 457 l -1 43 z m 539 -8 b 696 126 631 -8 681 38 b 711 208 696 126 710 207 b 614 336 724 288 685 336 b 518 290 571 336 542 319 b 557 421 529 326 544 382 l 658 421 b 739 485 714 421 731 440 l 740 489 l 511 489 l 442 238 l 499 219 b 508 232 499 221 508 232 b 588 278 528 258 547 278 b 639 206 631 278 647 253 b 626 131 639 204 626 131 b 547 58 617 83 594 58 b 492 132 497 58 483 86 l 497 164 l 422 164 l 418 139 b 539 -8 401 46 440 -8 z m 343 499 l 356 568 l 163 568 b 278 696 181 624 229 658 b 401 854 333 738 389 781 l 403 863 b 282 994 418 935 383 994 b 138 874 201 994 150 944 l 125 797 l 197 797 l 210 868 b 279 932 217 910 238 932 b 332 865 319 932 339 907 l 331 858 b 208 725 319 804 264 768 b 78 543 150 681 92 629 l 69 499 z "},"⅗":{"ha":801,"x_min":0,"x_max":0,"o":"m 490 554 l 849 954 l 765 1015 l 461 575 z m 85 -24 l 393 436 l 365 457 l -1 43 z m 539 -8 b 696 126 631 -8 681 38 b 711 208 696 126 710 207 b 614 336 724 288 685 336 b 518 290 571 336 542 319 b 557 421 529 326 544 382 l 658 421 b 739 485 714 421 731 440 l 740 489 l 511 489 l 442 238 l 499 219 b 508 232 499 221 508 232 b 588 278 528 258 547 278 b 639 206 631 278 647 253 b 626 131 639 204 626 131 b 547 58 617 83 594 58 b 492 132 497 58 483 86 l 497 164 l 422 164 l 418 139 b 539 -8 401 46 440 -8 z m 214 490 b 364 618 300 490 349 532 l 367 636 b 328 746 376 686 368 726 b 399 854 376 761 390 803 l 401 865 b 279 994 417 946 367 994 b 138 881 196 994 150 949 b 126 825 138 881 126 826 l 200 825 l 208 874 b 276 932 215 910 232 932 b 331 865 325 932 339 906 l 328 851 b 250 781 321 804 303 781 l 210 781 l 199 717 l 238 717 b 296 643 286 717 304 690 l 292 626 b 218 557 283 578 265 557 b 160 626 169 557 153 581 l 168 674 l 94 674 l 88 632 b 214 490 71 540 114 490 z "},"⅘":{"ha":801,"x_min":0,"x_max":0,"o":"m 490 554 l 849 954 l 765 1015 l 461 575 z m 85 -24 l 393 436 l 365 457 l -1 43 z m 539 -8 b 696 126 631 -8 681 38 b 711 208 696 126 710 207 b 614 336 724 288 685 336 b 518 290 571 336 542 319 b 557 421 529 326 544 382 l 658 421 b 739 485 714 421 731 440 l 740 489 l 511 489 l 442 238 l 499 219 b 508 232 499 221 508 232 b 588 278 528 258 547 278 b 639 206 631 278 647 253 b 626 131 639 204 626 131 b 547 58 617 83 594 58 b 492 132 497 58 483 86 l 497 164 l 422 164 l 418 139 b 539 -8 401 46 440 -8 z m 293 853 l 319 899 l 303 842 l 272 663 l 153 663 z m 382 604 l 393 663 l 333 663 l 390 988 l 328 988 l 81 657 l 71 604 l 261 604 l 243 499 l 306 499 l 324 604 z "},"⅙":{"ha":801,"x_min":0,"x_max":0,"o":"m 490 554 l 849 954 l 765 1015 l 461 575 z m 85 -24 l 393 436 l 365 457 l -1 43 z m 313 499 l 322 567 l 247 567 l 321 988 l 264 988 b 175 910 249 936 225 911 l 165 851 l 231 851 l 181 567 l 101 567 l 92 499 z m 694 132 l 700 165 b 600 299 714 251 672 299 b 499 240 553 299 521 278 l 517 339 b 601 433 528 403 549 433 b 656 360 646 433 664 413 l 651 340 l 725 340 l 726 354 b 607 496 744 443 690 496 b 447 339 519 496 467 450 l 415 156 b 540 -8 397 56 432 -8 b 694 132 633 -8 678 42 z m 543 57 b 483 149 492 57 472 82 l 489 179 b 572 244 501 219 529 244 b 632 169 621 244 639 221 l 626 136 b 543 57 617 82 596 57 z "},"⅚":{"ha":801,"x_min":0,"x_max":0,"o":"m 490 554 l 849 954 l 765 1015 l 461 575 z m 85 -24 l 393 436 l 365 457 l -1 43 z m 213 490 b 369 625 304 490 354 536 b 385 707 369 625 383 706 b 288 835 397 786 358 835 b 192 789 244 835 215 818 b 231 919 203 825 218 881 l 332 919 b 413 983 388 919 404 939 l 414 988 l 185 988 l 115 736 l 172 718 b 182 731 172 719 182 731 b 261 776 201 757 221 776 b 313 704 304 776 321 751 b 300 629 313 703 300 629 b 221 557 290 582 268 557 b 165 631 171 557 157 585 l 171 663 l 96 663 l 92 638 b 213 490 75 544 114 490 z m 694 132 l 700 165 b 600 299 714 251 672 299 b 499 240 553 299 521 278 l 517 339 b 601 433 528 403 549 433 b 656 360 646 433 664 413 l 651 340 l 725 340 l 726 354 b 607 496 744 443 690 496 b 447 339 519 496 467 450 l 415 156 b 540 -8 397 56 432 -8 b 694 132 633 -8 678 42 z m 543 57 b 483 149 492 57 472 82 l 489 179 b 572 244 501 219 529 244 b 632 169 621 244 639 221 l 626 136 b 543 57 617 82 596 57 z "},"⅛":{"ha":801,"x_min":0,"x_max":0,"o":"m 490 554 l 849 954 l 765 1015 l 461 575 z m 85 -24 l 393 436 l 365 457 l -1 43 z m 313 499 l 322 567 l 247 567 l 321 988 l 264 988 b 175 910 249 936 225 911 l 165 851 l 231 851 l 181 567 l 101 567 l 92 499 z m 533 -8 b 694 117 629 -8 678 25 l 700 143 b 651 250 710 199 686 233 b 728 347 690 260 715 288 l 732 368 b 608 496 749 454 692 496 b 461 375 531 496 476 463 l 458 357 b 500 256 451 301 467 269 b 414 156 457 244 425 214 l 410 132 b 533 -8 393 42 433 -8 z m 578 279 b 529 351 532 279 521 308 l 532 368 b 606 438 538 417 561 438 b 664 363 653 438 675 418 l 661 347 b 586 279 651 301 631 279 z m 544 56 b 482 132 494 56 472 78 l 486 156 b 564 224 493 200 519 224 l 574 224 b 632 150 618 224 640 197 l 628 125 b 544 56 617 71 590 56 z "},"⅜":{"ha":801,"x_min":0,"x_max":0,"o":"m 490 554 l 849 954 l 765 1015 l 461 575 z m 85 -24 l 393 436 l 365 457 l -1 43 z m 533 -8 b 694 117 629 -8 678 25 l 700 143 b 651 250 710 199 686 233 b 728 347 690 260 715 288 l 732 368 b 608 496 749 454 692 496 b 461 375 531 496 476 463 l 458 357 b 500 256 451 301 467 269 b 414 156 457 244 425 214 l 410 132 b 533 -8 393 42 433 -8 z m 578 279 b 529 351 532 279 521 308 l 532 368 b 606 438 538 417 561 438 b 664 363 653 438 675 418 l 661 347 b 586 279 651 301 631 279 z m 544 56 b 482 132 494 56 472 78 l 486 156 b 564 224 493 200 519 224 l 574 224 b 632 150 618 224 640 197 l 628 125 b 544 56 617 71 590 56 z m 213 490 b 363 618 299 490 347 532 l 365 636 b 326 746 375 686 367 726 b 397 854 375 761 389 803 l 400 865 b 278 994 415 946 365 994 b 136 881 194 994 149 949 b 125 825 136 881 125 826 l 199 825 l 207 874 b 275 932 214 910 231 932 b 329 865 324 932 338 906 l 326 851 b 249 781 319 804 301 781 l 208 781 l 197 717 l 236 717 b 294 643 285 717 303 690 l 290 626 b 217 557 282 578 264 557 b 158 626 168 557 151 581 l 167 674 l 93 674 l 86 632 b 213 490 69 540 113 490 z "},"⅝":{"ha":801,"x_min":0,"x_max":0,"o":"m 490 554 l 849 954 l 765 1015 l 461 575 z m 85 -24 l 393 436 l 365 457 l -1 43 z m 533 -8 b 694 117 629 -8 678 25 l 700 143 b 651 250 710 199 686 233 b 728 347 690 260 715 288 l 732 368 b 608 496 749 454 692 496 b 461 375 531 496 476 463 l 458 357 b 500 256 451 301 467 269 b 414 156 457 244 425 214 l 410 132 b 533 -8 393 42 433 -8 z m 578 279 b 529 351 532 279 521 308 l 532 368 b 606 438 538 417 561 438 b 664 363 653 438 675 418 l 661 347 b 586 279 651 301 631 279 z m 544 56 b 482 132 494 56 472 78 l 486 156 b 564 224 493 200 519 224 l 574 224 b 632 150 618 224 640 197 l 628 125 b 544 56 617 71 590 56 z m 213 490 b 369 625 304 490 354 536 b 385 707 369 625 383 706 b 288 835 397 786 358 835 b 192 789 244 835 215 818 b 231 919 203 825 218 881 l 332 919 b 413 983 388 919 404 939 l 414 988 l 185 988 l 115 736 l 172 718 b 182 731 172 719 182 731 b 261 776 201 757 221 776 b 313 704 304 776 321 751 b 300 629 313 703 300 629 b 221 557 290 582 268 557 b 165 631 171 557 157 585 l 171 663 l 96 663 l 92 638 b 213 490 75 544 114 490 z "},"⅞":{"ha":801,"x_min":0,"x_max":0,"o":"m 490 554 l 849 954 l 765 1015 l 461 575 z m 85 -24 l 393 436 l 365 457 l -1 43 z m 533 -8 b 694 117 629 -8 678 25 l 700 143 b 651 250 710 199 686 233 b 728 347 690 260 715 288 l 732 368 b 608 496 749 454 692 496 b 461 375 531 496 476 463 l 458 357 b 500 256 451 301 467 269 b 414 156 457 244 425 214 l 410 132 b 533 -8 393 42 433 -8 z m 578 279 b 529 351 532 279 521 308 l 532 368 b 606 438 538 417 561 438 b 664 363 653 438 675 418 l 661 347 b 586 279 651 301 631 279 z m 544 56 b 482 132 494 56 472 78 l 486 156 b 564 224 493 200 519 224 l 574 224 b 632 150 618 224 640 197 l 628 125 b 544 56 617 71 590 56 z m 249 499 b 463 929 297 653 378 808 l 472 988 l 213 988 l 200 918 l 388 918 b 169 499 314 814 222 657 z "},"%":{"ha":828,"x_min":0,"x_max":0,"o":"m 256 575 b 419 708 351 575 404 622 l 442 836 b 303 997 460 935 408 997 b 142 865 214 997 157 950 l 119 742 b 256 575 101 644 140 575 z m 11 0 l 115 0 l 850 988 l 749 988 z m 263 644 b 193 738 206 644 183 676 l 214 854 b 301 931 224 907 253 931 b 368 839 351 931 379 901 l 349 724 b 263 644 339 668 311 644 z m 554 -14 b 718 119 650 -14 703 33 l 740 249 b 601 410 758 347 707 410 b 442 278 513 410 457 363 l 418 153 b 554 -14 400 56 439 -14 z m 561 56 b 492 150 504 56 482 88 l 513 267 b 600 343 522 319 551 343 b 667 251 650 343 679 314 l 647 135 b 561 56 638 81 610 56 z "},"‰":{"ha":1218,"x_min":0,"x_max":0,"o":"m 256 575 b 419 708 351 575 404 622 l 442 836 b 303 997 460 935 408 997 b 142 865 214 997 157 950 l 119 742 b 256 575 101 644 140 575 z m 11 0 l 115 0 l 850 988 l 749 988 z m 263 644 b 193 738 206 644 183 676 l 214 854 b 301 931 224 907 253 931 b 368 839 351 931 379 901 l 349 724 b 263 644 339 668 311 644 z m 944 -14 b 1108 119 1040 -14 1093 33 l 1131 249 b 992 410 1149 347 1097 410 b 832 278 903 410 847 363 l 808 153 b 944 -14 790 56 829 -14 z m 554 -14 b 718 119 650 -14 703 33 l 740 249 b 601 410 758 347 707 410 b 442 278 513 410 457 363 l 418 153 b 554 -14 400 56 439 -14 z m 951 56 b 882 150 894 56 872 88 l 903 267 b 990 343 913 319 942 343 b 1057 251 1040 343 1069 314 l 1038 135 b 951 56 1028 81 1000 56 z m 561 56 b 492 150 504 56 482 88 l 513 267 b 600 343 522 319 551 343 b 667 251 650 343 679 314 l 647 135 b 561 56 638 81 610 56 z "},"№":{"ha":1183,"x_min":0,"x_max":0,"o":"m 960 426 b 1160 597 1076 426 1140 488 l 1194 796 b 1026 1001 1217 921 1153 1001 b 829 832 919 1001 849 940 l 796 642 b 960 426 774 517 821 426 z m 968 508 b 882 636 894 508 869 560 l 914 818 b 1025 922 926 889 963 922 b 1110 799 1092 922 1125 879 l 1078 618 b 968 508 1067 549 1033 508 z m 238 688 l 254 868 l 268 746 l 481 0 l 567 0 l 740 988 l 649 988 l 528 306 l 515 146 l 496 257 l 288 988 l 199 988 l 26 0 l 117 0 z m 736 238 l 1085 238 l 1100 324 l 751 324 z "},"¤":{"ha":708,"x_min":0,"x_max":0,"o":"m 346 335 b 232 479 256 335 218 399 l 240 529 b 404 674 256 613 317 674 b 519 529 496 674 533 611 l 511 479 b 346 335 497 397 435 335 z m 340 251 b 471 283 390 251 433 263 l 549 181 l 621 242 l 543 346 b 596 469 569 381 588 422 l 604 522 b 589 661 614 574 608 622 l 714 776 l 656 836 l 535 724 b 410 758 503 746 460 758 b 285 728 364 758 321 747 l 204 835 l 132 772 l 211 667 b 157 540 185 632 165 589 l 147 489 b 158 353 138 438 142 392 l 28 233 l 86 172 l 211 288 b 340 251 244 265 288 251 z "},"←":{"ha":1118,"x_min":0,"x_max":0,"o":"m 1015 453 l 1015 549 l 240 549 b 440 803 315 604 400 701 l 331 803 b 85 524 294 701 182 581 l 85 476 b 336 197 182 421 297 299 l 446 197 b 238 453 404 300 314 397 z "},"→":{"ha":1118,"x_min":0,"x_max":0,"o":"m 779 197 b 1029 476 817 299 932 421 l 1029 524 b 783 803 932 581 822 701 l 674 803 b 875 549 714 701 800 603 l 100 549 l 100 454 l 878 454 b 668 197 801 400 710 301 z "},"↑":{"ha":1118,"x_min":0,"x_max":0,"o":"m 858 590 l 858 700 b 579 946 757 738 635 849 l 532 946 b 251 700 475 850 354 738 l 251 590 b 508 793 354 632 453 717 l 508 49 l 604 49 l 604 793 b 858 590 658 717 754 631 z "},"↓":{"ha":1118,"x_min":0,"x_max":0,"o":"m 579 44 b 860 290 635 142 757 253 l 860 400 b 601 196 757 358 656 272 l 601 942 l 507 942 l 507 196 b 253 401 453 272 356 360 l 253 290 b 532 44 354 253 475 142 z "},"↖":{"ha":1118,"x_min":0,"x_max":0,"o":"m 915 210 l 365 758 b 690 794 458 743 589 750 l 613 872 b 240 850 514 828 350 821 l 208 817 b 183 444 236 708 229 543 l 261 367 b 299 692 303 467 313 599 l 850 142 z "},"↗":{"ha":1118,"x_min":0,"x_max":0,"o":"m 842 367 l 919 444 b 896 817 874 543 867 707 l 863 849 b 490 874 754 821 589 828 l 413 796 b 739 758 514 753 646 743 l 189 207 l 256 142 l 806 693 b 842 367 790 601 796 469 z "},"↘":{"ha":1118,"x_min":0,"x_max":0,"o":"m 863 160 l 897 193 b 919 565 868 301 875 467 l 843 643 b 806 317 800 540 790 410 l 256 867 l 189 800 l 739 251 b 414 215 647 267 517 260 l 492 138 b 863 160 590 182 754 189 z "},"↙":{"ha":1118,"x_min":0,"x_max":0,"o":"m 613 136 l 690 214 b 364 250 589 256 457 265 l 915 801 l 847 868 l 299 319 b 263 642 314 411 307 540 l 185 564 b 207 193 229 465 236 301 l 240 160 b 613 136 349 188 514 181 z "},"○":{"ha":1251,"x_min":0,"x_max":0,"o":"m 624 -14 b 1126 488 917 -14 1126 197 b 624 990 1126 779 915 990 b 125 488 333 990 125 778 b 624 -14 125 194 332 -14 z m 624 118 b 258 488 415 118 258 278 b 624 861 258 701 418 861 b 993 488 836 861 993 697 b 624 118 993 278 835 118 z "},"●":{"ha":1251,"x_min":0,"x_max":0,"o":"m 624 -14 b 1126 488 917 -14 1126 197 b 624 990 1126 779 915 990 b 125 488 333 990 125 778 b 624 -14 125 194 332 -14 z "},"■":{"ha":1254,"x_min":0,"x_max":0,"o":"m 138 0 l 1117 0 l 1117 988 l 138 988 z "},"□":{"ha":1254,"x_min":0,"x_max":0,"o":"m 138 0 l 1117 0 l 1117 988 l 138 988 z m 271 125 l 271 861 l 983 861 l 983 125 z "},"⊠":{"ha":1254,"x_min":0,"x_max":0,"o":"m 138 0 l 1117 0 l 1117 988 l 138 988 z m 271 125 l 271 861 l 983 861 l 983 125 z m 817 222 l 897 301 l 704 499 l 894 694 l 817 772 l 628 578 l 439 771 l 358 694 l 550 497 l 357 299 l 436 221 l 626 418 z "},"▪":{"ha":1058,"x_min":0,"x_max":0,"o":"m 139 0 l 919 0 l 919 781 l 139 781 z "},"▫":{"ha":1058,"x_min":0,"x_max":0,"o":"m 139 0 l 919 0 l 919 781 l 139 781 z m 272 125 l 272 657 l 789 657 l 789 125 z "},"▲":{"ha":1219,"x_min":0,"x_max":0,"o":"m 1190 0 l 611 1007 l 29 0 z "},"▼":{"ha":1219,"x_min":0,"x_max":0,"o":"m 611 -17 l 1190 990 l 29 990 z "},"◄":{"ha":1219,"x_min":0,"x_max":0,"o":"m 1082 1085 l 75 504 l 1082 -76 z "},"►":{"ha":1219,"x_min":0,"x_max":0,"o":"m 138 -76 l 1143 504 l 138 1085 z "},"◤":{"ha":1219,"x_min":0,"x_max":0,"o":"m 1164 -72 l 863 1049 l 42 226 z "},"◥":{"ha":1219,"x_min":0,"x_max":0,"o":"m 1183 221 l 363 1043 l 63 -78 z "},"◢":{"ha":1219,"x_min":0,"x_max":0,"o":"m 1185 722 l 64 1024 l 363 -99 z "},"◣":{"ha":1219,"x_min":0,"x_max":0,"o":"m 858 -99 l 1160 1024 l 38 722 z "},"◎":{"ha":1247,"x_min":0,"x_max":0,"o":"m 621 -14 b 1122 486 915 -14 1122 199 b 621 989 1122 779 911 989 b 124 486 331 989 124 775 b 621 -14 124 194 331 -14 z m 621 164 b 303 486 442 164 303 303 b 621 814 303 672 442 814 b 943 486 807 814 943 668 b 621 164 943 303 807 164 z m 622 254 b 857 485 757 254 857 354 b 622 718 857 618 756 718 b 390 485 492 718 390 618 b 622 254 390 351 488 254 z m 622 407 b 550 485 581 407 550 442 b 622 565 550 532 581 565 b 697 485 667 565 697 532 b 622 407 697 442 667 407 z "},"★":{"ha":1238,"x_min":0,"x_max":0,"o":"m 358 117 l 615 301 l 871 117 l 771 415 l 1029 600 l 714 601 l 617 899 l 517 601 l 204 603 l 458 417 z "},"☼":{"ha":1276,"x_min":0,"x_max":0,"o":"m 619 778 l 647 778 l 671 974 l 597 974 z m 767 747 l 788 733 l 907 890 l 843 929 z m 479 733 l 499 747 l 424 929 l 358 890 z m 878 644 l 892 622 l 1074 700 l 1032 763 z m 375 622 l 389 643 l 232 763 l 194 699 z m 394 488 b 633 249 394 357 503 249 b 872 488 763 249 872 357 b 633 726 872 618 763 726 b 394 488 503 726 394 618 z m 922 503 l 922 476 l 1118 453 l 1118 526 z m 344 476 l 344 503 l 150 526 l 150 453 z m 389 333 l 375 354 l 194 278 l 235 214 z m 892 354 l 878 335 l 1035 214 l 1074 279 z m 499 231 l 479 244 l 358 88 l 424 50 z m 788 244 l 767 231 l 843 50 l 907 88 z m 647 201 l 619 201 l 597 6 l 671 6 z "},"☾":{"ha":1082,"x_min":0,"x_max":0,"o":"m 735 829 b 831 813 765 829 799 821 b 588 890 761 863 676 890 b 182 485 363 890 182 708 b 588 79 182 261 363 79 b 831 158 676 79 761 108 b 735 142 799 149 765 142 b 406 485 553 142 406 296 b 735 829 406 674 553 829 z "},"♻":{"ha":1140,"x_min":0,"x_max":0,"o":"m 482 932 b 588 867 482 932 551 928 l 671 721 l 624 693 l 822 656 l 896 851 l 844 822 l 811 879 b 707 933 782 931 750 932 l 482 933 z m 244 722 l 418 622 l 553 856 b 361 896 529 900 431 938 b 324 861 344 888 329 871 z m 947 639 l 774 542 l 908 308 b 1039 454 957 308 1040 372 b 1029 504 1039 475 1033 494 z m 229 172 b 233 296 229 172 200 236 b 318 442 236 301 318 442 l 364 413 l 297 607 l 93 571 l 143 542 l 110 483 b 115 365 79 433 94 403 l 226 172 z m 1015 338 b 903 276 1015 338 972 276 l 736 276 l 736 335 l 606 178 l 736 19 l 736 76 l 801 76 b 903 142 863 76 881 106 l 1017 336 z m 531 76 l 531 276 l 263 276 b 324 92 236 233 253 133 b 374 76 342 81 360 76 z "},"♼":{"ha":1140,"x_min":0,"x_max":0,"o":"m 1033 485 b 572 951 1033 743 826 951 b 106 485 315 951 106 743 b 572 24 106 228 315 24 b 1033 485 826 24 1033 228 z m 493 839 l 668 839 b 751 796 703 839 728 836 l 775 753 l 814 774 l 760 622 l 606 651 l 642 674 l 576 786 b 493 838 550 832 493 838 z m 376 781 b 406 810 379 790 392 801 b 554 778 460 842 536 813 l 451 599 l 317 675 z m 921 507 b 932 468 926 497 932 483 b 831 351 932 404 869 351 l 726 533 l 861 613 z m 303 247 l 215 397 b 211 490 201 428 188 450 l 238 535 l 200 558 l 354 585 l 408 435 l 371 458 l 307 346 b 304 247 281 299 304 247 z m 913 374 l 825 224 b 749 176 808 199 794 176 l 697 176 l 697 131 l 594 251 l 697 372 l 697 331 l 825 331 b 911 375 881 331 911 375 z m 411 176 b 371 188 401 176 385 179 b 325 331 318 217 304 296 l 533 331 l 533 176 z "},"♽":{"ha":1140,"x_min":0,"x_max":0,"o":"m 1033 485 b 572 951 1033 743 826 951 b 106 485 315 951 106 743 b 572 24 106 228 315 24 b 1033 485 826 24 1033 228 z m 1011 485 b 572 46 1011 240 814 46 b 129 485 328 46 129 240 b 572 928 129 731 328 928 b 1011 485 814 928 1011 731 z m 493 838 b 576 786 493 838 550 832 l 642 674 l 606 651 l 760 622 l 814 774 l 775 753 l 751 796 b 668 839 728 836 703 839 l 493 839 z m 317 675 l 451 599 l 554 778 b 406 810 536 813 460 842 b 376 781 392 801 379 790 z m 861 613 l 726 533 l 831 351 b 932 468 869 351 932 404 b 921 507 932 483 926 497 z m 304 247 b 307 346 304 247 281 299 l 371 458 l 408 435 l 354 585 l 200 558 l 238 535 l 211 490 b 215 397 188 450 201 428 l 303 247 z m 911 375 b 825 331 911 375 881 331 l 697 331 l 697 372 l 594 251 l 697 131 l 697 176 l 749 176 b 825 224 794 176 808 199 l 913 374 z m 533 176 l 533 331 l 325 331 b 371 188 304 296 318 217 b 411 176 385 179 401 176 z "},"⌂":{"ha":1171,"x_min":0,"x_max":0,"o":"m 139 0 l 1032 0 l 1032 557 l 586 986 l 139 557 z "},"♠":{"ha":1235,"x_min":0,"x_max":0,"o":"m 661 389 b 906 207 697 296 774 207 b 1117 419 1024 207 1117 303 b 811 853 1117 574 1033 675 l 622 1003 l 435 853 b 118 419 211 675 118 574 b 347 207 118 303 222 207 b 576 389 471 207 543 296 b 449 0 576 226 486 68 l 796 0 b 661 389 761 68 661 226 z "},"♣":{"ha":1240,"x_min":0,"x_max":0,"o":"m 889 176 b 1126 415 1021 176 1126 283 b 890 651 1126 547 1022 651 b 826 640 868 651 846 647 b 853 761 843 676 853 719 b 618 996 853 890 749 996 b 379 761 486 996 379 890 b 407 643 379 719 390 679 b 350 651 390 647 371 651 b 113 415 219 651 113 547 b 350 176 113 283 219 176 b 576 338 456 176 539 243 b 451 0 560 194 485 60 l 799 0 b 669 336 768 60 688 193 b 889 176 704 243 785 176 z "},"♥":{"ha":1240,"x_min":0,"x_max":0,"o":"m 617 -24 l 804 189 b 1118 742 1029 436 1118 586 b 863 996 1118 881 1001 996 b 617 774 724 996 629 900 b 367 996 604 900 506 996 b 121 742 229 996 121 881 b 426 189 121 586 204 436 z "},"♦":{"ha":1240,"x_min":0,"x_max":0,"o":"m 619 -14 l 1058 499 l 619 1007 l 181 499 z "},"+":{"ha":617,"x_min":0,"x_max":0,"o":"m 536 444 l 551 532 l 375 532 l 406 704 l 319 704 l 289 532 l 114 532 l 100 444 l 274 444 l 243 272 l 329 272 l 360 444 z "},"−":{"ha":617,"x_min":0,"x_max":0,"o":"m 546 444 l 563 533 l 101 533 l 85 444 z "},"±":{"ha":617,"x_min":0,"x_max":0,"o":"m 544 567 l 560 654 l 396 654 l 424 813 l 338 813 l 310 654 l 149 654 l 133 567 l 294 567 l 267 410 l 353 410 l 381 567 z m 486 239 l 503 328 l 92 328 l 76 239 z "},"×":{"ha":613,"x_min":0,"x_max":0,"o":"m 439 283 l 507 342 l 381 501 l 556 653 l 507 714 l 332 563 l 215 710 l 146 650 l 263 504 l 75 343 l 124 282 l 311 443 z "},"÷":{"ha":617,"x_min":0,"x_max":0,"o":"m 346 618 b 414 678 383 618 406 633 b 368 739 421 722 407 739 b 299 678 328 739 306 722 b 346 618 290 633 306 618 z m 92 443 l 540 443 l 557 532 l 107 532 z m 278 239 b 346 297 317 239 338 253 b 300 357 354 343 339 357 b 231 297 260 357 239 343 b 278 239 222 251 238 239 z "},"=":{"ha":628,"x_min":0,"x_max":0,"o":"m 561 582 l 576 669 l 144 669 l 131 582 z m 515 321 l 531 410 l 99 410 l 83 321 z "},"≠":{"ha":628,"x_min":0,"x_max":0,"o":"m 515 324 l 531 410 l 318 410 l 396 583 l 561 583 l 576 669 l 435 669 l 486 782 l 425 782 l 374 669 l 144 669 l 131 583 l 335 583 l 257 410 l 99 410 l 85 324 l 218 324 l 161 197 l 222 197 l 279 324 z "},"≈":{"ha":628,"x_min":0,"x_max":0,"o":"m 206 442 b 101 396 164 442 119 419 l 83 300 b 190 353 108 329 151 353 b 414 299 254 353 328 299 b 515 343 458 299 497 321 l 532 440 b 428 386 503 404 468 386 b 206 442 364 386 285 442 z m 250 683 b 143 638 207 683 163 661 l 128 542 b 233 596 151 575 197 596 b 456 542 297 596 368 542 b 558 586 496 542 540 563 l 575 683 b 472 629 549 649 511 629 b 250 683 406 629 328 683 z "},"<":{"ha":628,"x_min":0,"x_max":0,"o":"m 497 279 l 515 376 l 224 504 l 560 629 l 578 733 l 124 550 l 108 465 z "},">":{"ha":628,"x_min":0,"x_max":0,"o":"m 89 279 l 543 464 l 558 547 l 168 733 l 151 636 l 444 508 l 107 382 z "},"≤":{"ha":628,"x_min":0,"x_max":0,"o":"m 517 378 l 535 475 l 247 589 l 574 697 l 592 800 l 140 635 l 125 550 z m 488 207 l 504 294 l 82 294 l 65 207 z "},"≥":{"ha":628,"x_min":0,"x_max":0,"o":"m 104 378 l 556 544 l 571 629 l 179 800 l 161 704 l 449 590 l 122 481 z m 72 207 l 494 207 l 510 294 l 89 294 z "},"¬":{"ha":693,"x_min":0,"x_max":0,"o":"m 585 288 l 647 633 l 103 633 l 88 543 l 536 543 l 492 288 z "},"≡":{"ha":628,"x_min":0,"x_max":0,"o":"m 575 657 l 590 743 l 158 743 l 143 657 z m 538 453 l 554 540 l 122 540 l 107 453 z m 503 251 l 518 338 l 88 338 l 71 251 z "},"′":{"ha":231,"x_min":0,"x_max":0,"o":"m 164 711 l 297 988 l 200 988 l 96 711 z "},"″":{"ha":388,"x_min":0,"x_max":0,"o":"m 315 711 l 457 988 l 360 988 l 247 711 z m 163 711 l 294 988 l 199 988 l 94 711 z "},"℅":{"ha":828,"x_min":0,"x_max":0,"o":"m 11 0 l 115 0 l 850 988 l 749 988 z m 256 575 b 419 708 351 575 404 622 l 425 742 l 347 742 l 344 724 b 261 644 335 668 308 644 b 193 738 206 644 183 676 l 214 854 b 300 931 224 907 251 931 b 364 839 349 931 376 901 l 361 826 l 440 826 l 442 836 b 303 997 460 935 408 997 b 142 865 214 997 157 950 l 119 742 b 256 575 101 644 140 575 z m 554 -14 b 718 119 650 -14 703 33 l 740 249 b 601 410 758 347 707 410 b 442 278 513 410 457 363 l 418 153 b 554 -14 400 56 439 -14 z m 561 56 b 492 150 504 56 482 88 l 513 267 b 600 343 522 319 551 343 b 667 251 650 343 679 314 l 647 135 b 561 56 638 81 610 56 z "},"‗":{"ha":604,"x_min":0,"x_max":0,"o":"m 499 76 l -7 76 l -19 0 l 486 0 z m 471 -82 l -35 -82 l -49 -158 l 457 -158 z "},"‼":{"ha":619,"x_min":0,"x_max":0,"o":"m 376 222 b 413 226 383 224 399 226 b 447 222 426 226 440 224 b 563 779 457 251 525 568 l 599 988 l 494 988 l 458 779 b 376 222 421 568 378 251 z m 110 222 b 146 226 117 224 132 226 b 181 222 160 226 174 224 b 296 779 190 251 258 568 l 332 988 l 228 988 l 192 779 b 110 222 154 568 111 251 z m 374 -11 b 457 68 422 -11 446 7 b 399 153 468 126 447 153 b 314 74 347 153 324 132 b 374 -11 303 13 324 -11 z m 107 -11 b 190 68 156 -11 179 7 b 131 153 201 126 181 153 b 46 74 81 153 57 132 b 107 -11 35 13 57 -11 z "},"∞":{"ha":988,"x_min":0,"x_max":0,"o":"m 254 315 b 504 440 354 315 432 381 b 724 315 558 385 625 315 b 929 488 832 315 910 379 b 765 683 947 597 878 683 b 519 556 671 683 588 617 b 299 682 467 613 406 682 b 94 511 201 682 113 617 b 254 315 74 396 139 315 z m 265 400 b 185 504 207 400 175 450 b 299 597 194 561 243 597 b 457 501 361 597 414 550 b 265 400 394 449 332 400 z m 725 400 b 569 496 661 400 614 449 b 756 596 629 549 692 596 b 838 494 814 596 847 550 b 725 400 828 440 783 400 z "},"∂":{"ha":649,"x_min":0,"x_max":0,"o":"m 274 -12 b 549 232 435 -12 522 75 l 601 529 b 397 1058 642 757 565 929 l 251 1058 b 525 682 432 929 515 821 b 354 792 503 753 444 792 b 93 551 215 792 121 706 l 49 293 b 274 -12 18 115 79 -12 z m 282 76 b 143 275 164 76 122 157 l 190 540 b 361 706 210 650 267 706 b 500 513 468 706 522 639 l 453 247 b 282 76 435 139 383 76 z "},"π":{"ha":772,"x_min":0,"x_max":0,"o":"m 453 196 b 610 0 426 44 463 0 l 654 0 l 668 90 l 633 90 b 554 206 553 90 538 111 l 676 897 l 822 897 l 839 988 l 142 988 l 125 897 l 265 897 l 108 0 l 206 0 l 363 897 l 576 897 z "},"μ":{"ha":647,"x_min":0,"x_max":0,"o":"m 249 -12 b 422 125 339 -12 390 39 l 411 0 l 490 0 l 629 794 l 531 794 l 440 282 b 264 76 418 153 360 76 b 161 250 171 76 142 140 l 257 794 l 158 794 l -29 -268 l 64 -268 l 131 103 b 249 -12 133 26 165 -12 z "},"∫":{"ha":397,"x_min":0,"x_max":0,"o":"m -110 -208 l -51 -208 b 169 -1 96 -208 142 -164 l 321 854 b 449 993 342 971 364 993 l 488 993 l 503 1079 l 453 1079 b 226 864 315 1079 256 1028 l 76 10 b -46 -117 57 -97 35 -117 l -93 -117 z "},"√":{"ha":785,"x_min":0,"x_max":0,"o":"m 325 0 l 853 988 l 749 988 l 308 153 l 254 665 l 92 665 l 75 572 l 167 572 l 231 0 z "},"∆":{"ha":807,"x_min":0,"x_max":0,"o":"m -54 0 l 722 0 l 511 1006 z m 601 90 l 104 90 l 471 760 z "},"Ω":{"ha":858,"x_min":0,"x_max":0,"o":"m 311 78 b 224 564 247 221 188 360 b 507 908 267 814 374 908 b 686 561 647 908 731 806 b 429 78 650 356 553 219 l 457 0 l 753 0 l 768 93 l 556 93 b 786 551 658 210 753 360 b 517 1000 842 854 707 1000 b 124 572 314 1000 175 863 b 197 93 86 360 136 210 l -19 93 l -36 0 l 254 0 z "},"∏":{"ha":772,"x_min":0,"x_max":0,"o":"m 425 0 l 524 0 l 681 897 l 824 897 l 839 988 l 142 988 l 125 897 l 265 897 l 108 0 l 206 0 l 364 897 l 582 897 z "},"∑":{"ha":542,"x_min":0,"x_max":0,"o":"m 440 90 l 97 90 l 403 501 l 240 899 l 568 899 l 583 988 l 156 988 l 139 892 l 297 511 l -10 100 l -26 0 l 425 0 z "},"◊":{"ha":814,"x_min":0,"x_max":0,"o":"m 358 124 l 792 490 l 485 860 l 53 493 z m 376 251 l 182 489 l 467 732 l 663 494 z "},"°":{"ha":436,"x_min":0,"x_max":0,"o":"m 281 675 b 458 824 374 675 442 726 b 311 999 475 917 418 999 b 133 853 221 999 150 943 b 281 675 115 754 171 675 z m 285 751 b 215 843 233 751 206 793 b 306 924 224 896 256 924 b 376 832 358 924 386 882 b 285 751 367 778 336 751 z "}}}
